<svg width="24" height="24" viewBox="0 0 24 24" fill="none" xmlns="http://www.w3.org/2000/svg">
<g clip-path="url(#clip0_192_974)">
<path d="M21 1.00031H3C2.20435 1.00031 1.44129 1.31638 0.87868 1.87898C0.31607 2.44159 0 3.20466 0 4.00031L0 23.0003H24V4.00031C24 3.20466 23.6839 2.44159 23.1213 1.87898C22.5587 1.31638 21.7956 1.00031 21 1.00031ZM20.774 4.00031L13.639 11.1353C13.1975 11.557 12.6105 11.7923 12 11.7923C11.3895 11.7923 10.8025 11.557 10.361 11.1353L3.226 4.00031H20.774ZM3 20.0003V8.01731L8.239 13.2563C8.73276 13.7503 9.319 14.1421 9.96424 14.4095C10.6095 14.6768 11.3011 14.8144 11.9995 14.8144C12.6979 14.8144 13.3895 14.6768 14.0348 14.4095C14.68 14.1421 15.2662 13.7503 15.76 13.2563L21 8.01731V20.0003H3Z" fill="#2A70C8"/>
</g>
<defs>
<clipPath id="clip0_192_974">
<rect width="24" height="24" fill="white"/>
</clipPath>
</defs>
</svg>
