<svg width="32" height="32" viewBox="0 0 32 32" fill="none" xmlns="http://www.w3.org/2000/svg">
<g clip-path="url(#clip0_192_1016)">
<path fill-rule="evenodd" clip-rule="evenodd" d="M18.488 32H23.9099C28.443 32 32.0873 28.3657 31.9984 23.8449V8.06648C31.9984 3.63435 28.3541 0 23.9099 0H8.08849C3.64426 0 0 3.63435 0 8.06648V23.8449C0 28.277 3.64426 31.9114 8.08849 31.9114H13.4738V20.4765H9.48486V15.9557H13.4738V12.4987C13.4738 8.50975 15.8671 6.38232 19.5015 6.38232C21.2743 6.38232 23.0472 6.64825 23.0472 6.64825V10.6372H21.0971C19.1469 10.6372 18.5264 11.8782 18.5264 13.1192V16.0444H22.8699L22.1608 20.5651H18.4378V31.9114H18.2392L18.488 32Z" fill="#C6CAD8"/>
</g>
<defs>
<clipPath id="clip0_192_1016">
<rect width="32" height="32" fill="white"/>
</clipPath>
</defs>
</svg>
