<svg width="32" height="32" viewBox="0 0 32 32" fill="none" xmlns="http://www.w3.org/2000/svg">
<path fill-rule="evenodd" clip-rule="evenodd" d="M8.08849 32H23.9099C28.443 32 32.0873 28.3657 31.9984 23.8449V8.06648C31.9984 3.63435 28.3541 0 23.9099 0H8.08849C3.64426 0 0 3.63435 0 8.06648V23.9335C0 28.3657 3.64426 32 8.08849 32ZM12.3551 25.2631H19.7325C22.8435 25.2631 25.3322 22.7811 25.3322 19.6786V12.3213C25.3322 9.21881 22.8435 6.73682 19.7325 6.73682H12.3551C9.24414 6.73682 6.75537 9.21881 6.75537 12.3213V19.6786C6.75537 22.7811 9.24414 25.2631 12.3551 25.2631ZM22.0434 11.1689C22.0434 11.7564 21.5658 12.2326 20.9768 12.2326C20.3877 12.2326 19.9102 11.7564 19.9102 11.1689C19.9102 10.5815 20.3877 10.1052 20.9768 10.1052C21.5658 10.1052 22.0434 10.5815 22.0434 11.1689ZM16.0883 11.4349C13.5995 11.4349 11.5552 13.4737 11.5552 15.9557C11.5552 18.4376 13.5995 20.4764 16.0883 20.4764C18.577 20.4764 20.6214 18.4376 20.6214 15.9557C20.7103 13.4737 18.6659 11.4349 16.0883 11.4349ZM16.0883 18.9695C14.4884 18.9695 13.1551 17.6399 13.1551 16.0443C13.1551 14.4487 14.4884 13.1191 16.0883 13.1191C17.6882 13.1191 19.0215 14.4487 19.0215 16.0443C19.0215 17.6399 17.6882 18.9695 16.0883 18.9695Z" fill="#C6CAD8"/>
</svg>
