<svg width="210" height="52" viewBox="0 0 210 52" fill="none" xmlns="http://www.w3.org/2000/svg">
<g clip-path="url(#clip0_192_1008)">
<path d="M81.1218 35.2219C80.8978 36.2306 80.2071 36.7304 79.0404 36.7304C78.2471 36.7304 77.6778 36.5268 77.3138 36.1103C77.0804 35.8142 76.9311 35.4533 76.8938 35.0739C76.8471 34.5093 76.8284 33.9448 76.8378 33.3896V28.1701H69.9218V33.4358C69.9404 34.1114 69.8938 34.7777 69.7538 35.4348C69.5018 36.3139 68.8298 36.7396 67.7471 36.7396C66.9351 36.7396 66.3471 36.5175 65.9924 36.0641C65.7684 35.7679 65.6378 35.4163 65.6004 35.0461C65.5444 34.5001 65.5164 33.9633 65.5351 33.4173V18.268C65.5351 17.8701 65.6191 17.4721 65.7964 17.1205C66.1231 16.4542 66.7858 16.1118 67.8031 16.1118C68.6151 16.1118 69.2031 16.3801 69.5578 16.9169C69.8004 17.2871 69.9218 18.1292 69.9218 19.4341V24.3944H76.8378V19.4341C76.8378 18.342 76.9124 17.5924 77.0711 17.213C77.3698 16.4819 78.0324 16.121 79.0778 16.121C79.8711 16.121 80.4404 16.3616 80.8044 16.8428C80.9724 17.0742 81.0844 17.3518 81.1311 17.6295C81.1964 18.231 81.2244 18.8325 81.1964 19.4341V33.4081C81.2151 34.0096 81.1871 34.6204 81.1124 35.2127H81.1218V35.2219ZM97.7818 32.279C96.9791 35.2589 94.9444 36.7581 91.6684 36.7581C87.3564 36.7581 85.2004 34.1207 85.2004 28.8549C85.1631 27.3743 85.3964 25.8936 85.8818 24.4869C86.3484 23.1358 87.3751 22.0438 88.7004 21.47C89.6804 21.0536 90.7351 20.8407 91.7991 20.8592C94.2911 20.8592 96.0551 21.7384 97.0911 23.506C97.7818 24.6998 98.1271 26.4766 98.1271 28.8364C98.1458 30.0025 98.0431 31.15 97.7818 32.279ZM93.3858 25.3105C93.0218 24.7645 92.3964 24.4406 91.7431 24.4684C91.2111 24.4591 90.6978 24.6442 90.3058 24.9959C89.9138 25.3661 89.6618 25.838 89.5684 26.3655C89.4098 27.1892 89.3444 28.0221 89.3538 28.8549C89.3538 30.2153 89.4751 31.1963 89.7271 31.8163C90.0258 32.6307 90.8284 33.149 91.7058 33.0842C92.7044 33.0842 93.3671 32.5659 93.7124 31.5202C93.8991 30.9649 93.9924 30.021 93.9924 28.6884C93.9924 27.0318 93.7964 25.9028 93.3951 25.3198H93.3858V25.3105ZM110.568 23.9872C110.288 24.5054 109.728 24.8108 109.131 24.7831C108.898 24.7738 108.674 24.746 108.45 24.6998C108.216 24.6627 107.983 24.6442 107.759 24.635C107.283 24.598 106.826 24.8016 106.527 25.1717C106.34 25.4401 106.219 25.7455 106.182 26.0694C106.154 26.31 106.144 26.8005 106.144 27.5501V33.6024C106.172 34.2595 106.126 34.9165 105.986 35.5643C105.762 36.3417 105.127 36.7211 104.072 36.7211C103.176 36.7211 102.588 36.4527 102.271 35.9252C102.084 35.6013 101.991 34.8332 101.991 33.6024V23.7095C101.963 23.1265 102 22.5343 102.112 21.9605C102.383 21.1831 102.99 20.7944 103.932 20.7944C104.642 20.7944 105.127 20.998 105.398 21.4145C105.547 21.7014 105.631 22.0253 105.631 22.3584C106.322 21.3312 107.498 20.7389 108.739 20.7667C110.186 20.7667 110.914 21.3682 110.914 22.562C110.932 23.0617 110.811 23.5522 110.568 23.9872ZM125.688 35.4533C125.558 36.3232 124.951 36.7581 123.878 36.7581C123.159 36.7581 122.655 36.5545 122.366 36.1659C122.198 35.8882 122.104 35.5736 122.076 35.2589C121.134 36.2584 119.864 36.7674 118.259 36.7674C117.475 36.7766 116.7 36.6286 115.972 36.3417C114.88 35.916 113.994 35.0739 113.536 34.0004C113.219 33.3155 113.06 32.5752 113.06 31.8163C113.042 30.7891 113.359 29.7804 113.984 28.9567C114.74 27.9388 115.963 27.2817 117.652 26.9763C118.632 26.8283 119.622 26.7542 120.611 26.7727H121.843V26.0324C121.862 25.6159 121.703 25.2087 121.404 24.9126C120.966 24.5147 120.378 24.3111 119.79 24.3574C118.772 24.3574 117.783 24.7738 116.831 25.5974C116.542 25.8936 116.168 26.0787 115.758 26.1157C115.319 26.1157 114.89 25.9491 114.572 25.6437C114.171 25.3013 113.938 24.8016 113.947 24.2741C113.947 23.7095 114.246 23.1728 114.843 22.6453C115.412 22.1456 116.075 21.7569 116.794 21.4978C117.886 21.0813 119.052 20.8777 120.219 20.887C121.918 20.887 123.262 21.2479 124.251 21.979C125.016 22.5528 125.52 23.4134 125.642 24.3574C125.735 25.0422 125.782 25.7362 125.763 26.4303V33.9078C125.772 34.426 125.744 34.9535 125.698 35.4718L125.688 35.4533ZM121.824 29.9284C120.751 29.8822 119.668 29.9932 118.623 30.2338C117.755 30.493 117.326 30.9834 117.326 31.696C117.316 32.1495 117.512 32.5844 117.867 32.8713C118.259 33.1767 118.744 33.3248 119.23 33.297C120.406 33.297 121.199 32.8343 121.6 31.8996C121.778 31.4647 121.862 30.9927 121.852 30.5207L121.824 29.9284Z" fill="#C6CAD8"/>
<path d="M40.8002 6.40398C40.1189 7.53301 38.9242 6.84819 38.3175 6.68161C37.7109 6.51503 35.1535 5.11763 30.6175 5.08061C26.0815 5.0436 20.9109 7.50525 20.9109 7.50525C20.9109 7.50525 17.9242 6.20039 14.3589 8.31037C12.5389 9.72628 11.5402 11.9381 11.6989 14.2239C10.4575 16.1488 9.58954 18.2865 9.15087 20.5261C8.23621 24.9126 9.09487 29.4842 11.5402 33.26C11.5402 33.26 12.8282 34.7777 11.2135 35.7124C9.76687 36.5453 8.7402 34.7777 8.7402 34.7777C7.66687 33.26 6.73354 31.6405 5.94954 29.9562C4.66154 27.1707 4.85754 24.0149 3.7842 22.8026C2.6362 21.4978 0.358871 22.2289 0.358871 22.2289C0.358871 22.2289 2.4682 3.81277 21.8722 0.407185C33.0909 -1.55473 40.4082 4.26624 40.4082 4.26624C40.4082 4.26624 41.7055 4.91404 40.8002 6.40398ZM18.4095 19.1934C15.3855 19.1934 12.9309 16.7596 12.9402 13.7612C12.9495 10.7628 15.3855 8.32888 18.4095 8.32888C21.4335 8.32888 23.8882 10.7628 23.8789 13.7612C23.8882 16.7596 21.4335 19.1934 18.4095 19.1934Z" fill="#C6CAD8"/>
<path d="M50.7407 34.7777C46.9327 45.5035 38.2153 49.0386 38.2153 49.0386C38.2153 49.0386 37.0113 49.8438 36.1527 48.3261C35.49 47.1878 36.694 46.4845 37.142 46.0402C37.59 45.596 40.0727 44.0506 42.3407 40.1175C44.6087 36.1844 44.9727 30.4745 44.9727 30.4745C44.9727 30.4745 47.6047 28.5126 47.502 24.3759C46.7927 20.4058 43.6193 19.175 43.6193 19.175C42.546 17.1575 41.0993 15.3622 39.3633 13.8907C35.9567 10.9479 31.5233 9.45793 27.0153 9.73556C27.0153 9.73556 25.0367 10.115 25.0367 8.25487C25.0367 6.58909 27.0713 6.55208 27.0713 6.55208C28.9287 6.35774 30.8047 6.33923 32.6713 6.47804C35.742 6.72791 38.4207 8.43996 40.0167 8.1068C41.7433 7.73663 42.2193 5.40454 42.2193 5.40454C42.2193 5.40454 57.3487 16.2413 50.778 34.8055L50.7407 34.7777ZM45.4673 27.8925C43.9647 30.4837 40.6327 31.3814 38.01 29.9007C35.3967 28.4108 34.4913 25.107 35.9847 22.5065C37.478 19.9246 40.782 19.0269 43.3953 20.4798C46.0367 21.9513 46.9607 25.2736 45.4673 27.8925C45.4673 27.8833 45.4673 27.8833 45.4673 27.8925Z" fill="#C6CAD8"/>
<path d="M42.7509 36.5268C41.9855 38.2203 41.0615 39.8491 39.9975 41.376C38.2429 43.8839 35.3869 45.3276 34.9015 46.8638C34.3602 48.5296 36.1615 50.1121 36.1615 50.1121C36.1615 50.1121 19.1095 57.6359 6.22953 42.6809C-1.21847 34.0188 0.0882001 24.7738 0.0882001 24.7738C0.0882001 24.7738 -0.0144666 23.3394 1.73087 23.3579C3.04687 23.3579 3.07487 24.746 3.24287 25.3476C3.41087 25.9491 3.51353 28.8642 5.8002 32.7788C8.08687 36.6933 12.8842 39.8953 12.8842 39.8953C12.8842 39.8953 13.2762 43.1343 16.9349 45.1148C20.7615 46.5029 23.4215 44.3929 23.4215 44.3929C25.7175 44.4855 28.0042 44.1523 30.1789 43.3935C34.4535 41.9498 37.9815 38.8866 39.9975 34.8795C39.9975 34.8795 40.6602 33.0009 42.3029 33.8985C43.7682 34.7222 42.7602 36.5083 42.7602 36.5083L42.7509 36.5268ZM22.3855 43.5786C19.7815 45.1333 16.3935 44.3004 14.8162 41.7184C13.2482 39.1365 14.0882 35.7772 16.6922 34.2132C19.2962 32.6492 22.6842 33.4914 24.2615 36.0733C24.2709 36.0826 24.2802 36.1011 24.2895 36.1103C25.8389 38.6923 24.9895 42.0331 22.3855 43.5786Z" fill="#C6CAD8"/>
<path d="M144.419 22.6268C143.943 22.96 143.374 23.1451 142.786 23.1358C142.403 23.1451 142.021 23.034 141.713 22.8119C141.349 22.488 141.041 22.1086 140.807 21.6829C140.509 21.1554 140.098 20.7019 139.622 20.3318C139.118 19.9986 138.511 19.832 137.905 19.8505C137.046 19.8228 136.215 20.1374 135.599 20.7204C134.89 21.396 134.451 22.5343 134.302 24.1445C134.227 24.9126 134.19 25.69 134.19 26.4674C134.19 28.2812 134.339 29.6694 134.647 30.6226C135.17 32.2421 136.299 33.0564 138.035 33.0564C138.838 33.0842 139.622 32.8251 140.247 32.3254C140.705 31.8904 141.069 31.3629 141.293 30.7706C141.685 29.9192 142.058 29.401 142.431 29.2437C142.693 29.1234 142.982 29.0678 143.271 29.0678C143.635 29.0678 143.999 29.1511 144.335 29.2992C144.989 29.5306 145.418 30.1598 145.39 30.8447C145.362 31.5202 145.194 32.1773 144.886 32.7788C143.691 35.4255 141.386 36.7489 137.97 36.7489C135.991 36.7489 134.405 36.3602 133.191 35.5736C131.651 34.5834 130.653 33.0657 130.177 31.0297C129.85 29.5213 129.691 27.9943 129.71 26.4489C129.71 22.8767 130.41 20.267 131.81 18.6105C133.275 16.8892 135.338 16.0285 137.998 16.0285C140.705 16.0285 142.73 16.9169 144.093 18.6937C144.783 19.6007 145.119 20.4706 145.119 21.3035C145.129 21.831 144.849 22.3307 144.391 22.6083L144.419 22.6268ZM157.318 23.9872C157.038 24.5055 156.478 24.8109 155.881 24.7831C155.647 24.7738 155.423 24.7461 155.199 24.6998C154.966 24.6628 154.733 24.6443 154.499 24.635C154.023 24.598 153.566 24.8016 153.277 25.1718C153.09 25.4401 152.969 25.7455 152.931 26.0694C152.903 26.31 152.885 26.8005 152.885 27.5501V33.6024C152.913 34.2595 152.866 34.9166 152.735 35.5644C152.511 36.3417 151.877 36.7212 150.822 36.7212C149.926 36.7212 149.329 36.4528 149.021 35.9253C148.834 35.6014 148.741 34.8333 148.741 33.6024V23.7096C148.713 23.1266 148.75 22.5343 148.862 21.9605C149.133 21.1924 149.739 20.8037 150.691 20.7945C151.391 20.7945 151.886 20.9981 152.157 21.4145C152.306 21.7014 152.39 22.0253 152.39 22.3585C153.081 21.3312 154.257 20.739 155.498 20.7667C156.945 20.7667 157.673 21.3682 157.673 22.5621C157.691 23.0618 157.57 23.5523 157.318 23.9872ZM172.737 29.6046C172.578 29.7804 172.363 29.8915 172.121 29.9285C171.729 29.9748 171.337 29.9933 170.945 29.984H164.411C164.439 30.965 164.589 31.6868 164.869 32.1125C165.307 32.7973 166.073 33.1397 167.155 33.1305C167.771 33.1582 168.387 32.9917 168.91 32.6585C169.134 32.4827 169.33 32.2883 169.498 32.0662C169.937 31.5387 170.394 31.2796 170.879 31.2796C171.15 31.2796 171.411 31.3259 171.663 31.4184C171.999 31.548 172.289 31.7793 172.503 32.0755C172.737 32.3531 172.858 32.6955 172.867 33.0564C172.839 33.6487 172.606 34.2132 172.205 34.6574C171.085 36.0548 169.377 36.7582 167.071 36.7582C165.046 36.7582 163.469 36.2492 162.349 35.222C160.939 33.9356 160.23 31.8071 160.23 28.855C160.202 27.4298 160.417 26.0047 160.893 24.6535C161.359 23.2654 162.377 22.1271 163.711 21.5071C164.682 21.0721 165.727 20.8593 166.791 20.887C169.013 20.887 170.665 21.5903 171.729 22.997C172.634 24.1816 173.082 25.8288 173.082 27.9573C173.082 28.7902 172.97 29.3362 172.755 29.6138L172.737 29.6046ZM168.07 24.672C167.669 24.4129 167.193 24.2834 166.717 24.2926C165.177 24.2926 164.411 25.1348 164.411 26.8098H168.873C168.873 25.727 168.602 25.0144 168.07 24.672ZM188.118 36.5083C187.754 36.6841 187.362 36.7674 186.961 36.7582C186.158 36.7582 185.598 36.4991 185.29 35.9808C185.159 35.7309 185.057 35.4718 185.001 35.1942C184.907 35.37 184.786 35.5273 184.637 35.6662C183.937 36.3973 182.975 36.7582 181.743 36.7582C180.978 36.7674 180.231 36.6101 179.531 36.314C178.467 35.8883 177.599 35.0924 177.077 34.0837C176.442 32.8714 176.125 31.1223 176.125 28.8365C176.125 25.764 176.75 23.617 178.001 22.3862C179.027 21.3775 180.418 20.8315 181.865 20.8778C182.929 20.8778 183.769 21.0999 184.375 21.5533C184.571 21.6921 184.739 21.868 184.861 22.0623V18.8788C184.842 18.3791 184.879 17.8701 184.973 17.3704C185.131 16.8151 185.57 16.3802 186.13 16.2043C186.401 16.1118 186.681 16.0655 186.97 16.0655C187.306 16.0655 187.642 16.1303 187.959 16.2414C188.323 16.3617 188.631 16.6208 188.809 16.9632C188.949 17.2131 189.023 17.8609 189.023 18.8973V34.5001C189.023 35.5273 188.734 36.1937 188.146 36.4898H188.118V36.5083ZM184.469 25.5142C184.31 25.181 184.049 24.9126 183.722 24.7368C183.414 24.5517 183.05 24.4592 182.695 24.4592C182.285 24.4499 181.883 24.5702 181.538 24.7831C180.81 25.2458 180.455 26.4674 180.455 28.4478C180.455 30.0025 180.567 31.113 180.782 31.7608C180.885 32.094 181.081 32.3901 181.351 32.6215C181.706 32.9269 182.163 33.0842 182.639 33.075C183.423 33.075 183.993 32.8066 184.329 32.2606C184.674 31.5572 184.851 30.7799 184.842 29.9933C184.861 29.6416 184.87 29.0678 184.87 28.2812C184.87 26.9949 184.739 26.0694 184.478 25.5234V25.5142H184.469ZM195.519 20.0449C194.913 20.0726 194.325 19.8505 193.905 19.4248C193.513 18.9621 193.307 18.3606 193.345 17.7498C193.345 16.8244 193.662 16.1766 194.297 15.8157C194.679 15.6028 195.109 15.501 195.547 15.5103C196.135 15.4732 196.705 15.7046 197.106 16.1303C197.479 16.6023 197.657 17.1945 197.619 17.7868C197.629 19.2953 196.929 20.0449 195.519 20.0449ZM195.519 20.8778C196.537 20.8778 197.162 21.2572 197.405 22.0068C197.535 22.6731 197.591 23.3579 197.554 24.0335V34.5094C197.554 35.9993 196.873 36.7489 195.51 36.7489C195.155 36.7582 194.81 36.6934 194.483 36.5546C194.175 36.4343 193.923 36.2122 193.755 35.9345C193.55 35.5181 193.438 35.0554 193.447 34.5834V24.0057C193.447 22.8952 193.513 22.1919 193.643 21.8957C193.961 21.2202 194.586 20.8778 195.519 20.8778ZM206.757 32.9546C206.841 33.2785 207.083 33.4266 207.522 33.4266C207.671 33.4266 207.821 33.4081 207.97 33.3711C208.185 33.3248 208.409 33.2878 208.633 33.2878C208.829 33.2785 209.015 33.3248 209.193 33.3989C209.463 33.5654 209.669 33.8153 209.79 34.1022C209.93 34.3798 210.005 34.6852 210.014 34.9998C210.014 35.5181 209.706 35.9901 209.23 36.2029C208.418 36.6008 207.513 36.7859 206.617 36.7397C205.011 36.7397 203.882 36.2955 203.238 35.3978C202.921 34.9258 202.715 34.3798 202.659 33.806C202.603 33.2508 202.575 32.6863 202.594 32.1218V24.7646H202.053C201.063 24.7646 200.587 24.163 200.587 22.96C200.587 21.831 201.073 21.2572 202.053 21.2572H202.594V19.286C202.575 18.8326 202.603 18.3698 202.659 17.9164C202.883 17.0557 203.555 16.6115 204.694 16.6115C205.086 16.6023 205.478 16.6763 205.833 16.8429C206.225 17.0557 206.514 17.4167 206.617 17.8516C206.71 18.3236 206.747 18.7955 206.729 19.2768V21.2479H207.951C209.099 21.2479 209.669 21.8125 209.669 22.9507C209.678 23.2746 209.622 23.5893 209.51 23.8947C209.417 24.1445 209.258 24.3666 209.034 24.524C208.698 24.6998 208.325 24.7738 207.951 24.7553H206.729V32.1865C206.719 32.4364 206.729 32.6863 206.766 32.9361L206.757 32.9546Z" fill="#C6CAD8"/>
</g>
<defs>
<clipPath id="clip0_192_1008">
<rect width="210" height="52" fill="white"/>
</clipPath>
</defs>
</svg>
