<svg width="24" height="24" viewBox="0 0 24 24" fill="none" xmlns="http://www.w3.org/2000/svg">
<g clip-path="url(#clip0_233_4089)">
<path d="M3.44788 20.071C3.76019 20.6535 4.22452 21.1404 4.79151 21.4801C5.3585 21.8198 6.00694 21.9994 6.66788 22H10.4999V22.5C10.4999 22.8978 10.6579 23.2793 10.9392 23.5606C11.2205 23.8419 11.6021 24 11.9999 24C12.3977 24 12.7792 23.8419 13.0605 23.5606C13.3418 23.2793 13.4999 22.8978 13.4999 22.5V22H17.3319C17.9929 21.9993 18.6414 21.8195 19.2084 21.4797C19.7754 21.1398 20.2397 20.6527 20.5519 20.07C20.8696 19.4805 21.022 18.8161 20.9927 18.1471C20.9635 17.4781 20.7538 16.8295 20.3859 16.27L19.2609 14.56C19.433 14.3837 19.5795 14.1841 19.6959 13.967C19.9244 13.5442 20.0341 13.0673 20.0133 12.5872C19.9926 12.107 19.8421 11.6414 19.5779 11.24L17.8469 8.60596C17.9256 8.50295 17.9961 8.39395 18.0579 8.27996C18.2875 7.86189 18.4006 7.38979 18.3853 6.91305C18.37 6.43632 18.2268 5.97245 17.9709 5.56996C17.9338 5.51353 17.8938 5.45912 17.8509 5.40696L14.0519 0.914961C14.0279 0.887961 13.9999 0.860961 13.9789 0.835961C13.4506 0.31768 12.74 0.0273438 11.9999 0.0273438C11.2598 0.0273438 10.5492 0.31768 10.0209 0.835961C9.99688 0.859961 9.97288 0.885961 9.95088 0.911961L6.13488 5.39996C6.09226 5.45138 6.05253 5.50513 6.01588 5.56096C5.75781 5.96294 5.61279 6.42702 5.59608 6.90442C5.57936 7.38182 5.69156 7.85491 5.92088 8.27396C5.98626 8.39442 6.06117 8.50945 6.14488 8.61796L4.42188 11.237C4.15707 11.6381 4.00588 12.1035 3.9844 12.5836C3.96292 13.0638 4.07194 13.5408 4.29988 13.964C4.41629 14.1811 4.56273 14.3807 4.73488 14.557L3.60988 16.267C3.2418 16.8273 3.03237 17.4768 3.00385 18.1466C2.97533 18.8164 3.12877 19.4814 3.44788 20.071ZM6.11988 17.915L8.25088 14.675C8.38707 14.4677 8.46977 14.23 8.49158 13.983C8.51338 13.736 8.47361 13.4874 8.37583 13.2596C8.27804 13.0317 8.12529 12.8316 7.93124 12.6773C7.73719 12.5229 7.5079 12.419 7.26388 12.375L9.49988 8.97396C9.61566 8.79434 9.69188 8.59213 9.72349 8.38077C9.75509 8.16942 9.74135 7.95376 9.68317 7.74812C9.625 7.54249 9.52373 7.35159 9.38609 7.18811C9.24846 7.02463 9.0776 6.89232 8.88488 6.79996L11.9999 3.13496L15.0999 6.79996C14.9076 6.89295 14.7374 7.02595 14.6006 7.19004C14.4638 7.35414 14.3637 7.54555 14.3069 7.75147C14.2501 7.95739 14.2379 8.17306 14.2712 8.38406C14.3045 8.59507 14.3825 8.79653 14.4999 8.97496L16.7369 12.375C16.4929 12.419 16.2636 12.5229 16.0695 12.6773C15.8755 12.8316 15.7227 13.0317 15.6249 13.2596C15.5272 13.4874 15.4874 13.736 15.5092 13.983C15.531 14.23 15.6137 14.4677 15.7499 14.675L17.8819 17.915C17.9542 18.0222 17.9953 18.1474 18.0008 18.2766C18.0063 18.4058 17.9758 18.534 17.9129 18.647C17.8592 18.7542 17.7764 18.8443 17.6741 18.9069C17.5717 18.9695 17.4538 19.0021 17.3339 19.001H6.66788C6.54791 19.0021 6.43005 18.9695 6.32769 18.9069C6.22533 18.8443 6.14259 18.7542 6.08888 18.647C6.02593 18.534 5.9955 18.4058 6.00097 18.2766C6.00644 18.1474 6.0476 18.0222 6.11988 17.915Z" fill="#2A70C8"/>
<path d="M11.5 17C12.3284 17 13 16.3284 13 15.5C13 14.6716 12.3284 14 11.5 14C10.6716 14 10 14.6716 10 15.5C10 16.3284 10.6716 17 11.5 17Z" fill="#2A70C8"/>
<path d="M12.5 12C13.3284 12 14 11.3284 14 10.5C14 9.67157 13.3284 9 12.5 9C11.6716 9 11 9.67157 11 10.5C11 11.3284 11.6716 12 12.5 12Z" fill="#2A70C8"/>
</g>
<defs>
<clipPath id="clip0_233_4089">
<rect width="24" height="24" fill="white"/>
</clipPath>
</defs>
</svg>
