<svg width="32" height="32" viewBox="0 0 32 32" fill="none" xmlns="http://www.w3.org/2000/svg">
<path fill-rule="evenodd" clip-rule="evenodd" d="M8.08849 32H23.9099C28.443 32 32.0873 28.3657 31.9984 23.8449V8.06648C31.9984 3.63435 28.3541 0 23.9099 0H8.08849C3.64426 0 0 3.63435 0 8.06648V23.9335C0 28.3657 3.64426 32 8.08849 32ZM20.6537 10.2825C22.7812 10.2825 24.4654 11.9668 24.4654 14.0942V18.615C24.4654 20.7424 22.7812 22.4266 20.6537 22.4266H10.9917C8.86427 22.4266 7.18006 20.7424 7.18006 18.615V14.0942C7.18006 11.9668 8.86427 10.2825 10.9917 10.2825H20.6537ZM14.3601 18.7922L18.7036 16.6648C18.8565 16.5884 18.7456 16.38 18.6554 16.2104C18.641 16.1834 18.6271 16.1573 18.615 16.133L14.4488 13.8283C14.2715 13.7396 13.651 13.9169 13.651 14.0942V18.5263C13.651 18.7922 14.1828 18.8809 14.3601 18.7922Z" fill="#C6CAD8"/>
</svg>
