<svg width="24" height="24" viewBox="0 0 24 24" fill="none" xmlns="http://www.w3.org/2000/svg">
<path fill-rule="evenodd" clip-rule="evenodd" d="M13.3535 2.08244C12.9099 2.02802 12.4582 2 12 2C5.92487 2 1 6.92487 1 13C1 19.0751 5.92487 24 12 24C15.9468 24 19.4081 21.9214 21.3489 18.7992C16.0258 17.7919 12 13.1161 12 7.5C12 5.54117 12.4897 3.69673 13.3535 2.08244Z" fill="#FEC601"/>
<g clip-path="url(#clip0_292_8652)">
<path d="M18.5 24.0001H13.034C11.1609 24.0329 9.3014 23.6754 7.57393 22.9504C5.84645 22.2254 4.28878 21.1489 3.00001 19.7891C1.90952 18.597 1.08326 17.1879 0.575396 15.6541C0.0675268 14.1203 -0.110492 12.4965 0.0530068 10.8891C0.301095 8.27379 1.39891 5.81165 3.17859 3.87919C4.95827 1.94673 7.32188 0.650308 9.90801 0.188148C11.607 -0.126982 13.3548 -0.0599384 15.0246 0.384414C16.6944 0.828767 18.2444 1.63928 19.562 2.75715C20.9569 3.92975 22.0774 5.39433 22.8442 7.04743C23.6111 8.70053 24.0056 10.5018 24 12.3241V18.5001C23.9982 19.9583 23.4181 21.3561 22.3871 22.3872C21.356 23.4182 19.9581 23.9983 18.5 24.0001ZM12.03 3.00015C9.78451 2.99821 7.61901 3.8338 5.95684 5.34359C4.29467 6.85338 3.25533 8.9288 3.04201 11.1641C2.91966 12.3565 3.05062 13.5613 3.42631 14.6996C3.80199 15.8378 4.41392 16.8839 5.22201 17.7691C6.22914 18.8197 7.44365 19.6494 8.78848 20.2056C10.1333 20.7618 11.5791 21.0324 13.034 21.0001H18.5C19.1631 21.0001 19.7989 20.7368 20.2678 20.2679C20.7366 19.7991 21 19.1632 21 18.5001V12.3241C21.0046 10.94 20.7056 9.5716 20.124 8.3155C19.5425 7.0594 18.6925 5.94613 17.634 5.05415C16.0694 3.72529 14.0827 2.99712 12.03 3.00015ZM10.5 17.0001C10.1712 17.0006 9.84548 16.9362 9.54159 16.8106C9.23769 16.685 8.96156 16.5006 8.72901 16.2681L5.95601 13.5771C5.67395 13.2995 5.51308 12.9215 5.50845 12.5258C5.50383 12.13 5.65582 11.7484 5.93132 11.4642C6.20681 11.18 6.58347 11.0162 6.97921 11.0085C7.37494 11.0008 7.75768 11.1499 8.04401 11.4231L10.5 13.8001L15.95 8.43115C16.0895 8.28921 16.2558 8.17644 16.4392 8.0994C16.6227 8.02236 16.8197 7.9826 17.0187 7.98243C17.2177 7.98226 17.4147 8.02168 17.5983 8.0984C17.7819 8.17512 17.9484 8.2876 18.0881 8.4293C18.2278 8.57099 18.3379 8.73907 18.412 8.92374C18.4862 9.10841 18.5228 9.30598 18.5198 9.50494C18.5168 9.70391 18.4743 9.90029 18.3946 10.0827C18.315 10.265 18.1999 10.4297 18.056 10.5671L12.26 16.2751C12.029 16.5061 11.7545 16.6891 11.4525 16.8135C11.1504 16.938 10.8267 17.0014 10.5 17.0001Z" fill="#2A70C8"/>
</g>
<defs>
<clipPath id="clip0_292_8652">
<rect width="24" height="24" fill="white"/>
</clipPath>
</defs>
</svg>
