<svg width="8" height="8" viewBox="0 0 8 8" fill="none" xmlns="http://www.w3.org/2000/svg">
<g clip-path="url(#clip0_1_5340)">
<path d="M7.90275 0.0975955C7.84024 0.0351051 7.75547 0 7.66708 0C7.5787 0 7.49393 0.0351051 7.43142 0.0975955L4.00042 3.5286L0.569417 0.0975955C0.506908 0.0351051 0.422138 0 0.33375 0C0.245362 0 0.160593 0.0351051 0.0980838 0.0975955C0.0355934 0.160105 0.000488281 0.244874 0.000488281 0.333262C0.000488281 0.42165 0.0355934 0.50642 0.0980838 0.568929L3.52908 3.99993L0.0980838 7.43093C0.0355934 7.49344 0.000488281 7.57821 0.000488281 7.6666C0.000488281 7.75498 0.0355934 7.83975 0.0980838 7.90226C0.160593 7.96475 0.245362 7.99986 0.33375 7.99986C0.422138 7.99986 0.506908 7.96475 0.569417 7.90226L4.00042 4.47126L7.43142 7.90226C7.49393 7.96475 7.5787 7.99986 7.66708 7.99986C7.75547 7.99986 7.84024 7.96475 7.90275 7.90226C7.96524 7.83975 8.00035 7.75498 8.00035 7.6666C8.00035 7.57821 7.96524 7.49344 7.90275 7.43093L4.47175 3.99993L7.90275 0.568929C7.96524 0.50642 8.00035 0.42165 8.00035 0.333262C8.00035 0.244874 7.96524 0.160105 7.90275 0.0975955Z" fill="#484951"/>
</g>
<defs>
<clipPath id="clip0_1_5340">
<rect width="8" height="8" fill="white"/>
</clipPath>
</defs>
</svg>
