<svg width="24" height="24" viewBox="0 0 24 24" fill="none" xmlns="http://www.w3.org/2000/svg">
<g clip-path="url(#clip0_254_1204)">
<path d="M17.8837 24H13.8283L11.9668 23.3352L10.1053 23.9335H6.04986C2.72576 23.9335 0 21.2078 0 17.8837V6.04986C0 2.72576 2.72576 0 6.04986 0H17.8837C21.2078 0 23.9335 2.72576 23.9335 6.04986V17.8837C24 21.2742 21.2742 24 17.8837 24Z" fill="#2A70C8"/>
<path d="M10.105 9.37437V11.9672H7.11328V15.3577H10.105V23.9339H13.828V15.4242H16.6202L17.1521 12.0336H13.8944V9.83974C13.8944 8.90899 14.3598 7.97825 15.8224 7.97825H17.285V4.98656C17.285 4.98656 15.9554 4.78711 14.6257 4.78711C11.9 4.78711 10.105 6.38268 10.105 9.37437Z" fill="#FEC601"/>
</g>
<defs>
<clipPath id="clip0_254_1204">
<rect width="24" height="24" fill="white"/>
</clipPath>
</defs>
</svg>
