<?xml version="1.0" encoding="utf-8"?>
<svg
  version="1.1"
  xmlns="http://www.w3.org/2000/svg"
  xmlns:xlink="http://www.w3.org/1999/xlink"
  x="0px"
  y="0px"
  width="180px"
  height="200px"
  viewBox="0 0 180 200"
  enable-background="new 0 0 180 200"
  xml:space="preserve"
>
  <g>
    <rect y="30" fill="none" width="30" height="30" />
    <path
      fill="#373745"
      d="M16.4,45l7.3-7.3c0.4-0.4,0.4-1,0-1.4s-1-0.4-1.4,0L15,43.6l-7.3-7.3c-0.4-0.4-1-0.4-1.4,0s-0.4,1,0,1.4
		l7.3,7.3l-7.3,7.3c-0.4,0.4-0.4,1,0,1.4C6.5,53.9,6.7,54,7,54s0.5-0.1,0.7-0.3l7.3-7.3l7.3,7.3c0.2,0.2,0.5,0.3,0.7,0.3
		s0.5-0.1,0.7-0.3c0.4-0.4,0.4-1,0-1.4L16.4,45z"
    />
  </g>
  <g>
    <rect x="30" y="30" fill="none" width="30" height="30" />
    <path
      fill="#373745"
      d="M51.6,41.5h-0.3v-3.3c0-3.5-2.8-6.3-6.3-6.3s-6.3,2.8-6.3,6.3v3.3h-0.3c-1.7,0-3,1.4-3,3V55
		c0,1.7,1.4,3,3,3h13.2c1.7,0,3-1.4,3-3V44.6C54.6,42.9,53.3,41.5,51.6,41.5z M40.7,38.2c0-2.4,1.9-4.3,4.3-4.3s4.3,1.9,4.3,4.3v3.3
		h-8.5L40.7,38.2L40.7,38.2z M52.6,55c0,0.6-0.5,1-1,1H38.4c-0.6,0-1-0.5-1-1V44.6c0-0.6,0.5-1,1-1h13.2c0.6,0,1,0.5,1,1
		C52.6,44.6,52.6,55,52.6,55z M46,49.1v-1.2c0-0.6-0.4-1-1-1s-1,0.4-1,1v1.2c-0.7,0.4-1.2,1.1-1.2,2c0,1.2,1,2.2,2.2,2.2
		s2.2-1,2.2-2.2C47.2,50.2,46.7,49.4,46,49.1z"
    />
  </g>
  <g>
    <rect x="60" y="30" fill="none" width="30" height="30" />
    <circle
      fill="none"
      stroke="#888888"
      stroke-width="2"
      stroke-miterlimit="10"
      cx="74.9"
      cy="45"
      r="14"
    />
    <line
      fill="none"
      stroke="#888888"
      stroke-width="2"
      stroke-miterlimit="10"
      x1="69"
      y1="45"
      x2="81"
      y2="45"
    />
    <line
      fill="none"
      stroke="#888888"
      stroke-width="2"
      stroke-miterlimit="10"
      x1="75"
      y1="39"
      x2="75"
      y2="51"
    />
  </g>
  <g>
    <rect x="90" y="30" fill="none" width="30" height="30" />
    <circle
      fill="none"
      stroke="#888888"
      stroke-width="2"
      stroke-miterlimit="10"
      cx="105"
      cy="45"
      r="14"
    />
    <line
      fill="none"
      stroke="#888888"
      stroke-width="2"
      stroke-miterlimit="10"
      x1="99.1"
      y1="45"
      x2="111.1"
      y2="45"
    />
  </g>
  <g>
    <rect x="150" y="0" fill="none" width="30" height="30" />
    <path
      fill="#373745"
      d="M179.1,10.9c-0.1-0.1-0.1-0.2-0.2-0.3l-3-3c-0.4-0.4-1-0.4-1.4,0s-0.4,1,0,1.4l1.3,1.3h-8.1
		c-0.6,0-1,0.4-1,1s0.4,1,1,1h8.1l-1.3,1.3c-0.4,0.4-0.4,1,0,1.4c0.2,0.2,0.5,0.3,0.7,0.3s0.5-0.1,0.7-0.3l3-3
		c0.1-0.1,0.2-0.2,0.2-0.3C179.2,11.4,179.2,11.1,179.1,10.9z M171.2,22.3h-5.4V10.6c0-0.8-0.7-1.8-1.5-2.2L158,5.3h13.2v3.9h2V4.8
		c0-0.8-0.7-1.5-1.5-1.5h-16.3c-0.8,0-1.5,0.7-1.5,1.5v11.5v6.6c0,0.8,0.7,1.8,1.5,2.2l8.9,4.4c0.2,0.1,0.5,0.2,0.7,0.2
		c0.5,0,0.8-0.3,0.8-0.9v-4.3h5.9c0.8,0,1.5-0.7,1.5-1.5v-9.6h-2L171.2,22.3L171.2,22.3z M163.8,26.9l-7.6-3.7
		c-0.2-0.1-0.4-0.3-0.4-0.4v-6.6V6.5l7.6,3.7c0.2,0.1,0.4,0.3,0.4,0.4V26.9z"
    />
  </g>
  <g>
    <rect x="120" y="0" fill="none" width="30" height="30" />
    <path
      fill="#373745"
      d="M143.3,7.8h-16.5c-2.2,0-4,1.8-4,4v12c0,2.2,1.8,4,4,4h16.5c2.2,0,4-1.8,4-4v-12
		C147.3,9.6,145.5,7.8,143.3,7.8z M145.3,23.8c0,1.1-0.9,2-2,2h-16.5c-1.1,0-2-0.9-2-2v-5.5c0.6,0.3,1.3,0.6,2,0.6h16.5
		c0.7,0,1.4-0.2,2-0.6V23.8z M145.3,14.8c0,1.1-0.9,2-2,2h-16.5c-1.1,0-2-0.9-2-2v-3c0-1.1,0.9-2,2-2h16.5c1.1,0,2,0.9,2,2V14.8z
		 M133.9,5.3h2.2c1,0,1.9,0.8,1.9,1.9h2c0-2.1-1.7-3.9-3.9-3.9h-2.2c-2.1,0-3.9,1.7-3.9,3.9h2C132.1,6.1,132.9,5.3,133.9,5.3z
		 M128.8,19.7c-0.6,0-1,0.4-1,1v0.9c0,0.6,0.4,1,1,1s1-0.4,1-1v-0.9C129.8,20.1,129.4,19.7,128.8,19.7z M141.3,19.7
		c-0.6,0-1,0.4-1,1v0.9c0,0.6,0.4,1,1,1s1-0.4,1-1v-0.9C142.3,20.1,141.8,19.7,141.3,19.7z"
    />
  </g>
  <g>
    <rect x="90" y="0" fill="none" width="30" height="30" />
    <path
      fill="#373745"
      d="M105,25.8c-4.1,0-7.9-0.8-10.4-2.3L93.8,23l0.4-0.8c0.1-0.2,0.2-0.3,0.3-0.5c1.3-2.4,3.5-3.3,5.5-4.2
		c0.4-0.2,0.8-0.4,1.2-0.5c0.4-0.2,0.5-0.3,0.5-0.4s-0.3-0.6-0.7-0.9c-1.5-1.3-2.3-3.1-2.3-5.1C98.7,7,101.5,4,105,4
		s6.3,2.9,6.3,6.6c0,1.9-0.8,3.8-2.2,5c-0.4,0.3-0.8,0.8-0.8,0.9c0,0,0.1,0.2,0.5,0.3c0.4,0.2,0.8,0.4,1.3,0.5
		c2.1,0.9,4.2,1.8,5.5,4.2c0.1,0.2,0.2,0.3,0.3,0.5l0.4,0.8l-0.8,0.5C112.8,25,109,25.8,105,25.8z M96.4,22.3c2.2,1,5.3,1.6,8.6,1.6
		s6.3-0.6,8.6-1.6c-1-1.5-2.6-2.1-4.3-2.9c-0.4-0.2-0.9-0.4-1.3-0.6c-1.3-0.6-1.6-1.4-1.7-2c-0.1-1.4,1.2-2.5,1.5-2.7
		c0.9-0.8,1.5-2.1,1.5-3.5c0-2.5-1.9-4.6-4.3-4.6s-4.3,2-4.3,4.6c0,1.4,0.6,2.6,1.6,3.5c0.2,0.1,1.6,1.2,1.4,2.6
		c-0.1,0.6-0.4,1.4-1.7,2c-0.4,0.2-0.9,0.4-1.3,0.6C98.9,20.1,97.4,20.8,96.4,22.3z"
    />
  </g>
  <g>
    <rect x="60" y="0" fill="none" width="30" height="30" />
    <path
      fill="#373745"
      d="M67,10h15.9c0.6,0,1-0.4,1-1s-0.4-1-1-1H67c-0.6,0-1,0.4-1,1S66.4,10,67,10z M82.9,14H67c-0.6,0-1,0.4-1,1
		s0.4,1,1,1h15.9c0.6,0,1-0.4,1-1S83.5,14,82.9,14z M82.9,20H67c-0.6,0-1,0.4-1,1s0.4,1,1,1h15.9c0.6,0,1-0.4,1-1S83.5,20,82.9,20z"
    />
  </g>
  <g>
    <rect x="30" y="0" fill="none" width="30" height="30" />
    <path
      fill="#373745"
      d="M43.4,19l6.9-4l-6.9-4v3H35v2h8.3v3H43.4z M51.9,3H38.1v2h13.8c0.6,0,1,0.5,1,1v18c0,0.6-0.5,1-1,1H38.1v2
		h13.8c1.7,0,3-1.3,3-3V6C55,4.3,53.6,3,51.9,3z"
    />
  </g>
  <g>
    <rect y="0" fill="none" width="30" height="30" />
    <path
      fill="#373745"
      d="M15,13.8c-2.2,0-4.1,1.8-4.1,4.1S12.7,22,15,22s4.1-1.8,4.1-4.1S17.2,13.8,15,13.8z M15,8.1
		c-5.5,0-10.2,3.5-12,8.4h2.2c1.7-3.8,5.6-6.4,9.8-6.4s8.1,2.5,9.8,6.4H27C25.2,11.6,20.5,8.1,15,8.1z"
    />
  </g>
  <g>
    <rect y="90" fill="none" width="30" height="30" />
    <path
      fill="#FFFFFF"
      d="M16.4,105l7.3-7.3c0.4-0.4,0.4-1,0-1.4s-1-0.4-1.4,0l-7.3,7.3l-7.3-7.3c-0.4-0.4-1-0.4-1.4,0s-0.4,1,0,1.4
		l7.3,7.3l-7.3,7.3c-0.4,0.4-0.4,1,0,1.4c0.2,0.2,0.4,0.3,0.7,0.3s0.5-0.1,0.7-0.3l7.3-7.3l7.3,7.3c0.2,0.2,0.5,0.3,0.7,0.3
		s0.5-0.1,0.7-0.3c0.4-0.4,0.4-1,0-1.4L16.4,105z"
    />
  </g>
  <g>
    <rect x="30" y="90" fill="none" width="30" height="30" />
    <path
      fill="#FFFFFF"
      d="M51.6,101.5h-0.3v-3.3c0-3.5-2.8-6.3-6.3-6.3s-6.3,2.8-6.3,6.3v3.3h-0.3c-1.7,0-3,1.4-3,3V115
		c0,1.7,1.4,3,3,3h13.2c1.7,0,3-1.4,3-3v-10.4C54.6,102.9,53.3,101.5,51.6,101.5z M40.7,98.2c0-2.4,1.9-4.3,4.3-4.3s4.3,1.9,4.3,4.3
		v3.3h-8.5L40.7,98.2L40.7,98.2z M52.6,115c0,0.6-0.5,1-1,1H38.4c-0.6,0-1-0.5-1-1v-10.4c0-0.6,0.5-1,1-1h13.2c0.6,0,1,0.5,1,1
		C52.6,104.6,52.6,115,52.6,115z M46,109.1v-1.2c0-0.6-0.4-1-1-1s-1,0.4-1,1v1.2c-0.7,0.4-1.2,1.1-1.2,2c0,1.2,1,2.2,2.2,2.2
		s2.2-1,2.2-2.2C47.2,110.2,46.7,109.4,46,109.1z"
    />
  </g>
  <g>
    <rect x="150" y="60" fill="none" width="30" height="30" />
    <path
      fill="#FFFFFF"
      d="M179.1,70.9c-0.1-0.1-0.1-0.2-0.2-0.3l-3-3c-0.4-0.4-1-0.4-1.4,0s-0.4,1,0,1.4l1.3,1.3h-8.1
		c-0.6,0-1,0.4-1,1s0.4,1,1,1h8.1l-1.3,1.3c-0.4,0.4-0.4,1,0,1.4c0.2,0.2,0.5,0.3,0.7,0.3s0.5-0.1,0.7-0.3l3-3
		c0.1-0.1,0.2-0.2,0.2-0.3C179.2,71.4,179.2,71.1,179.1,70.9z M171.2,82.3h-5.4V70.6c0-0.8-0.7-1.8-1.5-2.2l-6.3-3.1h13.2v3.9h2
		v-4.4c0-0.8-0.7-1.5-1.5-1.5h-16.3c-0.8,0-1.5,0.7-1.5,1.5v11.5v6.6c0,0.8,0.7,1.8,1.5,2.2l8.9,4.4c0.2,0.1,0.5,0.2,0.7,0.2
		c0.5,0,0.8-0.3,0.8-0.9v-4.3h5.9c0.8,0,1.5-0.7,1.5-1.5v-9.6h-2L171.2,82.3L171.2,82.3z M163.8,86.9l-7.6-3.7
		c-0.2-0.1-0.4-0.3-0.4-0.4v-6.6v-9.7l7.6,3.7c0.2,0.1,0.4,0.3,0.4,0.4V86.9z"
    />
  </g>
  <g>
    <rect x="120" y="60" fill="none" width="30" height="30" />
    <path
      fill="#FFFFFF"
      d="M143.3,67.8h-16.5c-2.2,0-4,1.8-4,4v12c0,2.2,1.8,4,4,4h16.5c2.2,0,4-1.8,4-4v-12
		C147.3,69.6,145.5,67.8,143.3,67.8z M145.3,83.8c0,1.1-0.9,2-2,2h-16.5c-1.1,0-2-0.9-2-2v-5.5c0.6,0.3,1.3,0.6,2,0.6h16.5
		c0.7,0,1.4-0.2,2-0.6V83.8z M145.3,74.8c0,1.1-0.9,2-2,2h-16.5c-1.1,0-2-0.9-2-2v-3c0-1.1,0.9-2,2-2h16.5c1.1,0,2,0.9,2,2V74.8z
		 M133.9,65.3h2.2c1,0,1.9,0.8,1.9,1.9h2c0-2.1-1.7-3.9-3.9-3.9h-2.2c-2.1,0-3.9,1.7-3.9,3.9h2C132.1,66.1,132.9,65.3,133.9,65.3z
		 M128.8,79.7c-0.6,0-1,0.4-1,1v0.9c0,0.6,0.4,1,1,1s1-0.4,1-1v-0.9C129.8,80.1,129.4,79.7,128.8,79.7z M141.3,79.7
		c-0.6,0-1,0.4-1,1v0.9c0,0.6,0.4,1,1,1s1-0.4,1-1v-0.9C142.3,80.1,141.8,79.7,141.3,79.7z"
    />
  </g>
  <g>
    <rect x="90" y="60" fill="none" width="30" height="30" />
    <path
      fill="#FFFFFF"
      d="M105,85.8c-4.1,0-7.9-0.8-10.4-2.3L93.8,83l0.4-0.8c0.1-0.2,0.2-0.3,0.3-0.5c1.3-2.4,3.5-3.3,5.5-4.2
		c0.4-0.2,0.8-0.4,1.2-0.5c0.4-0.2,0.5-0.3,0.5-0.4s-0.3-0.6-0.7-0.9c-1.5-1.3-2.3-3.1-2.3-5.1c0-3.6,2.8-6.6,6.3-6.6
		s6.3,2.9,6.3,6.6c0,1.9-0.8,3.8-2.2,5c-0.4,0.3-0.8,0.8-0.8,0.9c0,0,0.1,0.2,0.5,0.3c0.4,0.2,0.8,0.4,1.3,0.5
		c2.1,0.9,4.2,1.8,5.5,4.2c0.1,0.2,0.2,0.3,0.3,0.5l0.4,0.8l-0.8,0.5C112.8,85,109,85.8,105,85.8z M96.4,82.3c2.2,1,5.3,1.6,8.6,1.6
		s6.3-0.6,8.6-1.6c-1-1.5-2.6-2.1-4.3-2.9c-0.4-0.2-0.9-0.4-1.3-0.6c-1.3-0.6-1.6-1.4-1.7-2c-0.1-1.4,1.2-2.5,1.5-2.7
		c0.9-0.8,1.5-2.1,1.5-3.5c0-2.5-1.9-4.6-4.3-4.6s-4.3,2-4.3,4.6c0,1.4,0.6,2.6,1.6,3.5c0.2,0.1,1.6,1.2,1.4,2.6
		c-0.1,0.6-0.4,1.4-1.7,2c-0.4,0.2-0.9,0.4-1.3,0.6C98.9,80.1,97.4,80.8,96.4,82.3z"
    />
  </g>
  <g>
    <rect x="60" y="60" fill="none" width="30" height="30" />
    <path
      fill="#FFFFFF"
      d="M67,70h15.9c0.6,0,1-0.4,1-1s-0.4-1-1-1H67c-0.6,0-1,0.4-1,1S66.4,70,67,70z M82.9,74H67c-0.6,0-1,0.4-1,1
		s0.4,1,1,1h15.9c0.6,0,1-0.4,1-1S83.5,74,82.9,74z M82.9,80H67c-0.6,0-1,0.4-1,1s0.4,1,1,1h15.9c0.6,0,1-0.4,1-1S83.5,80,82.9,80z"
    />
  </g>
  <g>
    <rect x="30" y="60" fill="none" width="30" height="30" />
    <path
      fill="#FFFFFF"
      d="M43.4,79l6.9-4l-6.9-4v3H35v2h8.3v3H43.4z M51.9,63H38.1v2h13.8c0.6,0,1,0.5,1,1v18c0,0.6-0.5,1-1,1H38.1v2
		h13.8c1.7,0,3-1.3,3-3V66C55,64.3,53.6,63,51.9,63z"
    />
  </g>
  <g>
    <rect y="60" fill="none" width="30" height="30" />
    <path
      fill="#FFFFFF"
      d="M15,73.8c-2.2,0-4.1,1.8-4.1,4.1c0,2.3,1.8,4.1,4.1,4.1s4.1-1.8,4.1-4.1C19.1,75.6,17.2,73.8,15,73.8z
		 M15,68.1c-5.5,0-10.2,3.5-12,8.4h2.2c1.7-3.8,5.6-6.4,9.8-6.4s8.1,2.5,9.8,6.4H27C25.2,71.6,20.5,68.1,15,68.1z"
    />
  </g>
</svg>
