<?xml version="1.0" encoding="utf-8"?>
<svg
  version="1.1"
  xmlns="http://www.w3.org/2000/svg"
  xmlns:xlink="http://www.w3.org/1999/xlink"
  x="0px"
  y="0px"
  width="180px"
  height="200px"
  viewBox="0 0 180 200"
  enable-background="new 0 0 180 200"
  xml:space="preserve"
>
  <g>
    <rect x="140" fill="none" width="20" height="20" />
    <path
      fill="#373745"
      d="M154.4,7.7h-0.2V5.5c0-2.3-1.9-4.2-4.2-4.2s-4.2,1.9-4.2,4.2v2.2h-0.2c-1.1,0-2,0.9-2,2v7c0,1.1,0.9,2,2,2
		h8.8c1.1,0,2-0.9,2-2v-7C156.4,8.6,155.5,7.7,154.4,7.7z M147.2,5.4c0-1.6,1.3-2.8,2.8-2.8s2.8,1.3,2.8,2.8v2.2h-5.7L147.2,5.4
		L147.2,5.4z M155.1,16.7c0,0.4-0.3,0.7-0.7,0.7h-8.8c-0.4,0-0.7-0.3-0.7-0.7v-7c0-0.4,0.3-0.7,0.7-0.7h8.8c0.4,0,0.7,0.3,0.7,0.7
		V16.7z M150.7,12.7v-0.8c0-0.4-0.3-0.7-0.7-0.7s-0.7,0.3-0.7,0.7v0.8c-0.5,0.2-0.8,0.7-0.8,1.3c0,0.8,0.7,1.5,1.5,1.5
		s1.5-0.7,1.5-1.5C151.5,13.5,151.2,13,150.7,12.7z"
    />
  </g>
  <g>
    <rect x="120" fill="none" width="20" height="20" />
    <path
      fill="#373745"
      d="M130.9,10l4.9-4.9c0.3-0.3,0.3-0.7,0-0.9c-0.3-0.3-0.7-0.3-0.9,0L130,9.1l-4.9-4.9c-0.3-0.3-0.7-0.3-0.9,0
		c-0.3,0.3-0.3,0.7,0,0.9l4.9,4.9l-4.9,4.9c-0.3,0.3-0.3,0.7,0,0.9c0.1,0.1,0.3,0.2,0.5,0.2s0.3-0.1,0.5-0.2l4.9-4.9l4.9,4.9
		c0.1,0.1,0.3,0.2,0.5,0.2s0.3-0.1,0.5-0.2c0.3-0.3,0.3-0.7,0-0.9L130.9,10z"
    />
  </g>
  <g>
    <rect x="100" fill="none" width="20" height="20" />
    <path
      fill="#373745"
      d="M119.4,7.2c0-0.1-0.1-0.2-0.1-0.2l-2-2c-0.3-0.3-0.7-0.3-0.9,0c-0.3,0.3-0.3,0.7,0,0.9l0.9,0.9h-5.4
		c-0.4,0-0.7,0.3-0.7,0.7s0.3,0.7,0.7,0.7h5.4l-0.9,0.9c-0.3,0.3-0.3,0.7,0,0.9c0.1,0.1,0.3,0.2,0.5,0.2s0.3-0.1,0.5-0.2l2-2
		c0.1-0.1,0.1-0.1,0.1-0.2C119.5,7.6,119.5,7.4,119.4,7.2z M114.1,14.9h-3.6V7.1c0-0.6-0.4-1.2-1-1.5l-4.2-2.1h8.8v2.6h1.3v-3
		c0-0.6-0.4-1-1-1h-10.9c-0.6,0-1,0.4-1,1v7.6v4.4c0,0.6,0.4,1.2,1,1.5l6,2.9c0.2,0.1,0.3,0.1,0.4,0.1c0.3,0,0.6-0.2,0.6-0.6v-2.9
		h3.9c0.6,0,1-0.4,1-1V8.7h-1.3C114.1,8.7,114.1,14.9,114.1,14.9z M109.2,17.9l-5-2.5c-0.1,0-0.2-0.2-0.3-0.3v-4.4V4.2l5,2.5
		c0.1,0,0.2,0.2,0.3,0.3V17.9z"
    />
  </g>
  <g>
    <rect x="80" fill="none" width="20" height="20" />
    <path
      fill="#373745"
      d="M95.5,5.2h-11c-1.5,0-2.7,1.2-2.7,2.7v8c0,1.5,1.2,2.7,2.7,2.7h11c1.5,0,2.7-1.2,2.7-2.7v-8
		C98.2,6.4,97,5.2,95.5,5.2z M96.8,15.9c0,0.7-0.6,1.3-1.3,1.3h-11c-0.7,0-1.3-0.6-1.3-1.3v-3.7c0.4,0.2,0.8,0.4,1.3,0.4h11
		c0.5,0,0.9-0.1,1.3-0.4V15.9z M96.8,9.9c0,0.7-0.6,1.3-1.3,1.3h-11c-0.7,0-1.3-0.6-1.3-1.3v-2c0-0.7,0.6-1.3,1.3-1.3h11
		c0.7,0,1.3,0.6,1.3,1.3V9.9z M89.3,3.5h1.5c0.7,0,1.2,0.6,1.2,1.2h1.3c0-1.4-1.2-2.6-2.6-2.6h-1.5c-1.4,0-2.6,1.2-2.6,2.6H88
		C88,4.1,88.6,3.5,89.3,3.5z M85.9,13.1c-0.4,0-0.7,0.3-0.7,0.7v0.6c0,0.4,0.3,0.7,0.7,0.7c0.4,0,0.7-0.3,0.7-0.7v-0.6
		C86.5,13.4,86.2,13.1,85.9,13.1z M94.2,13.1c-0.4,0-0.7,0.3-0.7,0.7v0.6c0,0.4,0.3,0.7,0.7,0.7c0.4,0,0.7-0.3,0.7-0.7v-0.6
		C94.8,13.4,94.5,13.1,94.2,13.1z"
    />
  </g>
  <g>
    <rect x="60" fill="none" width="20" height="20" />
    <path
      fill="#373745"
      d="M70,17.2c-2.7,0-5.3-0.6-7-1.5l-0.5-0.3l0.3-0.6c0.1-0.1,0.1-0.2,0.2-0.3c0.9-1.6,2.3-2.2,3.7-2.8
		c0.3-0.1,0.6-0.2,0.8-0.4c0.2-0.1,0.3-0.2,0.3-0.2c0-0.1-0.2-0.4-0.5-0.6c-1-0.9-1.5-2.1-1.5-3.4c0-2.4,1.9-4.4,4.2-4.4
		s4.2,2,4.2,4.4c0,1.3-0.5,2.5-1.5,3.3c-0.3,0.2-0.5,0.5-0.5,0.6c0,0,0.1,0.1,0.3,0.2c0.3,0.1,0.6,0.2,0.8,0.4
		c1.4,0.6,2.8,1.2,3.7,2.8c0.1,0.1,0.1,0.2,0.2,0.3l0.3,0.6L77,15.6C75.3,16.7,72.7,17.2,70,17.2z M64.3,14.8c1.5,0.7,3.5,1,5.7,1
		s4.2-0.4,5.7-1c-0.7-1-1.7-1.4-2.9-1.9c-0.3-0.1-0.6-0.2-0.9-0.4c-0.8-0.4-1.1-0.9-1.1-1.3c-0.1-0.9,0.8-1.7,1-1.8
		c0.6-0.5,1-1.4,1-2.3c0-1.7-1.3-3-2.9-3S67,5.5,67,7.1c0,0.9,0.4,1.8,1,2.3c0.1,0.1,1,0.8,1,1.7c0,0.4-0.3,0.9-1.1,1.3
		c-0.3,0.1-0.6,0.3-0.9,0.4C66,13.4,65,13.8,64.3,14.8z"
    />
  </g>
  <g>
    <rect x="40" fill="none" width="20" height="20" />
    <path
      fill="#373745"
      d="M44.7,6.7h10.6C55.7,6.7,56,6.4,56,6s-0.3-0.7-0.7-0.7H44.7C44.3,5.3,44,5.6,44,6S44.3,6.7,44.7,6.7z
		 M55.3,9.3H44.7C44.3,9.3,44,9.6,44,10s0.3,0.7,0.7,0.7h10.6c0.4,0,0.7-0.3,0.7-0.7S55.6,9.3,55.3,9.3z M55.3,13.3H44.7
		c-0.4,0-0.7,0.3-0.7,0.7s0.3,0.7,0.7,0.7h10.6c0.4,0,0.7-0.3,0.7-0.7S55.6,13.3,55.3,13.3z"
    />
  </g>
  <g>
    <rect x="20" fill="none" width="20" height="20" />
    <path
      fill="#373745"
      d="M28.9,12.7l4.6-2.7l-4.6-2.7v2h-5.5v1.3h5.5V12.7z M34.7,2h-9.2v1.3h9.2c0.4,0,0.7,0.3,0.7,0.7v12
		c0,0.4-0.3,0.7-0.7,0.7h-9.2V18h9.2c1.1,0,2-0.9,2-2V4C36.7,2.9,35.8,2,34.7,2z"
    />
  </g>
  <g>
    <rect fill="none" width="20" height="20" />
    <path
      fill="#373745"
      d="M10,9.2c-1.5,0-2.7,1.2-2.7,2.7s1.2,2.7,2.7,2.7s2.7-1.2,2.7-2.7S11.5,9.2,10,9.2z M10,5.4
		c-3.7,0-6.8,2.3-8,5.6h1.4C4.6,8.4,7.1,6.7,10,6.7c2.8,0,5.4,1.7,6.6,4.3H18C16.8,7.7,13.7,5.4,10,5.4z"
    />
  </g>
  <g>
    <rect x="140" y="20" fill="none" width="20" height="20" />
    <path
      fill="#FFFFFF"
      d="M154.4,27.7h-0.2v-2.2c0-2.3-1.9-4.2-4.2-4.2s-4.2,1.9-4.2,4.2v2.2h-0.2c-1.1,0-2,0.9-2,2v7
		c0,1.1,0.9,2,2,2h8.8c1.1,0,2-0.9,2-2v-7C156.4,28.6,155.5,27.7,154.4,27.7z M147.2,25.4c0-1.6,1.3-2.8,2.8-2.8s2.8,1.3,2.8,2.8
		v2.2h-5.7L147.2,25.4L147.2,25.4z M155.1,36.7c0,0.4-0.3,0.7-0.7,0.7h-8.8c-0.4,0-0.7-0.3-0.7-0.7v-7c0-0.4,0.3-0.7,0.7-0.7h8.8
		c0.4,0,0.7,0.3,0.7,0.7V36.7z M150.7,32.7v-0.8c0-0.4-0.3-0.7-0.7-0.7s-0.7,0.3-0.7,0.7v0.8c-0.5,0.2-0.8,0.7-0.8,1.3
		c0,0.8,0.7,1.5,1.5,1.5s1.5-0.7,1.5-1.5C151.5,33.5,151.2,33,150.7,32.7z"
    />
  </g>
  <g>
    <rect x="120" y="20" fill="none" width="20" height="20" />
    <path
      fill="#FFFFFF"
      d="M130.9,30l4.9-4.9c0.3-0.3,0.3-0.7,0-0.9c-0.3-0.3-0.7-0.3-0.9,0l-4.9,4.9l-4.9-4.9c-0.3-0.3-0.7-0.3-0.9,0
		c-0.3,0.3-0.3,0.7,0,0.9l4.9,4.9l-4.9,4.9c-0.3,0.3-0.3,0.7,0,0.9c0.1,0.1,0.3,0.2,0.5,0.2s0.3-0.1,0.5-0.2l4.9-4.9l4.9,4.9
		c0.1,0.1,0.3,0.2,0.5,0.2s0.3-0.1,0.5-0.2c0.3-0.3,0.3-0.7,0-0.9L130.9,30z"
    />
  </g>
  <g>
    <rect x="100" y="20" fill="none" width="20" height="20" />
    <path
      fill="#FFFFFF"
      d="M119.4,27.2c0-0.1-0.1-0.2-0.1-0.2l-2-2c-0.3-0.3-0.7-0.3-0.9,0c-0.3,0.3-0.3,0.7,0,0.9l0.9,0.9h-5.4
		c-0.4,0-0.7,0.3-0.7,0.7s0.3,0.7,0.7,0.7h5.4l-0.9,0.9c-0.3,0.3-0.3,0.7,0,0.9c0.1,0.1,0.3,0.2,0.5,0.2s0.3-0.1,0.5-0.2l2-2
		c0.1-0.1,0.1-0.1,0.1-0.2C119.5,27.6,119.5,27.4,119.4,27.2z M114.1,34.9h-3.6v-7.8c0-0.6-0.4-1.2-1-1.5l-4.2-2.1h8.8v2.6h1.3v-3
		c0-0.6-0.4-1-1-1h-10.9c-0.6,0-1,0.4-1,1v7.6v4.4c0,0.6,0.4,1.2,1,1.5l6,2.9c0.2,0.1,0.3,0.1,0.4,0.1c0.3,0,0.6-0.2,0.6-0.6v-2.9
		h3.9c0.6,0,1-0.4,1-1v-6.4h-1.3C114.1,28.7,114.1,34.9,114.1,34.9z M109.2,37.9l-5-2.5c-0.1,0-0.2-0.2-0.3-0.3v-4.4v-6.5l5,2.5
		c0.1,0,0.2,0.2,0.3,0.3V37.9z"
    />
  </g>
  <g>
    <rect x="80" y="20" fill="none" width="20" height="20" />
    <path
      fill="#FFFFFF"
      d="M95.5,25.2h-11c-1.5,0-2.7,1.2-2.7,2.7v8c0,1.5,1.2,2.7,2.7,2.7h11c1.5,0,2.7-1.2,2.7-2.7v-8
		C98.2,26.4,97,25.2,95.5,25.2z M96.8,35.9c0,0.7-0.6,1.3-1.3,1.3h-11c-0.7,0-1.3-0.6-1.3-1.3v-3.7c0.4,0.2,0.8,0.4,1.3,0.4h11
		c0.5,0,0.9-0.1,1.3-0.4V35.9z M96.8,29.9c0,0.7-0.6,1.3-1.3,1.3h-11c-0.7,0-1.3-0.6-1.3-1.3v-2c0-0.7,0.6-1.3,1.3-1.3h11
		c0.7,0,1.3,0.6,1.3,1.3V29.9z M89.3,23.5h1.5c0.7,0,1.2,0.6,1.2,1.2h1.3c0-1.4-1.2-2.6-2.6-2.6h-1.5c-1.4,0-2.6,1.2-2.6,2.6H88
		C88,24.1,88.6,23.5,89.3,23.5z M85.9,33.1c-0.4,0-0.7,0.3-0.7,0.7v0.6c0,0.4,0.3,0.7,0.7,0.7c0.4,0,0.7-0.3,0.7-0.7v-0.6
		C86.5,33.4,86.2,33.1,85.9,33.1z M94.2,33.1c-0.4,0-0.7,0.3-0.7,0.7v0.6c0,0.4,0.3,0.7,0.7,0.7c0.4,0,0.7-0.3,0.7-0.7v-0.6
		C94.8,33.4,94.5,33.1,94.2,33.1z"
    />
  </g>
  <g>
    <rect x="60" y="20" fill="none" width="20" height="20" />
    <path
      fill="#FFFFFF"
      d="M70,37.2c-2.7,0-5.3-0.6-7-1.5l-0.5-0.3l0.3-0.6c0.1-0.1,0.1-0.2,0.2-0.3c0.9-1.6,2.3-2.2,3.7-2.8
		c0.3-0.1,0.6-0.2,0.8-0.4c0.2-0.1,0.3-0.2,0.3-0.2c0-0.1-0.2-0.4-0.5-0.6c-1-0.9-1.5-2.1-1.5-3.4c0-2.4,1.9-4.4,4.2-4.4
		s4.2,2,4.2,4.4c0,1.3-0.5,2.5-1.5,3.3c-0.3,0.2-0.5,0.5-0.5,0.6c0,0,0.1,0.1,0.3,0.2c0.3,0.1,0.6,0.2,0.8,0.4
		c1.4,0.6,2.8,1.2,3.7,2.8c0.1,0.1,0.1,0.2,0.2,0.3l0.3,0.6L77,35.6C75.3,36.7,72.7,37.2,70,37.2z M64.3,34.8c1.5,0.7,3.5,1,5.7,1
		s4.2-0.4,5.7-1c-0.7-1-1.7-1.4-2.9-1.9c-0.3-0.1-0.6-0.2-0.9-0.4c-0.8-0.4-1.1-0.9-1.1-1.3c-0.1-0.9,0.8-1.7,1-1.8
		c0.6-0.5,1-1.4,1-2.3c0-1.7-1.3-3-2.9-3s-2.9,1.4-2.9,3c0,0.9,0.4,1.8,1,2.3c0.1,0.1,1,0.8,1,1.7c0,0.4-0.3,0.9-1.1,1.3
		c-0.3,0.1-0.6,0.3-0.9,0.4C66,33.4,65,33.8,64.3,34.8z"
    />
  </g>
  <g>
    <rect x="40" y="20" fill="none" width="20" height="20" />
    <path
      fill="#FFFFFF"
      d="M44.7,26.7h10.6c0.4,0,0.7-0.3,0.7-0.7s-0.3-0.7-0.7-0.7H44.7c-0.4,0-0.7,0.3-0.7,0.7S44.3,26.7,44.7,26.7z
		 M55.3,29.3H44.7c-0.4,0-0.7,0.3-0.7,0.7s0.3,0.7,0.7,0.7h10.6c0.4,0,0.7-0.3,0.7-0.7S55.6,29.3,55.3,29.3z M55.3,33.3H44.7
		c-0.4,0-0.7,0.3-0.7,0.7s0.3,0.7,0.7,0.7h10.6c0.4,0,0.7-0.3,0.7-0.7S55.6,33.3,55.3,33.3z"
    />
  </g>
  <g>
    <rect x="20" y="20" fill="none" width="20" height="20" />
    <path
      fill="#FFFFFF"
      d="M28.9,32.7l4.6-2.7l-4.6-2.7v2h-5.5v1.3h5.5V32.7z M34.7,22h-9.2v1.3h9.2c0.4,0,0.7,0.3,0.7,0.7v12
		c0,0.4-0.3,0.7-0.7,0.7h-9.2V38h9.2c1.1,0,2-0.9,2-2V24C36.7,22.9,35.8,22,34.7,22z"
    />
  </g>
  <g>
    <rect y="20" fill="none" width="20" height="20" />
    <path
      fill="#FFFFFF"
      d="M10,29.2c-1.5,0-2.7,1.2-2.7,2.7s1.2,2.7,2.7,2.7s2.7-1.2,2.7-2.7S11.5,29.2,10,29.2z M10,25.4
		c-3.7,0-6.8,2.3-8,5.6h1.4c1.2-2.6,3.7-4.3,6.6-4.3c2.8,0,5.4,1.7,6.6,4.3H18C16.8,27.7,13.7,25.4,10,25.4z"
    />
  </g>
</svg>
