<?xml version="1.0" encoding="utf-8"?>
<svg
  version="1.1"
  xmlns="http://www.w3.org/2000/svg"
  xmlns:xlink="http://www.w3.org/1999/xlink"
  x="0px"
  y="0px"
  width="800px"
  height="560px"
  viewBox="0 0 800 560"
  style="enable-background: new 0 0 800 560"
  xml:space="preserve"
>
  <style type="text/css">
    .Graphic_x0020_Style_x0020_2 {
      fill: url(#SVGID_1_);
    }
    .st0 {
      fill: none;
    }
    .st1 {
      fill: #5d6bb2;
    }
    .st2 {
      fill: #273c91;
    }
    .st3 {
      fill: #cedd37;
    }
    .st4 {
      fill: #bedef5;
    }
    .st5 {
      fill: #f00822;
    }
    .st6 {
      filter: url(#Adobe_OpacityMaskFilter);
    }
    .st7 {
      fill: url(#SVGID_3_);
    }
    .st8 {
      mask: url(#SVGID_2_);
      fill: url(#SVGID_4_);
    }
    .st9 {
      fill: #2a70c8;
    }
    .st10 {
      filter: url(#Adobe_OpacityMaskFilter_1_);
    }
    .st11 {
      fill: url(#SVGID_6_);
    }
    .st12 {
      mask: url(#SVGID_5_);
      fill: url(#SVGID_7_);
    }
    .st13 {
      fill: #458fcd;
    }
    .st14 {
      fill: #184a9d;
    }
    .st15 {
      fill: #cfd9de;
    }
    .st16 {
      fill: #79919d;
    }
    .st17 {
      fill: #faa628;
    }
    .st18 {
      fill: #ffcd82;
    }
    .st19 {
      fill: #ef4423;
    }
    .st20 {
      fill: #de3427;
    }
    .st21 {
      fill: #fec601;
    }
    .st22 {
      filter: url(#Adobe_OpacityMaskFilter_2_);
    }
    .st23 {
      fill: url(#SVGID_9_);
    }
    .st24 {
      mask: url(#SVGID_8_);
      fill: url(#SVGID_10_);
    }
    .st25 {
      fill: #feeeb3;
    }
    .st26 {
      fill: #fce080;
    }
    .st27 {
      fill: #ef4438;
    }
    .st28 {
      fill: #fdedf0;
    }
    .st29 {
      fill: #90caf9;
    }
    .st30 {
      fill: #e1f5fe;
    }
    .st31 {
      fill: #43a047;
    }
    .st32 {
      fill: #dcedc8;
    }
    .st33 {
      fill: #e69329;
    }
    .st34 {
      fill: none;
      stroke: #dd821f;
      stroke-width: 0.3;
      stroke-linecap: round;
      stroke-miterlimit: 10;
    }
    .st35 {
      fill: #64b5f6;
    }
    .st36 {
      fill: #37474f;
    }
    .st37 {
      fill: #e3f2fd;
    }
    .st38 {
      fill: #ffb74d;
    }
    .st39 {
      fill: #ffcdd2;
    }
    .st40 {
      fill: #ff9800;
    }
    .st41 {
      opacity: 0.2;
      enable-background: new;
    }
    .st42 {
      fill: #cfd8dc;
    }
    .st43 {
      fill: #90a4ae;
    }
    .st44 {
      fill: #1976d2;
    }
    .st45 {
      fill: #009688;
    }
    .st46 {
      fill: #01579b;
    }
    .st47 {
      fill: #ffa726;
    }
    .st48 {
      fill: #784719;
    }
    .st49 {
      fill: #424242;
    }
    .st50 {
      fill: #f44336;
    }
    .st51 {
      fill: #8fa3ad;
    }
    .st52 {
      fill: #b31a1a;
    }
    .st53 {
      fill: #b0bec5;
    }
    .st54 {
      fill: #ffca00;
    }
    .st55 {
      fill: #cfd3dc;
    }
    .st56 {
      fill: #bf780c;
    }
    .st57 {
      fill: #4e6873;
    }
    .st58 {
      fill: #bbdefb;
    }
    .st59 {
      fill: #8bc34a;
    }
    .st60 {
      fill: #2d671f;
    }
    .st61 {
      fill: #e89531;
    }
    .st62 {
      fill: #78909c;
    }
    .st63 {
      fill: #cfd7db;
    }
    .st64 {
      fill: #4b6672;
    }
  </style>
  <linearGradient
    id="SVGID_1_"
    gradientUnits="userSpaceOnUse"
    x1="0"
    y1="0"
    x2="0.7071"
    y2="-0.7071"
  >
    <stop offset="0" style="stop-color: #000000" />
    <stop offset="2.000000e-02" style="stop-color: #ffffff" />
    <stop offset="0.98" style="stop-color: #ffffff" />
    <stop offset="1" style="stop-color: #000000" />
  </linearGradient>
  <g>
    <rect class="st0" width="80" height="80" />
    <g>
      <path
        class="st1"
        d="M29.3,68.7H67c2.8,0,5.1-2.3,5.1-5.1V16.4c0-2.8-2.3-5.1-5.1-5.1H29.3V68.7z"
      />
      <path
        class="st2"
        d="M14.4,76.2h8.3c3.6,0,6.6-2.9,6.6-6.6V10.3c0-3.6-2.9-6.6-6.6-6.6h-8.3c-3.6,0-6.6,2.9-6.6,6.6v59.3
			C7.8,73.3,10.8,76.2,14.4,76.2z"
      />
      <rect x="38.3" y="19.5" class="st3" width="26.3" height="10.3" />
      <rect x="38.3" y="35.4" class="st4" width="6" height="6" />
      <rect x="58.7" y="35.4" class="st4" width="6" height="6" />
      <rect x="48.5" y="35.4" class="st4" width="6" height="6" />
      <rect x="38.3" y="45.7" class="st4" width="6" height="6" />
      <rect x="58.7" y="45.7" class="st4" width="6" height="6" />
      <rect x="48.5" y="45.7" class="st4" width="6" height="6" />
      <rect x="38.3" y="56" class="st4" width="6" height="6" />
      <rect x="58.7" y="56" class="st4" width="6" height="6" />
      <rect x="48.5" y="56" class="st4" width="6" height="6" />
    </g>
  </g>
  <g>
    <g>
      <circle class="st5" cx="40" cy="120" r="36.7" />
      <defs>
        <filter
          id="Adobe_OpacityMaskFilter"
          filterUnits="userSpaceOnUse"
          x="8.6"
          y="88.6"
          width="62.7"
          height="62.7"
        >
          <feColorMatrix
            type="matrix"
            values="1 0 0 0 0  0 1 0 0 0  0 0 1 0 0  0 0 0 1 0"
          />
        </filter>
      </defs>
      <mask
        maskUnits="userSpaceOnUse"
        x="8.6"
        y="88.6"
        width="62.7"
        height="62.7"
        id="SVGID_2_"
      >
        <g class="st6">
          <linearGradient
            id="SVGID_3_"
            gradientUnits="userSpaceOnUse"
            x1="30.4079"
            y1="151.6024"
            x2="71.5276"
            y2="110.4826"
          >
            <stop offset="0" style="stop-color: #000000" />
            <stop offset="2.000000e-02" style="stop-color: #ffffff" />
            <stop offset="0.98" style="stop-color: #ffffff" />
            <stop offset="1" style="stop-color: #000000" />
          </linearGradient>
          <path
            class="st7"
            d="M68.9,107.8l-8.3-8.3l-41.4,40.9l8.4,8.4c3.8,1.6,8,2.5,12.4,2.5c17.3,0,31.5-14,31.4-31.4
					C71.3,115.7,70.4,111.6,68.9,107.8z"
          />
        </g>
      </mask>
      <radialGradient
        id="SVGID_4_"
        cx="40.0003"
        cy="119.9998"
        r="31.3515"
        gradientUnits="userSpaceOnUse"
      >
        <stop offset="0.87" style="stop-color: #080600; stop-opacity: 0.13" />
        <stop
          offset="0.9693"
          style="stop-color: #030200; stop-opacity: 3.073072e-2"
        />
        <stop offset="1" style="stop-color: #000000; stop-opacity: 0" />
      </radialGradient>
      <path
        class="st8"
        d="M71.4,120c0.1,17.3-14,31.4-31.4,31.4S8.6,137.3,8.6,120s14-31.3,31.4-31.4C57.3,88.6,71.3,102.5,71.4,120z"
      />
    </g>
    <rect y="80" class="st0" width="80" height="80" />
    <g>
      <path
        class="st1"
        d="M33.4,137.7h21.2c2.8,0,5.1-2.3,5.1-5.1v-25.1c0-2.8-2.3-5.1-5.1-5.1H33.4V137.7z"
      />
      <path
        class="st2"
        d="M26.8,142.3L26.8,142.3c3.7,0,6.6-2.9,6.6-6.6v-31.4c0-3.6-2.9-6.6-6.6-6.6h-0.1c-3.6,0-6.6,2.9-6.6,6.6v31.4
			C20.2,139.3,23.2,142.3,26.8,142.3z"
      />
      <rect x="39" y="107.4" class="st3" width="16.2" height="6.3" />
      <rect x="39" y="117.2" class="st4" width="3.7" height="3.7" />
      <rect x="51.5" y="117.2" class="st4" width="3.7" height="3.7" />
      <rect x="45.2" y="117.2" class="st4" width="3.7" height="3.7" />
      <rect x="39" y="123.5" class="st4" width="3.7" height="3.7" />
      <rect x="51.5" y="123.5" class="st4" width="3.7" height="3.7" />
      <rect x="45.2" y="123.5" class="st4" width="3.7" height="3.7" />
      <rect x="39" y="129.8" class="st4" width="3.7" height="3.7" />
      <rect x="51.5" y="129.8" class="st4" width="3.7" height="3.7" />
      <rect x="45.2" y="129.8" class="st4" width="3.7" height="3.7" />
    </g>
  </g>
  <g>
    <g>
      <circle class="st9" cx="120" cy="120" r="36.7" />
      <defs>
        <filter
          id="Adobe_OpacityMaskFilter_1_"
          filterUnits="userSpaceOnUse"
          x="88.6"
          y="88.6"
          width="62.7"
          height="62.7"
        >
          <feColorMatrix
            type="matrix"
            values="1 0 0 0 0  0 1 0 0 0  0 0 1 0 0  0 0 0 1 0"
          />
        </filter>
      </defs>
      <mask
        maskUnits="userSpaceOnUse"
        x="88.6"
        y="88.6"
        width="62.7"
        height="62.7"
        id="SVGID_5_"
      >
        <g class="st10">
          <linearGradient
            id="SVGID_6_"
            gradientUnits="userSpaceOnUse"
            x1="110.4079"
            y1="151.6024"
            x2="151.5276"
            y2="110.4826"
          >
            <stop offset="0" style="stop-color: #000000" />
            <stop offset="2.000000e-02" style="stop-color: #ffffff" />
            <stop offset="0.98" style="stop-color: #ffffff" />
            <stop offset="1" style="stop-color: #000000" />
          </linearGradient>
          <path
            class="st11"
            d="M148.9,107.8l-8.3-8.3l-41.4,40.9l8.4,8.4c3.8,1.6,8,2.5,12.4,2.5c17.3,0,31.5-14,31.4-31.4
					C151.3,115.7,150.4,111.6,148.9,107.8z"
          />
        </g>
      </mask>
      <radialGradient
        id="SVGID_7_"
        cx="120.0003"
        cy="119.9998"
        r="31.3515"
        gradientUnits="userSpaceOnUse"
      >
        <stop offset="0.87" style="stop-color: #080600; stop-opacity: 0.13" />
        <stop
          offset="0.9693"
          style="stop-color: #030200; stop-opacity: 3.073072e-2"
        />
        <stop offset="1" style="stop-color: #000000; stop-opacity: 0" />
      </radialGradient>
      <path
        class="st12"
        d="M151.4,120c0.1,17.3-14,31.4-31.4,31.4s-31.4-14-31.4-31.4s14-31.3,31.4-31.4
			C137.3,88.6,151.3,102.5,151.4,120z"
      />
    </g>
    <rect x="80" y="80" class="st0" width="80" height="80" />
    <g>
      <path
        class="st13"
        d="M133.5,101H109c-5.7,0-10.3,4.6-10.3,10.3v16.4h-4.9c-0.7,0-1.3,0.6-1.3,1.3c0,0.7,0.6,1.3,1.3,1.3h4.9h37.5
			h7.5v-19C143.8,105.6,139.1,101,133.5,101z"
      />
      <path
        class="st14"
        d="M109.3,103.2h-1.1c-4,0-7.2,3.2-7.2,7.2v17.3h15.5v-17.3C116.4,106.4,113.2,103.2,109.3,103.2z"
      />
      <path
        class="st15"
        d="M109.2,111.8h7.3v15.9h-7.3c-2.3,0-4.2-1.9-4.2-4.2V116C105,113.7,106.8,111.8,109.2,111.8z"
      />
      <path
        class="st16"
        d="M116.4,124.9v-2.4l-11.2-8.8l-0.1,0.1c-0.1,0.3-0.2,0.7-0.2,1.1v1L116.4,124.9z"
      />
      <rect x="119.4" y="130.3" class="st17" width="6" height="2.6" />
      <rect x="119.4" y="132.9" class="st18" width="6" height="9.6" />
      <path
        class="st19"
        d="M130.5,99v-5h-4.8h-2.4v5v9.9c-0.8,0.4-1.3,1.2-1.3,2.2c0,1.4,1.1,2.5,2.5,2.5c1.4,0,2.5-1.1,2.5-2.5
			c0-0.9-0.5-1.8-1.3-2.2V99H130.5z"
      />
      <circle class="st20" cx="124.5" cy="111.1" r="1.4" />
    </g>
  </g>
  <g>
    <g>
      <circle class="st21" cx="200" cy="120" r="36.7" />
      <defs>
        <filter
          id="Adobe_OpacityMaskFilter_2_"
          filterUnits="userSpaceOnUse"
          x="168.6"
          y="88.6"
          width="62.7"
          height="62.7"
        >
          <feColorMatrix
            type="matrix"
            values="1 0 0 0 0  0 1 0 0 0  0 0 1 0 0  0 0 0 1 0"
          />
        </filter>
      </defs>
      <mask
        maskUnits="userSpaceOnUse"
        x="168.6"
        y="88.6"
        width="62.7"
        height="62.7"
        id="SVGID_8_"
      >
        <g class="st22">
          <linearGradient
            id="SVGID_9_"
            gradientUnits="userSpaceOnUse"
            x1="190.4079"
            y1="151.6024"
            x2="231.5276"
            y2="110.4826"
          >
            <stop offset="0" style="stop-color: #000000" />
            <stop offset="2.000000e-02" style="stop-color: #ffffff" />
            <stop offset="0.98" style="stop-color: #ffffff" />
            <stop offset="1" style="stop-color: #000000" />
          </linearGradient>
          <path
            class="st23"
            d="M228.9,107.8l-8.3-8.3l-41.4,40.9l8.4,8.4c3.8,1.6,8,2.5,12.4,2.5c17.3,0,31.5-14,31.4-31.4
					C231.3,115.7,230.4,111.6,228.9,107.8z"
          />
        </g>
      </mask>
      <radialGradient
        id="SVGID_10_"
        cx="200.0003"
        cy="119.9998"
        r="31.3515"
        gradientUnits="userSpaceOnUse"
      >
        <stop offset="0.87" style="stop-color: #080600; stop-opacity: 0.13" />
        <stop
          offset="0.9693"
          style="stop-color: #030200; stop-opacity: 3.073072e-2"
        />
        <stop offset="1" style="stop-color: #000000; stop-opacity: 0" />
      </radialGradient>
      <path
        class="st24"
        d="M231.4,120c0.1,17.3-14,31.4-31.4,31.4s-31.4-14-31.4-31.4s14-31.3,31.4-31.4
			C217.3,88.6,231.3,102.5,231.4,120z"
      />
    </g>
    <rect x="160" y="80" class="st0" width="80" height="80" />
    <g>
      <rect x="177.5" y="97.5" class="st0" width="45" height="45" />
      <g>
        <polygon
          class="st25"
          points="193.1,99.9 179.3,103.9 179.3,140.1 193.1,136.1 			"
        />
        <polygon
          class="st25"
          points="220.7,99.9 206.9,103.9 206.9,140.1 220.7,136.1 			"
        />
        <polygon
          class="st26"
          points="193.1,99.9 206.9,103.9 206.9,140.1 193.1,136.1 			"
        />
        <path
          class="st27"
          d="M214.9,117.6c0,6.3-7,15.7-8,15.7s-8-9.4-8-15.7c0-4.4,3.6-8,8-8C211.3,109.6,214.9,113.2,214.9,117.6z"
        />
        <circle class="st28" cx="206.9" cy="117.6" r="3.4" />
      </g>
    </g>
  </g>
  <g>
    <rect x="80" class="st0" width="80" height="80" />
    <g>
      <path
        class="st13"
        d="M141.6,15.8h-34.4c-8,0-14.5,6.5-14.5,14.5v23.1h-6.9c-1,0-1.8,0.8-1.8,1.8c0,1,0.8,1.8,1.8,1.8h6.9h52.7
			H156V30.2C156,22.2,149.6,15.8,141.6,15.8z"
      />
      <path
        class="st14"
        d="M106.7,18.9L106.7,18.9c-6,0-10.9,4.9-10.9,10.9v23.6h21.7V29.8C117.6,23.8,112.7,18.9,106.7,18.9z"
      />
      <path
        class="st15"
        d="M105.7,31h11.9v22.4h-11.9c-2.3,0-4.2-1.9-4.2-4.2v-14C101.5,32.9,103.4,31,105.7,31z"
      />
      <path
        class="st16"
        d="M117.6,49.3V46l-15.7-12.4l-0.1,0.1c-0.2,0.5-0.3,1-0.3,1.6v1.4L117.6,49.3z"
      />
      <rect x="121.7" y="57" class="st17" width="8.5" height="3.6" />
      <rect x="121.7" y="60.6" class="st18" width="8.5" height="13.5" />
      <path
        class="st19"
        d="M137.4,13V5.9h-6.7h-3.4V13v13.9c-1.1,0.6-1.8,1.8-1.8,3.1c0,2,1.6,3.5,3.5,3.5s3.5-1.6,3.5-3.5
			c0-1.3-0.7-2.5-1.8-3.1V13H137.4z"
      />
      <circle class="st20" cx="129" cy="30" r="1.9" />
    </g>
  </g>
  <g>
    <rect x="160" class="st0" width="80" height="80" />
    <g>
      <polygon
        class="st25"
        points="187.7,4.2 163.1,11.4 163.1,75.8 187.7,68.6 		"
      />
      <polygon
        class="st25"
        points="236.9,4.2 212.3,11.4 212.3,75.8 236.9,68.6 		"
      />
      <polygon
        class="st26"
        points="187.7,4.2 212.3,11.4 212.3,75.8 187.7,68.6 		"
      />
      <path
        class="st27"
        d="M226.5,35.7c0,11.3-12.4,27.9-14.2,27.9c-1.8,0-14.2-16.7-14.2-27.9c0-7.8,6.4-14.2,14.2-14.2
			C220.2,21.5,226.5,27.8,226.5,35.7z"
      />
      <circle class="st28" cx="212.3" cy="35.7" r="6" />
    </g>
  </g>
  <g>
    <rect x="240" class="st0" width="80" height="80" />
    <g>
      <polygon
        class="st29"
        points="286.6,4.2 254.4,4.2 254.4,68.8 302,68.8 302,19.6 		"
      />
      <polygon class="st30" points="285.2,21.2 299.9,21.2 285.2,6.5 		" />
      <circle class="st31" cx="298.7" cy="58.9" r="16.9" />
      <polygon
        class="st32"
        points="307,51.7 297.4,61.3 292.2,56.1 288.7,59.6 297.4,68.4 300.9,64.8 310.5,55.2 		"
      />
    </g>
  </g>
  <g>
    <rect x="320" class="st0" width="80" height="80" />
    <g>
      <path
        class="st33"
        d="M342.6,54.5c-0.3,0-0.7,0-1-0.1v8.7c0,3.4,2.7,6.1,6.1,6.1c3.4,0,6.1-2.7,6.1-6.1c0-0.8,0-2.4,0-2.4
			c0.2,3.2,2.8,5.7,6.1,5.7c3.4,0,6.1-2.7,6.1-6.1c0-0.7,0-2,0-2c0.9,2.2,3.1,3.8,5.6,3.8c3.4,0,6.1-2.7,6.1-6.1v-1.6H342.6z"
      />
      <line class="st34" x1="365.9" y1="58.4" x2="365.9" y2="54.5" />
      <line class="st34" x1="353.8" y1="60.8" x2="353.8" y2="54.5" />
      <path
        class="st35"
        d="M390.7,54.5h-48.1c-3.2,0-5.8-2.6-5.8-5.8V16.6c0-3.2,2.6-5.8,5.8-5.8h48.1c3.2,0,5.8,2.6,5.8,5.8v32.2
			C396.5,51.9,393.9,54.5,390.7,54.5z"
      />
      <rect x="336.9" y="20.5" class="st36" width="59.6" height="9.9" />
      <rect x="341.6" y="32.7" class="st37" width="50.2" height="9.9" />
      <path
        class="st38"
        d="M353.6,35.1c-7.3,4.5-9.9,6.8-12.6,8.7c-2.7,1.9-4.1,1.1-4.1,1.1V16c-1.4,0-4.9,0.4-7.2,2.7
			c-1,1-3.4,3-6.2,5.4v44.7h2.5c5.7,0,11.3-2,15.7-5.6c7.5-6.1,18.8-15.4,21.7-18.3C367.7,40.5,360.9,30.5,353.6,35.1z"
      />
      <path
        class="st39"
        d="M361.3,37.4c1.9,2.1,2.4,4.7,0.4,6.4c-2,1.8-3.8,0.2-5.7-1.8c-1.9-2.1-3.1-3.9-1.1-5.7
			C356.8,34.5,359.4,35.3,361.3,37.4z"
      />
      <path
        class="st33"
        d="M336.9,32.9L333.1,43c-0.2,0.4,0.1,0.9,0.5,1.1l3.2,0.9V32.9z"
      />
    </g>
  </g>
  <g>
    <rect x="400" class="st0" width="80" height="80" />
    <g>
      <g>
        <path
          class="st21"
          d="M434.3,14.7c0-2.9,7.6-5.1,16.7-5.1s16.7,2.3,16.7,5.1v45.7c0,2.9-7.6,5.1-16.7,5.1s-16.7-2.3-16.7-5.1
				V14.7z"
        />
        <path
          class="st40"
          d="M451.1,19.1c-9.3,0-16.7-2.3-16.7-5.1v4.6c0,2.9,7.6,5.1,16.7,5.1s16.7-2.3,16.7-5.1V14
				C467.9,16.9,460.3,19.1,451.1,19.1z"
        />
        <path
          class="st40"
          d="M451.1,28.4c-9.3,0-16.7-2.3-16.7-5.1v4.6c0,2.9,7.6,5.1,16.7,5.1s16.7-2.3,16.7-5.1v-4.6
				C467.9,26.1,460.3,28.4,451.1,28.4z"
        />
        <path
          class="st40"
          d="M451.1,37.7c-9.3,0-16.7-2.3-16.7-5.1v4.6c0,2.9,7.6,5.1,16.7,5.1s16.7-2.3,16.7-5.1v-4.6
				C467.9,35.4,460.3,37.7,451.1,37.7z"
        />
        <path
          class="st40"
          d="M451.1,47c-9.3,0-16.7-2.3-16.7-5.1v4.6c0,2.9,7.6,5.1,16.7,5.1s16.7-2.3,16.7-5.1v-4.6
				C467.9,44.7,460.3,47,451.1,47z"
        />
        <path
          class="st40"
          d="M451.1,56.3c-9.3,0-16.7-2.3-16.7-5.1v4.6c0,2.9,7.6,5.1,16.7,5.1s16.7-2.3,16.7-5.1v-4.6
				C467.9,54,460.3,56.3,451.1,56.3z"
        />
      </g>
      <path
        class="st41"
        d="M434.3,45.6L434.3,45.6v14.9c0,2.9,7.6,5.1,16.7,5.1v-15C451.1,47.9,443.6,45.6,434.3,45.6z"
      />
      <g>
        <path
          class="st42"
          d="M412.1,47c0-2.9,7.6-5.1,16.7-5.1s16.9,2.3,16.9,5.1v18.3c0,2.9-7.6,5.1-16.7,5.1s-16.9-2.3-16.9-5.1V47z"
        />
        <path
          class="st43"
          d="M428.9,51.4c-9.3,0-16.7-2.3-16.7-5.1v4.6c0,2.9,7.6,5.1,16.7,5.1s16.9-2.3,16.9-5v-4.6
				C445.7,49.1,438.1,51.4,428.9,51.4z"
        />
        <path
          class="st43"
          d="M428.9,60.7c-9.3,0-16.7-2.3-16.7-5.1v4.6c0,2.9,7.6,5.1,16.7,5.1s16.9-2.3,16.9-5v-4.6
				C445.7,58.4,438.1,60.7,428.9,60.7z"
        />
      </g>
    </g>
  </g>
  <g>
    <rect x="480" class="st0" width="80" height="80" />
    <g>
      <g>
        <path
          class="st33"
          d="M503.6,53.7c-0.3,0-0.7,0-1-0.1v8.3c0,3.1,2.6,5.7,5.7,5.7s5.7-2.6,5.7-5.7c0-0.7,0-2.3,0-2.3
				c0.1,3,2.7,5.4,5.7,5.4c3.1,0,5.7-2.6,5.7-5.7c0-0.6,0-1.9,0-1.9c0.9,2.1,2.9,3.6,5.3,3.6c3.1,0,5.7-2.6,5.7-5.7v-1.6L503.6,53.7
				z"
        />
        <line class="st34" x1="525.6" y1="57.4" x2="525.6" y2="53.7" />
        <line class="st34" x1="514.1" y1="59.6" x2="514.1" y2="53.7" />
      </g>
      <g>
        <path
          class="st29"
          d="M546.3,53.7h-39.9c-4.6,0-8.3-3.7-8.3-8.3V20.7c0-4.6,3.7-8.3,8.3-8.3h39.9c4.6,0,8.3,3.7,8.3,8.3v24.9
				C554.4,50,550.7,53.7,546.3,53.7z"
        />
        <g>
          <path
            class="st44"
            d="M517.9,26.3H504c-0.7,0-1.3-0.6-1.3-1.3v-1.3c0-0.7,0.6-1.3,1.3-1.3h13.9c0.7,0,1.3,0.6,1.3,1.3V25
					C519.1,25.7,518.6,26.3,517.9,26.3z"
          />
          <path
            class="st44"
            d="M517.9,33.4H504c-0.7,0-1.3-0.6-1.3-1.3v-1.3c0-0.7,0.6-1.3,1.3-1.3h13.9c0.7,0,1.3,0.6,1.3,1.3v1.3
					C519.1,32.9,518.6,33.4,517.9,33.4z"
          />
        </g>
        <g>
          <path
            class="st37"
            d="M542,48.1h-13.7c-3.3,0-6.1-2.7-6.1-6.1V25.1c0-3.3,2.7-6,6.1-6H542c3.3,0,6.1,2.7,6.1,6v17
					C548,45.4,545.3,48.1,542,48.1z"
          />
          <g>
            <path
              class="st45"
              d="M539.4,40.4c-0.6,1.9-2.3,3.3-4.3,3.3s-3.7-1.4-4.3-3.3c-3.4,1.4-5.7,4.3-5.7,7.7h20.1
						C545.3,44.7,542.9,41.9,539.4,40.4z"
            />
            <path
              class="st46"
              d="M535.1,43.7c2,0,3.7-1.4,4.3-3.3c-0.4-0.1-0.9-0.3-1.3-0.4c-0.3,1.3-1.6,2.3-3,2.3c-1.4,0-2.7-1-3-2.3
						c-0.4,0.1-0.9,0.3-1.3,0.4C531.4,42.3,533.1,43.7,535.1,43.7z"
            />
            <path
              class="st38"
              d="M540.9,32.7c0-8.3-2.6-8.3-5.7-8.3s-5.7,0-5.7,8.3c0,3.1,2.6,5.7,5.7,5.7S540.9,35.9,540.9,32.7z"
            />
            <path
              class="st47"
              d="M535.1,38.4c-1.1,0-2.1-0.3-3-0.9V40c0.3,1.3,1.6,2.3,3,2.3c1.4,0,2.7-1,3-2.3v-2.4
						C537.3,38.1,536.3,38.4,535.1,38.4z"
            />
            <circle class="st48" cx="532.6" cy="32.1" r="0.7" />
            <circle class="st48" cx="537.7" cy="32.1" r="0.7" />
            <path
              class="st47"
              d="M542,31.4c-0.3-0.3-0.7-0.3-1.1,0c0,0.4,0,0.7,0,1.1c0,0.1,0,0.3,0,0.4c0.3,0,0.7,0,1-0.3
						C542.3,32.4,542.3,31.9,542,31.4z"
            />
            <path
              class="st47"
              d="M529.4,32.7c0-0.4,0-0.9,0-1.1c-0.4-0.3-0.9-0.3-1.1,0c-0.3,0.3-0.3,0.9,0.1,1.3c0.3,0.3,0.7,0.4,1,0.3
						C529.4,33,529.4,32.9,529.4,32.7z"
            />
            <path
              class="st49"
              d="M530.1,30.6c0,0.9-0.1,1.6-0.1,1.6c-0.3-0.4-0.7-0.9-1.1-1c0,0-0.6-3.3,1.1-5.9c1.7-2.6,3.3-2.9,5.1-3
						c0,0,1.3-0.1,1.9,0.1c0.6,0.1,0,1,1.1,1.4c1.1,0.3,2.4,0.7,3.1,2.9s0.4,4.7,0.4,4.7c-0.6,0.1-0.9,0.4-1.3,0.9
						c0,0-0.1-0.9-0.3-1.7c0-0.9,0-1.7,0-1.7c-1.1-0.6-2-1.4-2.6-2.6c-2.7,1.1-5.3,2-7.7,2.7C530,28.9,530.1,29.7,530.1,30.6z"
            />
          </g>
        </g>
      </g>
      <g>
        <path
          class="st38"
          d="M514,35.3c-6.9,4.3-9.3,6.4-11.9,8.3c-2.6,1.9-3.9,1-3.9,1V17.3c-1.3,0-4.6,0.3-6.9,2.6
				c-0.9,0.9-3.1,2.9-5.9,5.1v42.1h2.3c5.4,0,10.7-1.9,14.9-5.3c7.1-5.7,17.7-14.6,20.4-17.3C527.3,40.4,520.9,31.1,514,35.3z"
        />
        <path
          class="st39"
          d="M521.1,37.6c1.7,2,2.3,4.4,0.4,6.1c-1.9,1.7-3.6,0.3-5.3-1.7c-1.7-2-3-3.7-1.1-5.4
				C517,34.9,519.4,35.6,521.1,37.6z"
        />
        <path
          class="st33"
          d="M498.1,33.3l-3.6,9.6c-0.1,0.4,0.1,0.9,0.6,1l3,0.9V33.3z"
        />
      </g>
    </g>
  </g>
  <g>
    <rect x="560" class="st0" width="80" height="80" />
    <g>
      <path
        class="st50"
        d="M630.3,20.6c0-3.9-3.1-6.9-6.9-6.9h-46.7c-3.9,0-6.9,3.1-6.9,6.9v9.3h60.6v-9.3H630.3z"
      />
      <path
        class="st42"
        d="M569.7,29.9V64c0,3.9,3.1,6.9,6.9,6.9h46.7c3.9,0,6.9-3.1,6.9-6.9V29.9H569.7z"
      />
      <g>
        <rect x="582.6" y="36" class="st51" width="6.4" height="6.4" />
        <rect x="592" y="36" class="st51" width="6.4" height="6.4" />
        <rect x="601.6" y="36" class="st51" width="6.4" height="6.4" />
        <rect x="611" y="36" class="st51" width="6.4" height="6.4" />
        <rect x="582.6" y="45.7" class="st51" width="6.4" height="6.4" />
        <rect x="592" y="45.7" class="st51" width="6.4" height="6.4" />
        <rect x="601.6" y="45.7" class="st51" width="6.4" height="6.4" />
        <rect x="611" y="45.7" class="st51" width="6.4" height="6.4" />
        <rect x="582.6" y="55.4" class="st51" width="6.4" height="6.4" />
        <rect x="592" y="55.4" class="st51" width="6.4" height="6.4" />
        <rect x="601.6" y="55.4" class="st51" width="6.4" height="6.4" />
        <rect x="611" y="55.4" class="st51" width="6.4" height="6.4" />
      </g>
      <g>
        <circle class="st52" cx="585.7" cy="20.1" r="5" />
        <path
          class="st53"
          d="M585.7,23.4L585.7,23.4c-1.6,0-3-1.3-3-3V12c0-1.6,1.3-3,3-3l0,0c1.6,0,3,1.3,3,3v8.4
				C588.7,22.1,587.3,23.4,585.7,23.4z"
        />
      </g>
      <g>
        <circle class="st52" cx="614.3" cy="20.1" r="5" />
        <path
          class="st53"
          d="M614.3,23.4L614.3,23.4c-1.6,0-3-1.3-3-3V12c0-1.6,1.3-3,3-3l0,0c1.6,0,3,1.3,3,3v8.4
				C617.1,22.1,615.9,23.4,614.3,23.4z"
        />
      </g>
    </g>
  </g>
  <g>
    <rect x="640" class="st0" width="80" height="80" />
    <g>
      <g>
        <rect x="651.4" y="14.1" class="st54" width="19.9" height="6.7" />
        <rect x="671.3" y="14.1" class="st55" width="37.3" height="6.7" />
        <path
          class="st56"
          d="M673.1,23.9h-3.9c-1.1,0-2.1-1-2.1-2.1v-8.6c0-1.1,1-2.1,2.1-2.1h3.9c1.1,0,2.1,1,2.1,2.1v8.6
				C675.3,23,674.4,23.9,673.1,23.9z"
        />
      </g>
      <g>
        <rect x="651.4" y="36.6" class="st54" width="40.9" height="6.7" />
        <rect x="692.4" y="36.6" class="st55" width="16.1" height="6.7" />
        <path
          class="st56"
          d="M694.3,46.4h-3.9c-1.1,0-2.1-1-2.1-2.1v-8.6c0-1.1,1-2.1,2.1-2.1h3.9c1.1,0,2.1,1,2.1,2.1v8.6
				C696.4,45.4,695.4,46.4,694.3,46.4z"
        />
      </g>
      <g>
        <rect x="651.4" y="59.1" class="st54" width="14" height="6.7" />
        <rect x="665.4" y="59.1" class="st55" width="43.1" height="6.7" />
        <path
          class="st56"
          d="M667.4,68.9h-3.9c-1.1,0-2.1-1-2.1-2.1v-8.6c0-1.1,1-2.1,2.1-2.1h3.9c1.1,0,2.1,1,2.1,2.1v8.6
				C669.4,68,668.6,68.9,667.4,68.9z"
        />
      </g>
    </g>
  </g>
  <g>
    <rect x="720" class="st0" width="80" height="80" />
    <g>
      <g>
        <rect x="725.7" y="9.4" class="st57" width="68.6" height="46.7" />
        <rect x="729.1" y="13" class="st58" width="61.6" height="39.6" />
      </g>
      <g>
        <path
          class="st59"
          d="M769.3,53.7c-1.1,4-4.9,7-9.3,7s-8.1-3-9.3-7c-7.4,3-12.6,9.4-12.6,16.7h43.6
				C781.7,63.1,776.7,56.7,769.3,53.7z"
        />
        <path
          class="st60"
          d="M760,60.7c4.4,0,8.1-3,9.3-7c-0.9-0.3-1.7-0.7-2.7-0.9c-0.7,2.9-3.4,5.1-6.6,5.1s-5.9-2.1-6.6-5.1
				c-0.9,0.3-1.9,0.6-2.7,0.9C751.9,57.9,755.6,60.7,760,60.7z"
        />
        <path
          class="st49"
          d="M773.3,23.9c-1.4-4.6-4.4-5.4-6.7-6.1c-2.4-0.7-1.3-2.6-2.4-3c-1.1-0.4-4.1-0.1-4.1-0.1
				c-4.1,0-7.4,0.7-11.1,6.4s-2.6,12.9-2.6,12.9c0.1,0,0.3,0.1,0.3,0.1c0,1.1,0.1,2.3,0.3,3.4c0.9,4,3.7,9.4,6.6,11.9h13
				c2.9-2.4,5.6-7.9,6.6-11.9c0.3-1,0.3-1.9,0.3-2.9c0.3-0.1,0.6-0.3,1-0.4C774.3,34,774.9,28.4,773.3,23.9z"
        />
        <path
          class="st47"
          d="M766.4,49h-13v3.9c0.7,2.9,3.4,5.1,6.6,5.1s5.9-2.1,6.6-5.1L766.4,49C766.6,49,766.6,49,766.4,49z"
        />
        <path
          class="st47"
          d="M746.9,37.3c-0.3-1-0.3-2.1-0.3-3.1c-0.6-0.1-1,0-1.4,0.3c-0.7,0.7-0.4,1.9,0.4,2.9c0.4,0.4,1,0.7,1.6,0.7
				C747,37.7,747,37.4,746.9,37.3z"
        />
        <path
          class="st47"
          d="M774.9,34.4c-0.1-0.1-0.4-0.3-0.7-0.3c-0.3,0.1-0.6,0.3-0.9,0.3c0,1-0.1,1.9-0.3,2.9c0,0.3-0.1,0.4-0.1,0.7
				c0.6,0,1.1-0.3,1.7-0.7C775.3,36.3,775.4,35,774.9,34.4z"
        />
      </g>
    </g>
  </g>
  <g>
    <rect x="240" y="80" class="st0" width="80" height="80" />
    <g>
      <g>
        <path
          class="st38"
          d="M260.4,141.1c1.3,0.6,17.6,7.7,17.6,7.7c3.6,1.7,7.3,1.6,11.1,0l22-11c2-1,2.7-3.3,1.7-5.3l0,0
				c-1-2-3.3-2.7-5.3-1.7l-16.6,8.3c0-1.6-0.9-3-2.4-3.6c0,0-17.3-7.6-20-8.7c-3.7-1.6-10-1-15.9,1.1c-2.1,0.9-5.9,2.4-5.9,2.4
				l5.7,12.7c0,0,2.7-1.4,3.4-1.9C256.4,140.7,259.1,140.6,260.4,141.1z"
        />
        <path
          class="st61"
          d="M265,134.9l20,8.7c0.7,0.3,1.3,0.4,2,0.4c2,0,3.9-1.1,4.6-3c0.3-0.9,0.4-1.7,0.4-2.6l-1,0.6
				c0,0.6-0.1,1-0.3,1.6c-0.7,1.4-2.1,2.4-3.6,2.4c-0.6,0-1-0.1-1.6-0.3l-20-8.7C264.6,133.4,264.1,134.4,265,134.9z"
        />
        <path
          class="st61"
          d="M288.6,135.4c1.4,0.7,2.4,2.1,2.4,3.6l14.7-7.3c0-0.3-0.1-0.7-0.3-1c-1-2-3.3-2.7-5.3-1.7l-2.1,1
				c-1-2-3.3-2.7-5.3-1.7l-9.6,4.7C286.3,134.3,288.6,135.4,288.6,135.4z"
        />
      </g>
      <g>
        <circle class="st62" cx="290.1" cy="97.4" r="7.4" />
        <g>
          <g>
            <path
              class="st63"
              d="M291.6,101.9h-1.9v-6.4c-0.7,0.6-1.4,1-2.3,1.3v-1.6c0.4-0.1,1-0.4,1.6-0.9s0.9-0.9,1.1-1.4h1.4V101.9z"
            />
          </g>
        </g>
      </g>
      <g>
        <circle class="st53" cx="278.9" cy="111.9" r="11.7" />
        <g>
          <path
            class="st64"
            d="M281,118.9h-2.9v-10.1c-1,0.9-2.3,1.6-3.7,2v-2.4c0.7-0.3,1.6-0.7,2.4-1.3s1.4-1.4,1.9-2.3h2.3V118.9z"
          />
        </g>
      </g>
    </g>
  </g>
</svg>
