<svg width="24" height="24" viewBox="0 0 24 24" fill="none" xmlns="http://www.w3.org/2000/svg">
<path d="M17.9324 24H6.06636C2.7332 24 0 21.2742 0 17.9501V6.04986C0 2.72576 2.7332 0 6.06636 0H17.9324C21.2656 0 23.9988 2.72576 23.9988 6.04986V17.8837C24.0655 21.2742 21.3323 24 17.9324 24Z" fill="#2A70C8"/>
<path fill-rule="evenodd" clip-rule="evenodd" d="M14.8066 19H9.23161C6.88071 19 5 17.1244 5 14.7799V9.2201C5 6.8756 6.88071 5 9.23161 5H14.8066C17.1575 5 19.0382 6.8756 19.0382 9.2201V14.7799C19.0382 17.1244 17.1575 19 14.8066 19ZM15.7469 9.1531C16.192 9.1531 16.5529 8.79322 16.5529 8.34927C16.5529 7.90533 16.192 7.54544 15.7469 7.54544C15.3017 7.54544 14.9408 7.90533 14.9408 8.34927C14.9408 8.79322 15.3017 9.1531 15.7469 9.1531ZM8.62713 11.9665C8.62713 10.0909 10.172 8.55024 12.0527 8.55024C14.0006 8.55024 15.5455 10.0909 15.4783 11.9665C15.4783 13.8421 13.9334 15.3828 12.0527 15.3828C10.172 15.3828 8.62713 13.8421 8.62713 11.9665ZM9.83616 12.0335C9.83616 13.2392 10.8437 14.244 12.0527 14.244C13.2617 14.244 14.2693 13.2392 14.2693 12.0335C14.2693 10.8278 13.2617 9.82297 12.0527 9.82297C10.8437 9.82297 9.83616 10.8278 9.83616 12.0335Z" fill="#FEC601"/>
</svg>
