<svg width="24" height="24" viewBox="0 0 24 24" fill="none" xmlns="http://www.w3.org/2000/svg">
<path d="M17.9324 24H6.06636C2.7332 24 0 21.2742 0 17.9501V6.04986C0 2.72576 2.7332 0 6.06636 0H17.9324C21.2656 0 23.9988 2.72576 23.9988 6.04986V17.8837C24.0655 21.2742 21.3323 24 17.9324 24Z" fill="#2A70C8"/>
<g clip-path="url(#clip0_6012_154)">
<path d="M8.17445 7.46296C8.17426 7.85076 8.02001 8.22261 7.74566 8.49669C7.4713 8.77077 7.0993 8.92464 6.71149 8.92445C6.32369 8.92426 5.95184 8.77001 5.67776 8.49566C5.40368 8.2213 5.24981 7.8493 5.25 7.46149C5.25019 7.07369 5.40444 6.70184 5.67879 6.42776C5.95315 6.15368 6.32515 5.99981 6.71296 6C7.10076 6.00019 7.47261 6.15444 7.74669 6.42879C8.02077 6.70315 8.17464 7.07515 8.17445 7.46296ZM8.21832 10.0072H5.29387V19.1608H8.21832V10.0072ZM12.8389 10.0072H9.92912V19.1608H12.8097V14.3573C12.8097 11.6815 16.2971 11.4329 16.2971 14.3573V19.1608H19.185V13.363C19.185 8.85207 14.0233 9.02023 12.8097 11.2355L12.8389 10.0072Z" fill="#FEC601"/>
</g>
<defs>
<clipPath id="clip0_6012_154">
<rect width="13.935" height="13.935" fill="white" transform="translate(5.25 5.25)"/>
</clipPath>
</defs>
</svg>
