<svg width="44" height="44" viewBox="0 0 44 44" fill="none" xmlns="http://www.w3.org/2000/svg">
<path d="M34.1936 5.41592C33.6225 6.37123 32.6213 5.79178 32.1129 5.65083C31.6045 5.50989 29.4612 4.3275 25.6597 4.29618C21.8582 4.26486 17.5248 6.34774 17.5248 6.34774C17.5248 6.34774 15.0218 5.24365 12.0338 7.02898C10.5085 8.22702 9.67155 10.0985 9.80452 12.0326C8.7642 13.6613 8.03675 15.4701 7.66911 17.3651C6.90256 21.0766 7.62218 24.9448 9.67155 28.1396C9.67155 28.1396 10.751 29.4238 9.39778 30.2147C8.18537 30.9194 7.32495 29.4238 7.32495 29.4238C6.42541 28.1396 5.64321 26.7693 4.98617 25.3442C3.90673 22.9873 4.07099 20.3171 3.17146 19.2913C2.20935 18.1872 0.300781 18.8058 0.300781 18.8058C0.300781 18.8058 2.06856 3.22342 18.3305 0.341847C27.7326 -1.31819 33.865 3.60711 33.865 3.60711C33.865 3.60711 34.9523 4.15523 34.1936 5.41592ZM15.4285 16.2375C12.8942 16.2375 10.837 14.1781 10.8449 11.6411C10.8527 9.10402 12.8942 7.04464 15.4285 7.04464C17.9629 7.04464 20.0201 9.10402 20.0122 11.6411C20.0201 14.1781 17.9629 16.2375 15.4285 16.2375Z" fill="#CE1127"/>
<path d="M42.5245 29.4238C39.3331 38.4992 32.0273 41.4903 32.0273 41.4903C32.0273 41.4903 31.0183 42.1716 30.2987 40.8874C29.7433 39.9243 30.7524 39.3292 31.1278 38.9533C31.5033 38.5775 33.5839 37.2698 35.4847 33.9419C37.3854 30.614 37.6905 25.7826 37.6905 25.7826C37.6905 25.7826 39.8963 24.1226 39.8102 20.6224C39.2158 17.2632 36.5563 16.2218 36.5563 16.2218C35.6568 14.5147 34.4443 12.9957 32.9895 11.7506C30.1344 9.26058 26.419 7.99989 22.6409 8.2348C22.6409 8.2348 20.9827 8.55584 20.9827 6.98194C20.9827 5.57248 22.6879 5.54116 22.6879 5.54116C24.2444 5.37672 25.8167 5.36106 27.3811 5.47851C29.9545 5.68993 32.1994 7.13855 33.537 6.85666C34.9841 6.54344 35.383 4.57019 35.383 4.57019C35.383 4.57019 48.0625 13.7395 42.5558 29.4473L42.5245 29.4238ZM38.105 23.598C36.8457 25.7905 34.0532 26.55 31.8553 25.2972C29.6651 24.0365 28.9064 21.241 30.1579 19.0407C31.4094 16.856 34.1784 16.0965 36.3686 17.3258C38.5822 18.5709 39.3566 21.382 38.105 23.598C38.105 23.5901 38.105 23.5901 38.105 23.598Z" fill="#FEC601"/>
<path d="M35.8283 30.9038C35.1869 32.3368 34.4125 33.7149 33.5208 35.0069C32.0503 37.1289 29.6567 38.3505 29.25 39.6503C28.7963 41.0598 30.306 42.3988 30.306 42.3988C30.306 42.3988 16.0151 48.7649 5.22076 36.111C-1.0212 28.7818 0.0738797 20.9592 0.0738797 20.9592C0.0738797 20.9592 -0.0121624 19.7455 1.45055 19.7612C2.55346 19.7612 2.57692 20.9358 2.71772 21.4447C2.85852 21.9537 2.94456 24.4203 4.86095 27.7325C6.77734 31.0447 10.7979 33.7541 10.7979 33.7541C10.7979 33.7541 11.1264 36.4947 14.1926 38.1704C17.3996 39.3449 19.6289 37.5596 19.6289 37.5596C21.5531 37.6379 23.4695 37.356 25.292 36.7139C28.8745 35.4924 31.8312 32.9005 33.5208 29.51C33.5208 29.51 34.0762 27.9204 35.4528 28.68C36.6809 29.3769 35.8361 30.8881 35.8361 30.8881L35.8283 30.9038ZM18.7607 36.8705C16.5783 38.186 13.7389 37.4813 12.417 35.2966C11.1029 33.112 11.8069 30.2695 13.9892 28.9462C16.1716 27.6229 19.011 28.3354 20.3329 30.5201C20.3407 30.5279 20.3485 30.5436 20.3564 30.5514C21.6548 32.7361 20.943 35.5629 18.7607 36.8705Z" fill="#2A70C8"/>
</svg>
