<?xml version="1.0" encoding="utf-8"?>
<svg
  version="1.1"
  xmlns="http://www.w3.org/2000/svg"
  xmlns:xlink="http://www.w3.org/1999/xlink"
  x="0px"
  y="0px"
  width="40px"
  height="40px"
  viewBox="0 0 36 36"
  enable-background="new 0 0 36 36"
  xml:space="preserve"
>
  <path
    fill="#006EC5"
    d="M32.9,18c0,8.2-6.7,14.9-14.9,14.9C9.8,32.9,3.1,26.2,3.1,18C3.1,9.8,9.8,3.1,18,3.1c4.4,0,8.6,1.9,11.4,5.3
	l-4.1,4.1h10.5V2l-4.2,4.2C28.2,2.3,23.2,0,18,0C8.1,0,0,8.1,0,18c0,9.9,8.1,18,18,18c9.9,0,18-8.1,18-18H32.9z"
  />
</svg>
