<svg width="24" height="24" viewBox="0 0 24 24" fill="none" xmlns="http://www.w3.org/2000/svg">
<path d="M17.9324 24H6.06636C2.7332 24 0 21.2742 0 17.9501V6.04986C0 2.72576 2.7332 0 6.06636 0H17.9324C21.2656 0 23.9988 2.72576 23.9988 6.04986V17.8837C24.0655 21.2742 21.3323 24 17.9324 24Z" fill="#2A70C8"/>
<g clip-path="url(#clip0_6012_158)">
<path d="M19.185 8.095C18.6633 8.32579 18.1101 8.4774 17.5436 8.54482C18.1405 8.18738 18.587 7.62517 18.8001 6.96291C18.2395 7.29652 17.625 7.53032 16.9851 7.65679C16.5548 7.19643 15.9845 6.89111 15.3628 6.78831C14.7411 6.6855 14.1029 6.79098 13.5473 7.08833C12.9918 7.38568 12.55 7.85825 12.2907 8.43257C12.0314 9.00688 11.9692 9.65078 12.1136 10.2641C10.9767 10.2073 9.86444 9.91188 8.8491 9.39721C7.83377 8.88253 6.93803 8.16006 6.22006 7.2767C5.96595 7.71316 5.83242 8.20932 5.83313 8.71436C5.83313 9.70562 6.33833 10.5813 7.10467 11.0941C6.65076 11.0797 6.20683 10.9572 5.80989 10.7365V10.7714C5.80987 11.4317 6.03824 12.0717 6.45628 12.5828C6.87431 13.0939 7.45627 13.4447 8.10345 13.5756C7.68209 13.6899 7.24023 13.7068 6.8114 13.6248C6.99387 14.1932 7.34956 14.6902 7.82863 15.0464C8.3077 15.4025 8.88617 15.5998 9.483 15.6108C8.88986 16.0766 8.2107 16.421 7.48436 16.6241C6.75803 16.8273 5.99877 16.8853 5.25 16.7948C6.5569 17.6352 8.07823 18.0814 9.63203 18.08C14.8918 18.08 17.7672 13.7233 17.7672 9.94488C17.7672 9.82183 17.7644 9.69741 17.759 9.57504C18.3184 9.17058 18.8013 8.66894 19.185 8.095Z" fill="#FEC601"/>
</g>
<defs>
<clipPath id="clip0_6012_158">
<rect width="13.935" height="13.935" fill="white" transform="translate(5.25 5.25)"/>
</clipPath>
</defs>
</svg>
