<svg width="24" height="24" viewBox="0 0 24 24" fill="none" xmlns="http://www.w3.org/2000/svg">
<path d="M17.9324 24H6.06636C2.7332 24 0 21.2742 0 17.9501V6.04986C0 2.72576 2.7332 0 6.06636 0H17.9324C21.2656 0 23.9988 2.72576 23.9988 6.04986V17.8837C24.0655 21.2742 21.3323 24 17.9324 24Z" fill="#2A70C8"/>
<g clip-path="url(#clip0_6012_158)">
<path d="M15.9705 6H18.1064L13.4398 11.334L18.93 18.591H14.6314L11.265 14.1891L7.41221 18.591H5.27512L10.2667 12.8855L5 6.00058H9.40768L12.4508 10.024L15.9705 6ZM15.2211 17.3129H16.4046L8.76458 7.21133H7.49463L15.2211 17.3129Z" fill="#FEC601"/>
</g>
<defs>
<clipPath id="clip0_6012_158">
<rect width="13.935" height="13.935" fill="white" transform="translate(5.25 5.25)"/>
</clipPath>
</defs>
</svg>
