<svg width="24" height="24" viewBox="0 0 24 24" fill="none" xmlns="http://www.w3.org/2000/svg">
<path d="M17.9324 24H6.06637C2.7332 24 0 21.2742 0 17.9501V6.04986C0 2.72576 2.7332 0 6.06637 0H17.9324C21.2656 0 23.9988 2.72576 23.9988 6.04986V17.8837C24.0655 21.2742 21.3323 24 17.9324 24Z" fill="#2A70C8"/>
<path d="M18.399 10.5697C18.399 8.97409 17.1324 7.71094 15.5325 7.71094H8.26618C6.66626 7.71094 5.39966 8.97409 5.39966 10.5697V13.9602C5.39966 15.5558 6.66626 16.819 8.26618 16.819H15.5325C17.1324 16.819 18.399 15.5558 18.399 13.9602V10.5697ZM14.0659 12.4976L10.7994 14.0932C10.6661 14.1597 10.2661 14.0932 10.2661 13.8938V10.5697C10.2661 10.4367 10.7327 10.3037 10.8661 10.3702L13.9992 12.0987C14.0659 12.2317 14.1992 12.4312 14.0659 12.4976Z" fill="#FEC601"/>
</svg>
