<svg width="24" height="24" viewBox="0 0 24 24" fill="none" xmlns="http://www.w3.org/2000/svg">
<g clip-path="url(#clip0_254_380)">
<path d="M17.7042 16.4334C17.2092 15.9788 16.552 15.7256 15.8688 15.7266C15.1857 15.7275 14.5292 15.9824 14.0356 16.4384L12.4019 17.7675C11.0682 17.2347 9.85678 16.4528 8.83711 15.4666C7.81744 14.4803 7.00965 13.3093 6.46016 12.0207L7.83159 10.4483C8.30387 9.97176 8.5679 9.33788 8.56886 8.67829C8.56981 8.01871 8.30763 7.38411 7.83673 6.90626C7.83673 6.90626 6.2493 4.91592 6.22359 4.88944C5.73415 4.41429 5.07084 4.14399 4.37681 4.13686C3.68277 4.12974 3.01367 4.38637 2.51388 4.85137L1.52902 5.67895C-5.08812 12.4726 11.9862 28.9656 19.0147 22.479L19.7964 21.6108C20.2932 21.1299 20.5721 20.4784 20.5721 19.7992C20.5721 19.12 20.2932 18.4686 19.7964 17.9876C19.7682 17.9661 17.7042 16.4334 17.7042 16.4334Z" fill="#2A70C8"/>
</g>
<ellipse cx="17.1433" cy="6.62069" rx="6.85714" ry="6.62069" fill="#FEC601"/>
<path d="M16.4123 3.89875C16.3243 3.89875 16.2523 3.87172 16.1963 3.81765C16.1403 3.75585 16.1123 3.68247 16.1123 3.59751V2.51999C16.1123 2.43503 16.1403 2.36551 16.1963 2.31144C16.2603 2.24965 16.3323 2.21875 16.4123 2.21875H17.9123C18.0003 2.21875 18.0723 2.24965 18.1283 2.31144C18.1923 2.36551 18.2243 2.43503 18.2243 2.51999V3.59751C18.2243 3.68247 18.1923 3.75585 18.1283 3.81765C18.0723 3.87172 18.0003 3.89875 17.9123 3.89875H16.4123ZM16.4123 10.7578C16.3323 10.7578 16.2603 10.7308 16.1963 10.6767C16.1403 10.6149 16.1123 10.5454 16.1123 10.4681V5.02261C16.1123 4.93765 16.1403 4.86813 16.1963 4.81406C16.2603 4.75999 16.3323 4.73296 16.4123 4.73296H17.9123C18.0003 4.73296 18.0723 4.75999 18.1283 4.81406C18.1923 4.86813 18.2243 4.93765 18.2243 5.02261V10.4681C18.2243 10.5531 18.1923 10.6226 18.1283 10.6767C18.0723 10.7308 18.0003 10.7578 17.9123 10.7578H16.4123Z" fill="#2A70C8"/>
<defs>
<clipPath id="clip0_254_380">
<rect width="20.5714" height="19.8621" fill="white" transform="translate(0 4.13867)"/>
</clipPath>
</defs>
</svg>
