<svg width="16" height="16" viewBox="0 0 16 16" fill="none" xmlns="http://www.w3.org/2000/svg">
<g clip-path="url(#clip0_280_3265)">
<path d="M11.1013 10.3653C11.2687 10.5683 11.3493 10.8292 11.3257 11.0912C11.3021 11.3533 11.1762 11.5955 10.9753 11.7653C10.3197 12.3043 9.5093 12.6201 8.66192 12.6667C8.12589 12.6613 7.6099 12.4622 7.20925 12.106C7.15922 12.0642 7.10668 12.0254 7.05192 11.99C6.78323 12.0885 6.53473 12.2351 6.31858 12.4227C6.11792 12.5923 5.85858 12.6761 5.59663 12.656C5.33468 12.6359 5.09116 12.5135 4.91871 12.3153C4.74626 12.1171 4.65874 11.859 4.67506 11.5968C4.69137 11.3346 4.81023 11.0893 5.00592 10.914C5.58372 10.3924 6.31481 10.0718 7.08992 10C7.59082 10.0096 8.07161 10.1989 8.44458 10.5333C8.61525 10.6667 8.62458 10.6667 8.66192 10.6667C9.041 10.6216 9.39954 10.47 9.69592 10.2293C9.90048 10.0614 10.1633 9.98147 10.4267 10.007C10.6901 10.0325 10.9327 10.1613 11.1013 10.3653ZM10.3333 6.66668H5.66658C5.40137 6.66668 5.14701 6.77204 4.95948 6.95957C4.77194 7.14711 4.66658 7.40146 4.66658 7.66668C4.66658 7.9319 4.77194 8.18625 4.95948 8.37379C5.14701 8.56132 5.40137 8.66668 5.66658 8.66668H10.3333C10.5985 8.66668 10.8528 8.56132 11.0404 8.37379C11.2279 8.18625 11.3333 7.9319 11.3333 7.66668C11.3333 7.40146 11.2279 7.14711 11.0404 6.95957C10.8528 6.77204 10.5985 6.66668 10.3333 6.66668ZM14.6666 4.77135V12.3333C14.6655 13.3055 14.2789 14.2375 13.5915 14.9249C12.9041 15.6123 11.9721 15.999 10.9999 16H4.99992C4.02778 15.999 3.09577 15.6123 2.40836 14.9249C1.72096 14.2375 1.33431 13.3055 1.33325 12.3333V3.66668C1.33431 2.69454 1.72096 1.76253 2.40836 1.07512C3.09577 0.38772 4.02778 0.00107205 4.99992 1.32674e-05H9.89525C10.377 -0.00128678 10.8541 0.092967 11.2992 0.277319C11.7442 0.461671 12.1482 0.732461 12.4879 1.07401L13.5926 2.17868C13.9341 2.51836 14.2049 2.9224 14.3893 3.36744C14.5736 3.81247 14.6679 4.28964 14.6666 4.77135ZM12.6666 12.3333V4.66668H11.3333C10.9796 4.66668 10.6405 4.5262 10.3904 4.27616C10.1404 4.02611 9.99992 3.68697 9.99992 3.33335V2.00001H4.99992C4.55789 2.00001 4.13397 2.17561 3.82141 2.48817C3.50885 2.80073 3.33325 3.22465 3.33325 3.66668V12.3333C3.33325 12.7754 3.50885 13.1993 3.82141 13.5119C4.13397 13.8244 4.55789 14 4.99992 14H10.9999C11.4419 14 11.8659 13.8244 12.1784 13.5119C12.491 13.1993 12.6666 12.7754 12.6666 12.3333Z" fill="#2A70C8"/>
</g>
<defs>
<clipPath id="clip0_280_3265">
<rect width="16" height="16" fill="white"/>
</clipPath>
</defs>
</svg>
