<svg width="16" height="16" viewBox="0 0 16 16" fill="none" xmlns="http://www.w3.org/2000/svg">
<g clip-path="url(#clip0_280_3267)">
<path d="M7.66667 10.6667C7.40145 10.6667 7.1471 10.772 6.95956 10.9596C6.77202 11.1471 6.66667 11.4015 6.66667 11.6667V12.2C6.66667 12.6774 6.47702 13.1352 6.13946 13.4728C5.80189 13.8104 5.34406 14 4.86667 14H3.8C3.32261 14 2.86477 13.8104 2.52721 13.4728C2.18964 13.1352 2 12.6774 2 12.2V3.8C2 3.32261 2.18964 2.86477 2.52721 2.52721C2.86477 2.18964 3.32261 2 3.8 2H4.86667C5.34406 2 5.80189 2.18964 6.13946 2.52721C6.47702 2.86477 6.66667 3.32261 6.66667 3.8V4.33333C6.66667 4.59855 6.77202 4.8529 6.95956 5.04044C7.1471 5.22798 7.40145 5.33333 7.66667 5.33333C7.93188 5.33333 8.18624 5.22798 8.37377 5.04044C8.56131 4.8529 8.66667 4.59855 8.66667 4.33333V3.8C8.66561 2.7925 8.26491 1.82657 7.5525 1.11416C6.84009 0.401755 5.87416 0.00105885 4.86667 0L3.8 0C2.7925 0.00105885 1.82657 0.401755 1.11416 1.11416C0.401755 1.82657 0.00105885 2.7925 0 3.8L0 12.2C0.00105885 13.2075 0.401755 14.1734 1.11416 14.8858C1.82657 15.5982 2.7925 15.9989 3.8 16H4.86667C5.87416 15.9989 6.84009 15.5982 7.5525 14.8858C8.26491 14.1734 8.66561 13.2075 8.66667 12.2V11.6667C8.66667 11.4015 8.56131 11.1471 8.37377 10.9596C8.18624 10.772 7.93188 10.6667 7.66667 10.6667Z" fill="#2A70C8"/>
<path d="M15.0405 6.35008L11.9832 3.29275C11.8903 3.19991 11.78 3.12627 11.6587 3.07604C11.5373 3.02581 11.4073 2.99997 11.2759 3C11.1446 3.00003 11.0146 3.02593 10.8932 3.07622C10.7719 3.1265 10.6617 3.2002 10.5688 3.29308C10.3813 3.48068 10.276 3.73508 10.2761 4.00032C10.2761 4.13165 10.302 4.26169 10.3523 4.38302C10.4026 4.50434 10.4763 4.61457 10.5692 4.70742L12.8432 6.98142L4.6665 7.00008C4.40129 7.00008 4.14693 7.10544 3.9594 7.29298C3.77186 7.48051 3.6665 7.73487 3.6665 8.00009C3.6665 8.2653 3.77186 8.51966 3.9594 8.70719C4.14693 8.89473 4.40129 9.00009 4.6665 9.00009L12.8785 8.98142L10.5672 11.2928C10.3796 11.4803 10.2741 11.7346 10.2741 11.9999C10.274 12.2651 10.3793 12.5195 10.5668 12.7071C10.7543 12.8947 11.0087 13.0001 11.2739 13.0002C11.5392 13.0002 11.7936 12.8949 11.9812 12.7074L15.0385 9.65009C15.4756 9.21233 15.7213 8.61911 15.7216 8.0005C15.722 7.38189 15.4771 6.78837 15.0405 6.35008Z" fill="#2A70C8"/>
</g>
<defs>
<clipPath id="clip0_280_3267">
<rect width="16" height="16" fill="white"/>
</clipPath>
</defs>
</svg>
