<svg width="24" height="24" viewBox="0 0 24 24" fill="none" xmlns="http://www.w3.org/2000/svg">
<g clip-path="url(#clip0_254_390)">
<path d="M18.5892 0.000151099H5.41124C3.98899 -0.0105102 2.62057 0.543393 1.60618 1.54035C0.59178 2.53731 0.0142391 3.89592 0.000244141 5.31815L0.000244141 7.18215C0.000244141 7.57998 0.158279 7.96151 0.439584 8.24281C0.720888 8.52412 1.10242 8.68215 1.50024 8.68215C1.89807 8.68215 2.2796 8.52412 2.5609 8.24281C2.84221 7.96151 3.00024 7.57998 3.00024 7.18215V5.31815C3.01364 4.6914 3.27491 4.0955 3.72683 3.66102C4.17874 3.22654 4.78445 2.98889 5.41124 3.00015H18.5892C19.216 2.98889 19.8217 3.22654 20.2737 3.66102C20.7256 4.0955 20.9868 4.6914 21.0002 5.31815V18.6822C20.9868 19.3089 20.7256 19.9048 20.2737 20.3393C19.8217 20.7738 19.216 21.0114 18.5892 21.0002H5.41124C4.78445 21.0114 4.17874 20.7738 3.72683 20.3393C3.27491 19.9048 3.01364 19.3089 3.00024 18.6822V16.8182C3.00024 16.4203 2.84221 16.0388 2.5609 15.7575C2.2796 15.4762 1.89807 15.3182 1.50024 15.3182C1.10242 15.3182 0.720888 15.4762 0.439584 15.7575C0.158279 16.0388 0.000244141 16.4203 0.000244141 16.8182L0.000244141 18.6822C0.0142391 20.1044 0.59178 21.463 1.60618 22.4599C2.62057 23.4569 3.98899 24.0108 5.41124 24.0002H18.5892C20.0115 24.0108 21.3799 23.4569 22.3943 22.4599C23.4087 21.463 23.9862 20.1044 24.0002 18.6822V5.31815C23.9862 3.89592 23.4087 2.53731 22.3943 1.54035C21.3799 0.543393 20.0115 -0.0105102 18.5892 0.000151099Z" fill="#FEC601"/>
<path d="M3.50024 12.0001C3.50024 12.398 3.65828 12.7795 3.93958 13.0608C4.22089 13.3421 4.60242 13.5001 5.00024 13.5001L14.9752 13.4731L11.5092 16.9391C11.2278 17.2204 11.0697 17.6019 11.0696 17.9998C11.0695 18.3976 11.2275 18.7792 11.5087 19.0606C11.79 19.342 12.1715 19.5002 12.5694 19.5003C12.9672 19.5003 13.3488 19.3424 13.6302 19.0611L18.2162 14.4751C18.5413 14.1501 18.7991 13.7643 18.975 13.3396C19.151 12.9149 19.2415 12.4598 19.2415 12.0001C19.2415 11.5405 19.151 11.0853 18.975 10.6607C18.7991 10.236 18.5413 9.85014 18.2162 9.52513L13.6342 4.93913C13.4949 4.79986 13.3295 4.6894 13.1475 4.61405C12.9655 4.53871 12.7704 4.49995 12.5734 4.5C12.3764 4.50005 12.1813 4.53889 11.9993 4.61433C11.8174 4.68976 11.652 4.80029 11.5127 4.93963C11.2315 5.22102 11.0735 5.60262 11.0736 6.00048C11.0737 6.19748 11.1125 6.39254 11.1879 6.57453C11.2634 6.75651 11.3739 6.92186 11.5132 7.06113L14.9262 10.4731L5.00024 10.5001C4.60242 10.5001 4.22089 10.6582 3.93958 10.9395C3.65828 11.2208 3.50024 11.6023 3.50024 12.0001Z" fill="#FEC601"/>
</g>
<defs>
<clipPath id="clip0_254_390">
<rect width="24" height="24" fill="white" transform="translate(0.000244141)"/>
</clipPath>
</defs>
</svg>
