<svg width="24" height="24" viewBox="0 0 24 24" fill="none" xmlns="http://www.w3.org/2000/svg">
<circle cx="12.0002" cy="12" r="12" fill="#2A70C8"/>
<path d="M11.6353 13.3441C8.79426 13.6009 6.62976 16.0016 6.66748 18.854V18.9986C6.66748 19.5509 7.11518 19.9986 7.66745 19.9986C8.21971 19.9986 8.66742 19.5509 8.66742 18.9986V18.814C8.63735 17.0626 9.92981 15.5691 11.6673 15.3474C13.5014 15.1655 15.1357 16.5049 15.3176 18.339C15.3283 18.4475 15.3338 18.5563 15.3339 18.6653V18.9986C15.3339 19.5509 15.7816 19.9986 16.3338 19.9986C16.8861 19.9986 17.3338 19.5509 17.3338 18.9986V18.6653C17.3306 15.7166 14.9375 13.3288 11.9887 13.332C11.8708 13.3322 11.7529 13.3362 11.6353 13.3441Z" fill="#FEC601"/>
<path d="M12.0006 11.9997C14.2097 11.9997 16.0005 10.2089 16.0005 7.99987C16.0005 5.79082 14.2097 4 12.0006 4C9.79155 4 8.00073 5.79082 8.00073 7.99987C8.00295 10.208 9.79246 11.9975 12.0006 11.9997ZM12.0006 5.99994C13.1051 5.99994 14.0005 6.89535 14.0005 7.99987C14.0005 9.1044 13.1051 9.99981 12.0006 9.99981C10.8961 9.99981 10.0007 9.1044 10.0007 7.99987C10.0007 6.89535 10.8961 5.99994 12.0006 5.99994Z" fill="#FEC601"/>
</svg>
