<svg width="77" height="77" viewBox="0 0 77 77" fill="none" xmlns="http://www.w3.org/2000/svg">
<circle cx="38.5" cy="38.5" r="38.5" fill="#0073C3"/>
<g clip-path="url(#clip0_6207_1105)">
<path d="M60.8097 31.739C60.5647 30.5897 59.5302 29.7141 58.3051 29.7141H18.4231C17.4431 29.7141 16.5991 30.2614 16.1636 31.0549L38.6227 49.2242L60.8097 31.739Z" fill="#373742"/>
<path d="M38.4867 31.9032L60.7009 31.0823L38.4867 9.10945V9L38.4323 9.05473L38.3778 9V9.10945L16.1909 31.0823L38.3778 31.9032H38.4323H38.4867Z" fill="#373742"/>
<path d="M55.991 20.4653H20.9819V54.3413H55.991V20.4653Z" fill="#FFFFFA"/>
<path d="M49.9473 27.3062H27.0254V28.7564H49.9473V27.3062Z" fill="#373742"/>
<path d="M49.9473 32.7241H27.0254V34.1744H49.9473V32.7241Z" fill="#373742"/>
<path d="M38.7586 45.0376L16.2995 31.0823C16.1089 31.438 16 31.8485 16 32.3136V57.7343C16 58.4457 16.2995 59.1024 16.7623 59.5676L38.7586 45.0376Z" fill="#FEC601"/>
<path d="M16.7622 59.5402C17.225 60.0054 17.8511 60.279 18.5589 60.279H58.441C59.1488 60.279 59.7749 60.0054 60.2377 59.5402L38.7586 45.0103L16.7622 59.5402Z" fill="#CE1127"/>
<path d="M61.1869 32L39 45.2986L60.4791 59.8012C60.9419 59.3361 61.2414 58.6793 61.2414 57.9679V32.5746C61.2414 32.3831 61.2142 32.1915 61.1869 32Z" fill="#FEC601"/>
</g>
<defs>
<clipPath id="clip0_6207_1105">
<rect width="45" height="51.2791" fill="white" transform="translate(16 9)"/>
</clipPath>
</defs>
</svg>
