<svg width="77" height="77" viewBox="0 0 77 77" fill="none" xmlns="http://www.w3.org/2000/svg">
<circle cx="38.5" cy="38.5" r="38.5" fill="#FEC601"/>
<g clip-path="url(#clip0_6207_1090)">
<path d="M50.8509 42.6589H26.9834L24 63H53.8594L50.8509 42.6589Z" fill="white"/>
<path d="M27.3594 60.0761L29.5155 45.5828H48.3437L50.4747 60.0761H27.3594Z" fill="#373742"/>
<path d="M38.9424 55.8667C40.2301 55.8667 41.274 54.8172 41.274 53.5226C41.274 52.228 40.2301 51.1785 38.9424 51.1785C37.6547 51.1785 36.6108 52.228 36.6108 53.5226C36.6108 54.8172 37.6547 55.8667 38.9424 55.8667Z" fill="#0073C3"/>
<path d="M39.0676 36.9373C44.6199 36.9373 49.121 32.2201 49.121 26.4012C49.121 20.5824 44.6199 15.8652 39.0676 15.8652C33.5152 15.8652 29.0142 20.5824 29.0142 26.4012C29.0142 32.2201 33.5152 36.9373 39.0676 36.9373Z" fill="#FFFFFA"/>
<path d="M38.9924 14C31.7219 14 25.8052 19.9234 25.8052 27.2582C25.8052 34.5679 38.9924 53.7495 38.9924 53.7495C38.9924 53.7495 52.1797 34.5679 52.1797 27.2582C52.1546 19.9234 46.263 14 38.9924 14ZM38.9924 34.089C34.7304 34.089 31.2706 30.6358 31.2706 26.3508C31.2706 22.0658 34.7304 18.5874 38.9924 18.5874C43.2545 18.5874 46.7143 22.0658 46.7143 26.3508C46.6892 30.6358 43.2545 34.089 38.9924 34.089Z" fill="#CE1127"/>
</g>
<defs>
<clipPath id="clip0_6207_1090">
<rect width="29.8594" height="49" fill="white" transform="translate(24 14)"/>
</clipPath>
</defs>
</svg>
