<svg width="77" height="77" viewBox="0 0 77 77" fill="none" xmlns="http://www.w3.org/2000/svg">
<circle cx="38.5" cy="38.5" r="38.5" fill="#CE1127"/>
<g clip-path="url(#clip0_6211_1170)">
<path d="M19.0363 29.8258C22.3764 29.2743 26.5971 28.2327 28.8137 27.2217C28.8137 27.1297 28.8137 27.0378 28.8137 26.9459C26.5971 27.9263 22.3764 28.9679 19.0363 29.55C17.4878 29.8258 16.5768 29.8564 16.0303 29.7951L16.3339 30.1015C16.8805 30.1015 17.7307 30.0402 19.0363 29.8258Z" fill="#C83222"/>
<path d="M48.7026 28.1714C49.8564 28.2633 51.071 28.2939 52.1641 28.5697C52.9536 28.7841 53.1054 30.1628 53.2876 30.8061C53.4091 31.2657 53.5002 31.6946 53.6216 32.1542C53.7431 32.1848 53.8038 32.2154 53.8645 32.2461C54.5022 32.5831 58.1155 33.686 59.3909 32.7669C60.484 31.9703 60.8483 31.0819 60.9394 30.0096C60.3929 30.1015 59.4819 30.0402 57.9334 29.7645C54.5933 29.213 50.3726 28.1714 48.156 27.1604C48.156 27.0685 48.156 26.9766 48.156 26.8846C48.1257 27.2829 48.0953 27.7118 48.0649 28.0795C48.3079 28.1408 48.5204 28.1714 48.7026 28.1714Z" fill="#0073C3"/>
<path d="M17.3057 32.5831L16.7896 32.0623C16.9414 32.2461 17.0932 32.4299 17.3057 32.5831Z" fill="#FCFEFE"/>
<path d="M23.1052 32.2767C23.1659 32.2461 23.257 32.2154 23.3481 32.1542V32.1235C23.5606 31.1432 23.7428 28.8148 24.927 28.539C26.2023 28.2633 27.5384 28.1714 28.8744 28.1101C28.844 27.7425 28.8137 27.3442 28.7833 26.9153C28.7833 27.0072 28.7833 27.0991 28.7833 27.191C26.5971 28.202 22.3764 29.2743 19.0363 29.8258C17.4878 30.1015 16.5768 30.1321 16.0303 30.0709C16.091 30.8062 16.3036 31.4802 16.7894 32.0929L17.3056 32.6137C17.3967 32.675 17.4878 32.7669 17.5789 32.8282C18.8542 33.7166 22.4675 32.6137 23.1052 32.2767Z" fill="#0073C3"/>
<path d="M55.8682 44.4701C55.7771 43.8574 55.6556 43.1834 55.5342 42.4175C55.6253 42.9996 55.7164 43.5817 55.8075 44.1638C55.8075 44.2251 55.8378 44.3476 55.8682 44.4701Z" fill="#D30209"/>
<path d="M56.233 47.5032C56.2634 47.4726 56.2634 47.442 56.2937 47.3501C56.2937 47.3194 56.2937 47.2888 56.2937 47.2582C56.2937 47.2275 56.2937 47.1969 56.2937 47.1662C56.2937 47.1969 56.2937 47.1969 56.2937 47.2275C56.2937 47.1662 56.2937 47.0743 56.2937 46.9824C56.2937 47.1969 56.2634 47.3807 56.2026 47.5339C56.2026 47.5032 56.233 47.5032 56.233 47.5032Z" fill="#68B19B"/>
<path d="M20.8281 48.0853C20.8585 48.116 20.8585 48.116 20.8281 48.0853V48.0853Z" fill="#FCFEFE"/>
<path d="M56.2935 47.1969C56.2935 47.2582 56.2935 47.2888 56.2935 47.3194C56.2935 47.5645 56.2935 47.7177 56.2327 47.7484C56.2327 47.7484 56.2024 47.7484 56.2024 47.779C56.1113 47.9935 55.9898 48.116 55.7773 48.116C55.1092 48.116 54.4716 48.0547 53.8036 48.0547C51.2226 48.1466 48.6416 48.2079 46.0607 48.2998L34.9777 48.4224C34.3097 48.3917 33.6416 48.3917 32.9736 48.3611C30.6356 48.2998 28.2671 48.2079 25.9291 48.1466C24.9574 48.116 23.9554 48.0854 22.9837 48.0547C22.3461 48.0241 21.3137 48.3917 20.7975 48.0547C20.7064 47.9935 20.6761 47.8096 20.6761 47.5339C20.1902 50.3525 19.0667 56.4798 20.4028 58.5019C21.4048 60.0337 36.1922 59.7273 38.5303 59.6967C39.3198 59.6967 41.5667 59.758 44.2388 59.7273C49.3704 59.6967 56.0202 59.5129 56.6882 58.5019C57.9939 56.3879 56.7489 49.8317 56.2935 47.1969ZM20.8279 48.0854C20.8582 48.116 20.8582 48.116 20.8279 48.0854V48.0854Z" fill="#0073C3"/>
<path d="M20.8281 47.8096C20.8585 47.8402 20.8585 47.8402 20.8281 47.8096V47.8096Z" fill="#D30209"/>
<path d="M55.8381 44.4396C55.8381 44.4396 55.8685 44.5928 55.9292 44.8379C55.8988 44.7153 55.8685 44.5928 55.8381 44.4396C55.8381 44.317 55.8077 44.2251 55.7774 44.1332C55.6863 43.5511 55.5952 42.969 55.5041 42.3869C55.4737 42.2644 55.4737 42.1112 55.4434 41.9886C55.6863 43.4898 55.8381 44.4396 55.8381 44.4396Z" fill="#7E4112"/>
<path d="M21.1619 44.4396C21.1619 44.4396 21.3137 43.4899 21.5263 42.0193C21.3441 43.0916 21.1923 44.0719 21.0708 44.8379C21.1315 44.5928 21.1619 44.4396 21.1619 44.4396Z" fill="#7E4112"/>
<path d="M56.2632 47.0437C56.2025 46.3697 56.0203 45.3894 55.9292 44.8379C56.0507 45.6038 56.1418 46.1859 56.1721 46.4616C56.2025 46.6455 56.2328 46.8293 56.2632 47.0437Z" fill="#7E4112"/>
<path d="M20.8279 46.4923C20.8583 46.2165 20.9494 45.6344 21.0708 44.8685C20.9797 45.42 20.7975 46.4004 20.7368 47.0744C20.7672 46.8293 20.7975 46.6455 20.8279 46.4923Z" fill="#7E4112"/>
<path d="M56.2933 46.9518C56.2933 46.9211 56.2933 46.8905 56.2933 46.8599C56.2933 46.8292 56.2933 46.7986 56.2933 46.7679C56.2629 46.8292 56.2629 46.8905 56.2933 46.9518Z" fill="#D30209"/>
<path d="M32.4574 42.1111H34.7651C34.9169 42.1111 35.0383 41.9886 35.0383 41.8354V40.1197C35.0383 39.9665 34.9169 39.844 34.7651 39.844H32.4574C32.3055 39.844 32.1841 39.9665 32.1841 40.1197V41.8354C32.1841 41.9886 32.3055 42.1111 32.4574 42.1111Z" fill="#0073C3"/>
<path d="M37.2552 42.1111H39.5629C39.7147 42.1111 39.8362 41.9886 39.8362 41.8354V40.1197C39.8362 39.9665 39.7147 39.844 39.5629 39.844H37.2552C37.1034 39.844 36.9819 39.9665 36.9819 40.1197V41.8354C36.9819 41.9886 37.1034 42.1111 37.2552 42.1111Z" fill="#0073C3"/>
<path d="M44.5424 39.8134H42.2347C42.0829 39.8134 41.9614 39.9359 41.9614 40.0891V41.8047C41.9614 41.9579 42.0829 42.0805 42.2347 42.0805H44.5424C44.6942 42.0805 44.8157 41.9579 44.8157 41.8047V40.0891C44.8157 39.9359 44.6942 39.8134 44.5424 39.8134Z" fill="#0073C3"/>
<path d="M32.4574 38.6186H34.7651C34.9169 38.6186 35.0383 38.496 35.0383 38.3428V36.6272C35.0383 36.474 34.9169 36.3514 34.7651 36.3514H32.4574C32.3055 36.3514 32.1841 36.474 32.1841 36.6272V38.3428C32.1841 38.496 32.3055 38.6186 32.4574 38.6186Z" fill="#0073C3"/>
<path d="M37.2552 38.6186H39.5629C39.7147 38.6186 39.8362 38.496 39.8362 38.3428V36.6272C39.8362 36.474 39.7147 36.3514 39.5629 36.3514H37.2552C37.1034 36.3514 36.9819 36.474 36.9819 36.6272V38.3428C36.9819 38.496 37.1034 38.6186 37.2552 38.6186Z" fill="#0073C3"/>
<path d="M44.5424 36.3208H42.2347C42.0829 36.3208 41.9614 36.4433 41.9614 36.5965V38.3122C41.9614 38.4654 42.0829 38.5879 42.2347 38.5879H44.5424C44.6942 38.5879 44.8157 38.4654 44.8157 38.3122V36.5965C44.8157 36.474 44.6942 36.3208 44.5424 36.3208Z" fill="#0073C3"/>
<path d="M32.4574 35.126H34.7651C34.9169 35.126 35.0383 35.0035 35.0383 34.8503V33.1346C35.0383 32.9814 34.9169 32.8589 34.7651 32.8589H32.4574C32.3055 32.8589 32.1841 32.9814 32.1841 33.1346V34.8503C32.1841 35.0035 32.3055 35.126 32.4574 35.126Z" fill="#0073C3"/>
<path d="M37.2552 35.126H39.5629C39.7147 35.126 39.8362 35.0035 39.8362 34.8503V33.1346C39.8362 32.9814 39.7147 32.8589 39.5629 32.8589H37.2552C37.1034 32.8589 36.9819 32.9814 36.9819 33.1346V34.8503C36.9819 35.0035 37.1034 35.126 37.2552 35.126Z" fill="#0073C3"/>
<path d="M44.5424 32.8589H42.2347C42.0829 32.8589 41.9614 32.9814 41.9614 33.1346V34.8503C41.9614 35.0035 42.0829 35.126 42.2347 35.126H44.5424C44.6942 35.126 44.8157 35.0035 44.8157 34.8503V33.1346C44.8157 32.9814 44.6942 32.8589 44.5424 32.8589Z" fill="#0073C3"/>
<path d="M32.4574 31.6335H34.7651C34.9169 31.6335 35.0383 31.5109 35.0383 31.3577V29.6421C35.0383 29.4889 34.9169 29.3663 34.7651 29.3663H32.4574C32.3055 29.3663 32.1841 29.4889 32.1841 29.6421V31.3577C32.1841 31.5109 32.3055 31.6335 32.4574 31.6335Z" fill="#0073C3"/>
<path d="M37.2552 31.6335H39.5629C39.7147 31.6335 39.8362 31.5109 39.8362 31.3577V29.6421C39.8362 29.4889 39.7147 29.3663 39.5629 29.3663H37.2552C37.1034 29.3663 36.9819 29.4889 36.9819 29.6421V31.3577C36.9819 31.5109 37.1034 31.6335 37.2552 31.6335Z" fill="#0073C3"/>
<path d="M44.5424 29.3663H42.2347C42.0829 29.3663 41.9614 29.4889 41.9614 29.6421V31.3577C41.9614 31.5109 42.0829 31.6335 42.2347 31.6335H44.5424C44.6942 31.6335 44.8157 31.5109 44.8157 31.3577V29.6421C44.8157 29.4889 44.6942 29.3663 44.5424 29.3663Z" fill="#0073C3"/>
<path fill-rule="evenodd" clip-rule="evenodd" d="M38.5 18C25.9595 17.908 20.2814 20.7879 18.3077 22.1053C16.8198 23.0857 16 28.1407 16 29.4581V29.7951H16.0304C16.5769 29.887 17.4879 29.8257 19.0364 29.55C22.3765 28.9986 26.5972 27.9569 28.8138 26.9459V26.6702C28.753 25.4753 28.7834 24.3111 29.1781 23.7597C29.1933 23.729 29.2161 23.706 29.2389 23.6831C29.2616 23.6601 29.2844 23.6371 29.2996 23.6065C29.3603 22.8406 29.4514 22.2585 29.5729 22.0746C29.998 21.4313 32.2753 21.8602 32.2753 21.8602L32.336 23.1163L32.6985 23.141C34.0447 23.2332 35.9166 23.3614 38.5 23.3614C41.0223 23.3614 42.8762 23.2365 44.2406 23.1446L44.2413 23.1446C44.3877 23.1347 44.5286 23.1252 44.664 23.1163L44.7247 21.8602C44.7247 21.8602 47.002 21.4313 47.4271 22.0746C47.5486 22.2585 47.6397 22.8406 47.7004 23.6065L47.8219 23.729C48.247 24.2805 48.247 25.4447 48.1862 26.6395V26.9153C50.4028 27.8956 54.6235 28.9373 57.9636 29.5194C59.5121 29.7951 60.4231 29.8257 60.9696 29.7645H61V29.4275V29.3969V29.3952V29.3662L60.9992 29.3654C60.9578 27.9443 60.1691 23.048 58.6923 22.1054C57.5385 21.3395 55.1093 20.0527 50.7976 19.103L50.7976 19.1029C47.7308 18.4289 43.6923 17.9693 38.5 18ZM29.33 23.6372C29.2086 25.1995 29.1782 27.4357 29.1782 28.11L29.1477 28.1102L29.1477 28.294V28.0795H28.9048C28.9351 28.4165 28.9351 28.7229 28.9351 28.968C32.7003 28.8148 38.4999 28.7229 38.4999 28.7229C38.4886 28.7231 32.6968 28.815 28.9353 29.0293C28.9353 28.895 28.9281 28.7535 28.9208 28.6083L28.9208 28.6083V28.6082V28.6082V28.6082V28.6082V28.6082V28.6081V28.6081V28.6081L28.9208 28.6081C28.913 28.4551 28.905 28.2979 28.905 28.1408C27.5993 28.2021 26.2329 28.294 24.9576 28.5697C23.9485 28.7988 23.673 30.4448 23.4868 31.5574L23.4868 31.5574L23.4868 31.5574C23.4488 31.7839 23.4146 31.9884 23.3787 32.1542V32.1739L23.3482 32.1848C22.9231 33.9924 22.5891 35.8 22.2551 37.6075L22.2806 37.6333C22.0701 38.7578 21.8893 39.8526 21.7085 40.9776C21.693 41.0948 21.6183 41.4608 21.5151 41.9666C21.2135 43.4448 20.6684 46.1168 20.6458 47.2582C20.6458 47.5339 20.6761 47.7483 20.7672 47.779C21.1188 48.0085 21.71 47.9254 22.2527 47.849H22.2527H22.2528H22.2528L22.2528 47.849L22.253 47.8489C22.5069 47.8132 22.7502 47.779 22.9534 47.779C23.4398 47.7943 23.9337 47.8096 24.4276 47.825C24.9205 47.8403 25.4135 47.8556 25.8988 47.8709L26.0716 47.8756C28.2625 47.9353 30.4807 47.9958 32.67 48.0853L32.6106 48.0253C32.9833 48.04 33.3561 48.0474 33.7326 48.0549L33.733 48.0549H33.7331C34.1126 48.0625 34.496 48.0702 34.8867 48.0854C38.2697 48.223 41.5792 48.138 44.9032 48.0527L44.9066 48.0526L44.9097 48.0525L44.9128 48.0524C45.2851 48.0429 45.6576 48.0333 46.0304 48.0241C47.3209 47.9781 48.6114 47.9398 49.9019 47.9015L49.9028 47.9015C51.193 47.8632 52.4832 47.8249 53.7733 47.779C54.154 47.7615 54.5247 47.7839 54.8968 47.8064H54.8969H54.8969H54.897H54.897H54.8971H54.8971H54.8972H54.8972H54.8973H54.8973H54.8973H54.8974H54.8974H54.8975H54.8975H54.8976H54.8976H54.8977H54.8977H54.8978L54.8979 47.8064C55.1785 47.8233 55.46 47.8403 55.747 47.8403C55.9596 47.8403 56.1114 47.7177 56.1721 47.5033C56.2329 47.3501 56.2632 47.1662 56.2632 46.9518V46.8599C56.2329 46.094 55.9899 45.0829 55.8381 44.4702C55.8533 44.5315 55.8609 44.5928 55.8685 44.654C55.8761 44.7153 55.8837 44.7766 55.8988 44.8379C55.8381 44.5928 55.8078 44.4396 55.8078 44.4396C55.8078 44.4396 55.6802 43.616 55.4953 42.3463C55.4979 42.3601 55.5008 42.3737 55.5041 42.3869L55.4729 42.1796C55.4658 42.1156 55.4585 42.0518 55.4448 41.9945C54.9464 38.7126 54.3872 35.4328 53.6343 32.2087L53.6517 32.2155C53.5911 31.9861 53.538 31.7642 53.485 31.5424L53.4849 31.5422L53.4849 31.542L53.4848 31.5415C53.4316 31.3194 53.3785 31.0973 53.3177 30.8675C53.2882 30.7534 53.2595 30.6224 53.2288 30.4821L53.2287 30.4818C53.0696 29.7557 52.8558 28.7801 52.1943 28.6004C51.1964 28.3282 50.1266 28.2737 49.1126 28.2219L49.1121 28.2219C48.9847 28.2154 48.8581 28.2089 48.7327 28.2021C48.6264 28.2021 48.5202 28.1944 48.4139 28.1868C48.3076 28.1791 48.2013 28.1714 48.0951 28.1714L48.095 28.1723L29.1782 28.11L47.8466 28.1404L47.8522 28.1408V28.1404L48.0622 28.1407C47.9825 28.1404 47.9056 28.1371 47.8522 28.1102L47.8522 28.1404L47.8466 28.1404C42.1423 27.7357 36.4921 27.7133 30.7938 28.0216C36.4909 27.7131 42.1158 27.7341 47.8219 28.1102C47.8219 27.4365 47.7916 25.2022 47.6703 23.6093C47.6805 23.6184 47.6906 23.6277 47.7005 23.6372C47.6398 22.8713 47.5487 22.2892 47.4272 22.1054C47.0021 21.462 44.7248 21.8909 44.7248 21.8909L44.6641 23.147L44.5426 26.3639L38.5001 26.272L32.4576 26.3639L32.3361 23.1776L32.336 23.1777L32.2753 21.9215C32.2753 21.9215 29.9979 21.4926 29.5728 22.136C29.4514 22.3198 29.3603 22.9019 29.2996 23.6678C29.8095 23.0928 30.6454 23.0858 32.2756 23.1744C30.6462 23.0866 29.84 23.1227 29.33 23.6372ZM55.4448 41.9945L55.4434 41.9886L55.4789 42.2338L55.4738 42.1878L55.4729 42.1796L55.4448 41.9945ZM55.8988 44.8379C55.9173 44.9495 55.9395 45.0787 55.9636 45.2194L55.9636 45.2195C56.0588 45.7738 56.1844 46.5062 56.2329 47.0437C56.2025 46.8292 56.1721 46.6148 56.1418 46.4616C56.1114 46.1859 56.0203 45.6038 55.8988 44.8379ZM51.1315 29.4276C51.2511 29.5482 51.459 30.3223 51.6972 31.4866L51.6783 31.4802L51.6782 31.4802L51.687 31.523L51.6734 31.5182C51.4325 30.3363 51.2219 29.5493 51.1012 29.4275C51.083 29.4055 51.0491 29.3844 51.0007 29.364C51.0656 29.3846 51.1099 29.4058 51.1315 29.4276ZM31.3634 46.7976L31.332 46.766L24.5931 46.5535C24.5931 46.5535 23.1357 46.7067 22.9231 46.5535C22.7106 46.431 23.2571 43.643 23.2571 43.643C23.2571 43.643 23.4094 42.5675 23.6508 41.0026C23.3981 42.584 23.2267 43.6737 23.2267 43.6737C23.2267 43.6737 22.6802 46.431 22.8927 46.5841C23.1053 46.7373 24.5628 46.5841 24.5628 46.5841L31.3634 46.7976ZM25.2914 31.5415C24.8678 33.5871 24.3537 36.6978 23.9294 39.2662L23.9251 39.262L23.9209 39.2883L23.8949 39.2615C24.0173 38.5696 24.1442 37.8378 24.2725 37.0977C24.6205 35.0902 24.979 33.0216 25.2893 31.5218L25.322 31.5109L25.3243 31.4996C26.7184 31.0211 28.2809 30.467 28.7264 30.0497C28.2744 30.4743 26.6663 31.0602 25.2914 31.5415ZM37.255 29.3663C37.1032 29.3663 36.9817 29.4888 36.9817 29.642V31.3577C36.9817 31.5108 37.1032 31.6334 37.255 31.6334H39.5627C39.7145 31.6334 39.836 31.5108 39.836 31.3577V29.642C39.836 29.4888 39.7145 29.3663 39.5627 29.3663H37.255ZM39.5627 31.6947H37.255C37.236 31.6947 37.2175 31.6966 37.1997 31.7002C37.2175 31.6966 37.236 31.6947 37.255 31.6947H39.5627L39.5627 31.6947ZM39.727 31.7495C39.7933 31.7997 39.8359 31.8797 39.8359 31.9704V32.1849C39.8359 32.2385 39.821 32.2884 39.7952 32.3306C39.8211 32.2884 39.836 32.2385 39.836 32.1849V31.9704C39.836 31.8796 39.7933 31.7997 39.727 31.7495ZM37.255 32.8589C37.1032 32.8589 36.9817 32.9814 36.9817 33.1346V34.8503C36.9817 35.0034 37.1032 35.126 37.255 35.126H39.5627C39.7145 35.126 39.836 35.0034 39.836 34.8503V33.1346C39.836 32.9814 39.7145 32.8589 39.5627 32.8589H37.255ZM39.8359 35.463C39.8359 35.4388 39.8329 35.4154 39.8272 35.3932C39.8329 35.4154 39.836 35.4388 39.836 35.463V35.6774C39.836 35.7052 39.832 35.7319 39.8246 35.7571C39.832 35.7319 39.8359 35.7052 39.8359 35.6774V35.463ZM37.255 36.3515C37.1032 36.3515 36.9817 36.474 36.9817 36.6272V38.3428C36.9817 38.496 37.1032 38.6186 37.255 38.6186H39.5627C39.7145 38.6186 39.836 38.496 39.836 38.3428V36.6272C39.836 36.474 39.7145 36.3515 39.5627 36.3515H37.255ZM39.8271 38.8853C39.8329 38.9077 39.8359 38.9313 39.8359 38.9556V39.17C39.8359 39.3232 39.7145 39.4458 39.5627 39.4458H37.255L37.255 39.4458H37.255H39.5627C39.7145 39.4458 39.836 39.3232 39.836 39.17V38.9556C39.836 38.9313 39.8329 38.9077 39.8271 38.8853ZM37.255 39.8134C37.1032 39.8134 36.9817 39.936 36.9817 40.0891V41.8048C36.9817 41.958 37.1032 42.0805 37.255 42.0805H39.5627C39.7145 42.0805 39.836 41.958 39.836 41.8048V40.0891C39.836 39.936 39.7145 39.8134 39.5627 39.8134H37.255ZM39.836 42.4482C39.836 42.295 39.7145 42.1724 39.5627 42.1724H37.255L37.255 42.1725H39.5627C39.7145 42.1725 39.8359 42.295 39.8359 42.4482V42.6626C39.8359 42.6842 39.8335 42.7052 39.829 42.7252C39.8336 42.7052 39.836 42.6842 39.836 42.6626V42.4482ZM32.4574 29.3663C32.3056 29.3663 32.1842 29.4888 32.1842 29.642V31.3577C32.1842 31.5108 32.3056 31.6334 32.4574 31.6334H34.7651C34.917 31.6334 35.0384 31.5108 35.0384 31.3577V29.642C35.0384 29.4888 34.917 29.3663 34.7651 29.3663H32.4574ZM32.4574 31.6947C32.3056 31.6947 32.1842 31.8172 32.1842 31.9704V32.1849C32.1842 32.3351 32.301 32.4558 32.4487 32.4604C32.301 32.4557 32.1843 32.335 32.1843 32.1849V31.9704C32.1843 31.8172 32.3058 31.6947 32.4576 31.6947H34.7653L34.7651 31.6947H32.4574ZM32.4574 32.8589C32.3056 32.8589 32.1842 32.9814 32.1842 33.1346V34.8503C32.1842 35.0034 32.3056 35.126 32.4574 35.126H34.7651C34.917 35.126 35.0384 35.0034 35.0384 34.8503V33.1346C35.0384 32.9814 34.917 32.8589 34.7651 32.8589H32.4574ZM32.4557 35.1873C32.3047 35.1882 32.1842 35.3104 32.1842 35.463V35.6774C32.1842 35.8306 32.3056 35.9532 32.4574 35.9532L32.4576 35.9532C32.3058 35.9532 32.1843 35.8306 32.1843 35.6774V35.463C32.1843 35.3104 32.3048 35.1883 32.4557 35.1873ZM32.4574 36.3515C32.3056 36.3515 32.1842 36.474 32.1842 36.6272V38.3428C32.1842 38.496 32.3056 38.6186 32.4574 38.6186H34.7651C34.917 38.6186 35.0384 38.496 35.0384 38.3428V36.6272C35.0384 36.474 34.917 36.3515 34.7651 36.3515H32.4574ZM32.1842 38.9556C32.1842 38.8066 32.2991 38.6865 32.4451 38.6801C32.2992 38.6866 32.1843 38.8066 32.1843 38.9556V39.17C32.1843 39.3232 32.3058 39.4458 32.4576 39.4458H34.7653L34.7651 39.4458H32.4574C32.3056 39.4458 32.1842 39.3232 32.1842 39.17V38.9556ZM32.4574 39.8134C32.3056 39.8134 32.1842 39.936 32.1842 40.0891V41.8048C32.1842 41.958 32.3056 42.0805 32.4574 42.0805H34.7651C34.917 42.0805 35.0384 41.958 35.0384 41.8048V40.0891C35.0384 39.936 34.917 39.8134 34.7651 39.8134H32.4574ZM32.4574 42.1724C32.3056 42.1724 32.1842 42.295 32.1842 42.4482V42.6626C32.1842 42.8069 32.2918 42.9239 32.4312 42.9371C32.2919 42.9239 32.1843 42.8068 32.1843 42.6626V42.4482C32.1843 42.295 32.3058 42.1725 32.4576 42.1725H34.7653L34.7747 42.1726C34.7804 42.1728 34.786 42.1732 34.7916 42.1737C34.7829 42.1729 34.7741 42.1724 34.7651 42.1724H32.4574ZM44.5619 43.4292C44.5556 43.4288 44.5491 43.4286 44.5426 43.4286H32.4576C32.3058 43.4286 32.1843 43.5511 32.1843 43.7043V45.4506C32.1843 45.5972 32.2955 45.7157 32.4381 45.7256C32.2954 45.7158 32.1842 45.5972 32.1842 45.4506V43.7043C32.1842 43.5511 32.3056 43.4285 32.4574 43.4285H44.5425C44.549 43.4285 44.5555 43.4288 44.5619 43.4292ZM44.7754 42.8077C44.801 42.7656 44.8157 42.716 44.8157 42.6626V42.4482C44.8157 42.295 44.6943 42.1724 44.5425 42.1724H42.2348C42.2158 42.1724 42.1973 42.1744 42.1794 42.178C42.1973 42.1744 42.2157 42.1725 42.2347 42.1725H44.5424C44.6942 42.1725 44.8157 42.295 44.8157 42.4482V42.6626C44.8157 42.716 44.801 42.7656 44.7754 42.8077ZM44.5425 42.1112C44.6943 42.1112 44.8157 41.9886 44.8157 41.8354V40.1198C44.8157 39.9666 44.6943 39.844 44.5425 39.844H42.2348C42.0829 39.844 41.9615 39.9666 41.9615 40.1198V41.8354C41.9615 41.9886 42.0829 42.1112 42.2348 42.1112H44.5425ZM44.5425 39.4458C44.6943 39.4458 44.8157 39.3232 44.8157 39.17V38.9556C44.8157 38.9037 44.8018 38.8554 44.7775 38.8142C44.8018 38.8554 44.8157 38.9037 44.8157 38.9556V39.17C44.8157 39.3232 44.6942 39.4458 44.5424 39.4458H42.2347C42.2234 39.4458 42.2124 39.4451 42.2015 39.4438C42.2124 39.4451 42.2235 39.4458 42.2348 39.4458H44.5425ZM44.5425 38.6186C44.6943 38.6186 44.8157 38.496 44.8157 38.3428V36.6272C44.8157 36.474 44.6943 36.3515 44.5425 36.3515H42.2348C42.0829 36.3515 41.9615 36.474 41.9615 36.6272V38.3428C41.9615 38.496 42.0829 38.6186 42.2348 38.6186H44.5425ZM44.7477 35.8603C44.7901 35.8117 44.8157 35.7478 44.8157 35.6774V35.463C44.8157 35.4013 44.796 35.3446 44.7626 35.2988C44.796 35.3446 44.8157 35.4013 44.8157 35.463V35.6774C44.8157 35.7478 44.7901 35.8117 44.7477 35.8603ZM44.5425 35.126C44.6943 35.126 44.8157 35.0034 44.8157 34.8503V33.1346C44.8157 32.9814 44.6943 32.8589 44.5425 32.8589H42.2348C42.0829 32.8589 41.9615 32.9814 41.9615 33.1346V34.8503C41.9615 35.0034 42.0829 35.126 42.2348 35.126H44.5425ZM44.6556 32.4362C44.7504 32.3931 44.8157 32.2972 44.8157 32.1849V31.9704C44.8157 31.8172 44.6943 31.6947 44.5425 31.6947H42.2348C42.227 31.6947 42.2194 31.695 42.2119 31.6956C42.2194 31.695 42.227 31.6947 42.2347 31.6947H44.5424C44.6942 31.6947 44.8157 31.8172 44.8157 31.9704V32.1849C44.8157 32.2972 44.7503 32.3931 44.6556 32.4362ZM44.5425 31.6334C44.6943 31.6334 44.8157 31.5108 44.8157 31.3577V29.642C44.8157 29.4888 44.6943 29.3663 44.5425 29.3663H42.2348C42.0829 29.3663 41.9615 29.4888 41.9615 29.642V31.3577C41.9615 31.5108 42.0829 31.6334 42.2348 31.6334H44.5425ZM21.1619 44.4396C21.1619 44.4396 21.1316 44.5928 21.1012 44.8379C20.9494 45.6344 20.8583 46.1859 20.8279 46.4922C20.7976 46.6454 20.7672 46.8599 20.7368 47.0743L20.7368 47.0743C20.7931 46.4505 20.9533 45.5379 21.0491 44.9926L21.0709 44.8685L21.1392 44.4361C21.2478 43.7478 21.3768 42.9298 21.5263 42.0499C21.2834 43.4898 21.1619 44.4396 21.1619 44.4396Z" fill="#FEC601"/>
</g>
<defs>
<clipPath id="clip0_6211_1170">
<rect width="45" height="41.7273" fill="white" transform="translate(16 18)"/>
</clipPath>
</defs>
</svg>
