<svg width="24" height="24" viewBox="0 0 24 24" fill="none" xmlns="http://www.w3.org/2000/svg">
<g clip-path="url(#clip0_115_1170)">
<path d="M13.4998 2.115V1.5C13.4998 1.10218 13.3418 0.720644 13.0605 0.43934C12.7792 0.158035 12.3977 0 11.9998 0C11.602 0 11.2205 0.158035 10.9392 0.43934C10.6579 0.720644 10.4998 1.10218 10.4998 1.5V2.115C8.59219 2.37259 6.78594 3.1277 5.26256 4.30446C3.73918 5.48123 2.55234 7.03819 1.82128 8.81892C1.09021 10.5997 0.840688 12.5414 1.09777 14.4491C1.35485 16.3569 2.10948 18.1633 3.28583 19.687C2.87179 20.0273 2.54076 20.4575 2.31793 20.945C2.09509 21.4324 1.9863 21.9642 1.99983 22.5C1.99983 22.8978 2.15787 23.2794 2.43917 23.5607C2.72048 23.842 3.10201 24 3.49983 24C3.89766 24 4.27919 23.842 4.56049 23.5607C4.8418 23.2794 4.99983 22.8978 4.99983 22.5C4.98455 22.3514 5.02165 22.2021 5.10473 22.078C5.18781 21.9538 5.31164 21.8626 5.45483 21.82C7.34332 23.2341 9.63908 23.9984 11.9983 23.9984C14.3576 23.9984 16.6533 23.2341 18.5418 21.82C18.6856 21.862 18.8101 21.953 18.8938 22.0772C18.9774 22.2014 19.015 22.351 18.9998 22.5C18.9998 22.8978 19.1579 23.2794 19.4392 23.5607C19.7205 23.842 20.102 24 20.4998 24C20.8977 24 21.2792 23.842 21.5605 23.5607C21.8418 23.2794 21.9998 22.8978 21.9998 22.5C22.0134 21.9642 21.9046 21.4324 21.6817 20.945C21.4589 20.4575 21.1279 20.0273 20.7138 19.687C21.8902 18.1633 22.6448 16.3569 22.9019 14.4491C23.159 12.5414 22.9095 10.5997 22.1784 8.81892C21.4473 7.03819 20.2605 5.48123 18.7371 4.30446C17.2137 3.1277 15.4075 2.37259 13.4998 2.115ZM3.99983 13C3.99983 11.4177 4.46903 9.87103 5.34808 8.55544C6.22713 7.23984 7.47656 6.21447 8.93837 5.60896C10.4002 5.00346 12.0087 4.84504 13.5606 5.15372C15.1124 5.4624 16.5379 6.22433 17.6567 7.34315C18.7755 8.46197 19.5374 9.88743 19.8461 11.4393C20.1548 12.9911 19.9964 14.5997 19.3909 16.0615C18.7854 17.5233 17.76 18.7727 16.4444 19.6518C15.1288 20.5308 13.5821 21 11.9998 21C9.87883 20.9976 7.84538 20.154 6.34561 18.6542C4.84583 17.1544 4.00222 15.121 3.99983 13Z" fill="#2A70C8"/>
<path d="M19.5 -2.3529e-05C19.1022 -2.3529e-05 18.7206 0.158012 18.4393 0.439316C18.158 0.720621 18 1.10215 18 1.49998C18 1.8978 18.158 2.27933 18.4393 2.56064C18.7206 2.84194 19.1022 2.99998 19.5 2.99998C19.6991 2.98449 19.8992 3.01301 20.086 3.08351C20.2729 3.15402 20.4419 3.26478 20.5812 3.40793C20.7204 3.55109 20.8264 3.72313 20.8917 3.91186C20.957 4.10059 20.98 4.30138 20.959 4.49998C20.959 4.8978 21.117 5.27933 21.3983 5.56064C21.6796 5.84194 22.0612 5.99998 22.459 5.99998C22.8568 5.99998 23.2384 5.84194 23.5197 5.56064C23.801 5.27933 23.959 4.8978 23.959 4.49998C23.9822 3.9063 23.883 3.31421 23.6676 2.76048C23.4523 2.20676 23.1254 1.70324 22.7072 1.28121C22.289 0.859178 21.7885 0.527658 21.2368 0.307248C20.685 0.0868383 20.0939 -0.0177519 19.5 -2.3529e-05Z" fill="#2A70C8"/>
<path d="M3.04089 4.49998C3.01989 4.30138 3.04286 4.10059 3.10816 3.91186C3.17346 3.72313 3.27949 3.55109 3.41873 3.40793C3.55798 3.26478 3.72702 3.15402 3.91387 3.08351C4.10071 3.01301 4.30079 2.98449 4.49989 2.99998C4.89772 2.99998 5.27925 2.84194 5.56055 2.56064C5.84186 2.27933 5.99989 1.8978 5.99989 1.49998C5.99989 1.10215 5.84186 0.720621 5.56055 0.439316C5.27925 0.158012 4.89772 -2.3529e-05 4.49989 -2.3529e-05C3.90603 -0.0177519 3.31487 0.0868383 2.76314 0.307248C2.21141 0.527658 1.7109 0.859178 1.29271 1.28121C0.874531 1.70324 0.547606 2.20676 0.332255 2.76048C0.116904 3.31421 0.0177291 3.9063 0.0408921 4.49998C0.0408921 4.8978 0.198927 5.27933 0.480232 5.56064C0.761536 5.84194 1.14307 5.99998 1.54089 5.99998C1.93872 5.99998 2.32025 5.84194 2.60155 5.56064C2.88286 5.27933 3.04089 4.8978 3.04089 4.49998Z" fill="#2A70C8"/>
<path d="M13.5303 12.379V8.5C13.5303 8.10217 13.3722 7.72064 13.0909 7.43934C12.8096 7.15803 12.4281 7 12.0303 7C11.6324 7 11.2509 7.15803 10.9696 7.43934C10.6883 7.72064 10.5303 8.10217 10.5303 8.5V12.793C10.5304 13.3234 10.7412 13.832 11.1163 14.207L12.9093 16C13.1922 16.2732 13.5711 16.4244 13.9644 16.421C14.3577 16.4176 14.7339 16.2598 15.012 15.9817C15.2901 15.7036 15.4479 15.3274 15.4513 14.9341C15.4547 14.5408 15.3035 14.1619 15.0303 13.879L13.5303 12.379Z" fill="#2A70C8"/>
</g>
<defs>
<clipPath id="clip0_115_1170">
<rect width="24" height="24" fill="white"/>
</clipPath>
</defs>
</svg>
