<svg width="24" height="24" viewBox="0 0 24 24" fill="none" xmlns="http://www.w3.org/2000/svg">
<g clip-path="url(#clip0_115_1167)">
<path d="M20.389 4.26802L17.732 1.61102C17.2226 1.0986 16.6165 0.692361 15.9489 0.415827C15.2814 0.139292 14.5656 -0.00203834 13.843 2.22109e-05H7.5C6.0418 0.00161038 4.64377 0.581583 3.61267 1.61269C2.58156 2.6438 2.00159 4.04182 2 5.50002V18.5C2.00159 19.9582 2.58156 21.3563 3.61267 22.3874C4.64377 23.4185 6.0418 23.9984 7.5 24H16.5C17.9582 23.9984 19.3562 23.4185 20.3873 22.3874C21.4184 21.3563 21.9984 19.9582 22 18.5V8.15702C22.0019 7.43447 21.8606 6.7187 21.584 6.05116C21.3075 5.38361 20.9013 4.77754 20.389 4.26802ZM16.5 21H7.5C6.83696 21 6.20107 20.7366 5.73223 20.2678C5.26339 19.7989 5 19.1631 5 18.5V5.50002C5 4.83698 5.26339 4.2011 5.73223 3.73226C6.20107 3.26341 6.83696 3.00002 7.5 3.00002H13V7.00002C13 7.53046 13.2107 8.03916 13.5858 8.41424C13.9609 8.78931 14.4696 9.00002 15 9.00002H19V18.5C19 19.1631 18.7366 19.7989 18.2678 20.2678C17.7989 20.7366 17.163 21 16.5 21ZM17.086 11.466C17.3601 11.7541 17.5086 12.1392 17.4989 12.5368C17.4891 12.9343 17.3219 13.3117 17.034 13.586L13.448 17C12.7895 17.6449 11.9031 18.004 10.9814 17.9994C10.0596 17.9947 9.17696 17.6266 8.525 16.975L7 15.62C6.85292 15.4887 6.73314 15.3297 6.64751 15.1521C6.56188 14.9745 6.51208 14.7817 6.50093 14.5849C6.48979 14.388 6.51753 14.1909 6.58257 14.0047C6.64761 13.8186 6.74868 13.6471 6.88 13.5C7.01132 13.3529 7.17033 13.2332 7.34794 13.1475C7.52555 13.0619 7.71829 13.0121 7.91515 13.001C8.11201 12.9898 8.30913 13.0176 8.49527 13.0826C8.68141 13.1476 8.85292 13.2487 9 13.38L10.586 14.794C10.6373 14.8547 10.7006 14.9043 10.7717 14.9397C10.8429 14.9752 10.9206 14.9957 11 15C11.1324 15 11.2593 14.9475 11.353 14.854L14.966 11.414C15.2541 11.1399 15.6392 10.9914 16.0368 11.0012C16.4343 11.0109 16.8117 11.1781 17.086 11.466Z" fill="#2A70C8"/>
</g>
<defs>
<clipPath id="clip0_115_1167">
<rect width="24" height="24" fill="white"/>
</clipPath>
</defs>
</svg>
