<?xml version="1.0" encoding="utf-8"?>
<svg
  version="1.1"
  xmlns="http://www.w3.org/2000/svg"
  xmlns:xlink="http://www.w3.org/1999/xlink"
  x="0px"
  y="0px"
  viewBox="0 0 299.43 176.48"
  xml:space="preserve"
>
  <g id="screen">
    <g id="card">
      <path
        fill="#4B8BFF"
        d="M216.3,133.01H83.13c-4.78,0-8.65-3.87-8.65-8.65V52.12c0-4.78,3.87-8.65,8.65-8.65H216.3
			c4.78,0,8.65,3.87,8.65,8.65v72.24C224.95,129.13,221.08,133.01,216.3,133.01z"
      />

      <line
        fill="none"
        stroke="#FFFFFF"
        stroke-width="4"
        stroke-linecap="round"
        stroke-miterlimit="10"
        x1="155.01"
        y1="62.01"
        x2="213.6"
        y2="62.01"
      />

      <line
        fill="none"
        stroke="#FFFFFF"
        stroke-width="4"
        stroke-linecap="round"
        stroke-miterlimit="10"
        x1="155.01"
        y1="78.09"
        x2="213.6"
        y2="78.09"
      />

      <line
        fill="none"
        stroke="#FFFFFF"
        stroke-width="4"
        stroke-linecap="round"
        stroke-miterlimit="10"
        x1="155.01"
        y1="94.17"
        x2="213.6"
        y2="94.17"
      />
    </g>
    <g id="photo">
      <path
        fill="#FFFFFF"
        d="M143.01,110.27H87.59c-0.78,0-1.41-0.63-1.41-1.41V52.65c0-0.78,0.63-1.41,1.41-1.41h55.42
			c0.78,0,1.41,0.63,1.41,1.41v56.21C144.42,109.64,143.79,110.27,143.01,110.27z"
      />
      <g id="neck">
        <path
          fill="#FDC9A6"
          d="M120.11,89.76c-1.24,0.78-2.82,1.25-4.9,1.25c-1.99,0-3.51-0.41-4.7-1.11l-0.36,11.76h10.3l-0.33-11.9
				C120.12,89.75,120.11,89.75,120.11,89.76z"
        />
        <path
          fill="#E4AD86"
          d="M120.11,89.76c-1.24,0.78-2.82,1.25-4.9,1.25c-1.99,0-3.51-0.41-4.7-1.11l-0.06,1.99
				c1.4,0.44,3.07,0.7,4.86,0.7c1.8,0,3.47-0.26,4.88-0.71l-0.06-2.12C120.12,89.75,120.11,89.75,120.11,89.76z"
        />
      </g>
      <g id="face">
        <path
          fill="#55300B"
          d="M117.02,56.71c-4.13,0-7.78,2.1-9.92,5.28c-3,0.15-5.39,2.62-5.39,5.66c0,3.13,0.33,7.88,3.47,7.88
				c0.44,0,1.19-0.01,2.06-0.02c2.16,3.09,5.74,5.11,9.79,5.11c6.6,0,11.96-5.35,11.96-11.96
				C128.98,62.06,123.63,56.71,117.02,56.71z"
        />
        <path
          fill="#FDC9A6"
          d="M126.34,72.87c-0.44,0-0.86,0.11-1.24,0.3c-0.01-1.53-0.08-2.51-0.08-2.51c0-0.43-0.35-0.77-0.78-0.76
				c-1.98,0.04-7.25,0.04-10.18-1c-2.7-0.96-4.65-2.71-5.49-3.56c-0.24-0.24-0.63-0.2-0.82,0.09l-2.56,3.94
				c-0.14,0.21-0.21,0.45-0.21,0.69c0,0.08-0.04,1.22,0.03,2.91c-0.22-0.05-0.44-0.09-0.67-0.09c-1.67,0-3.02,1.48-3.02,3.31
				s1.35,3.31,3.02,3.31c0.49,0,0.94-0.14,1.34-0.36c1.05,5.69,1.74,11.87,9.5,11.87s8.8-6.37,9.55-12.02
				c0.46,0.32,1,0.51,1.59,0.51c1.67,0,3.02-1.48,3.02-3.31S128.01,72.87,126.34,72.87z"
        />
        <circle fill="#55300B" cx="110.87" cy="75.87" r="1.24" />
        <circle fill="#55300B" cx="119.35" cy="75.87" r="1.24" />

        <line
          fill="#55300B"
          stroke="#55300B"
          stroke-width="1.5"
          stroke-linecap="round"
          x1="108.78"
          y1="72.87"
          x2="112.11"
          y2="72.87"
        />

        <line
          fill="#55300B"
          stroke="#55300B"
          stroke-width="1.5"
          stroke-linecap="round"
          x1="118.11"
          y1="72.87"
          x2="121.43"
          y2="72.87"
        />
        <polyline
          fill="none"
          stroke="#E5AE88"
          stroke-linecap="round"
          stroke-linejoin="round"
          stroke-miterlimit="10"
          points="
				114.06,77.11 114.06,80.37 116.28,80.37 			"
        />

        <line
          fill="none"
          stroke="#E5AE88"
          stroke-linecap="round"
          stroke-linejoin="round"
          stroke-miterlimit="10"
          x1="112.69"
          y1="84.42"
          x2="117.26"
          y2="84.42"
        />
      </g>
      <g id="shirt">
        <path
          fill="#D0CDCB"
          d="M141.24,104.45c-1.76-2.18-21.03-11.29-21.03-11.29l-4.91,3.78l-4.89-3.78c0,0-19.28,9.12-21.05,11.29
				c-1.76,2.18-1.63,5.83-1.63,5.83h55.15C142.88,110.27,143.01,106.62,141.24,104.45z"
        />
        <polygon
          fill="#EBEBEB"
          points="115.3,96.93 120.39,99.53 120.21,93.15 			"
        />
        <polygon
          fill="#EBEBEB"
          points="115.3,96.93 110.21,99.53 110.39,93.15 			"
        />
      </g>
      <g id="tie">
        <path
          fill="#026CA2"
          d="M118.31,98.77c0.06-0.14,0-0.3-0.14-0.37l-2.87-1.46l-2.87,1.46c-0.14,0.07-0.19,0.23-0.14,0.37
				l1.24,2.95c0,0,0.13,1.14-0.38,2.89c-0.51,1.74-0.55,5.67-0.55,5.67h2.69h2.69c0,0-0.04-3.93-0.55-5.67
				c-0.51-1.74-0.38-2.89-0.38-2.89L118.31,98.77z"
        />
        <path
          fill="#0296E5"
          d="M115.3,96.93l-2.87,1.46c-0.14,0.07-0.19,0.23-0.14,0.37l1.22,2.91c0.56,0.09,1.16,0.15,1.78,0.15
				s1.22-0.05,1.78-0.15l1.22-2.91c0.06-0.14,0-0.3-0.14-0.37L115.3,96.93z"
        />
      </g>
      <g id="blazer">
        <g>
          <path
            fill="#026CA2"
            d="M141.24,104.45c-1.76-2.18-21.03-11.29-21.03-11.29l0.18,17.12h22.48
					C142.88,110.27,143.01,106.62,141.24,104.45z"
          />
          <polygon
            fill="#014F76"
            points="125.03,110.27 128.72,101.83 120.21,93.15 120.39,110.27 				"
          />
          <polygon
            fill="#0296E5"
            points="124.83,110.27 128.14,101.83 120.21,93.15 120.39,110.27 				"
          />
          <path
            fill="#014F76"
            d="M137.77,110.27v-3.71c0-0.41-0.34-0.75-0.75-0.75s-0.75,0.34-0.75,0.75v3.71H137.77z"
          />
        </g>
        <g>
          <path
            fill="#026CA2"
            d="M89.36,104.45c1.76-2.18,21.03-11.29,21.03-11.29l-0.18,17.12H87.73
					C87.73,110.27,87.59,106.62,89.36,104.45z"
          />
          <polygon
            fill="#014F76"
            points="105.57,110.27 101.89,101.83 110.39,93.15 110.21,110.27 				"
          />
          <polygon
            fill="#0296E5"
            points="105.77,110.27 102.46,101.83 110.39,93.15 110.21,110.27 				"
          />
          <path
            fill="#014F76"
            d="M92.83,110.27v-3.71c0-0.41,0.34-0.75,0.75-0.75s0.75,0.34,0.75,0.75v3.71H92.83z"
          />
        </g>
      </g>
    </g>
  </g>
  <path
    fill="#929293"
    d="M265.98,15.03H33.45c-1.1,0-2,0.9-2,2v142.41c0,1.1,0.9,2,2,2h232.53c1.1,0,2-0.9,2-2V17.03
	C267.98,15.93,267.08,15.03,265.98,15.03z M264.86,157.86H34.57V18.62h230.29V157.86z"
  />
  <path
    fill="none"
    stroke="#929293"
    stroke-width="6"
    stroke-miterlimit="10"
    d="M277.99,173.48H21.44
	c-10.19,0-18.44-8.2-18.44-18.32V21.32C3,11.2,11.26,3,21.44,3h256.55c10.19,0,18.44,8.2,18.44,18.32v133.84
	C296.43,165.28,288.17,173.48,277.99,173.48z"
  />
  <g>
    <path
      fill="none"
      stroke="#929293"
      stroke-width="3"
      stroke-miterlimit="10"
      d="M282.38,102.07h-5.15c-2.35,0-4.25-1.9-4.25-4.25
		V75.62c0-2.35,1.9-4.25,4.25-4.25h5.15c2.35,0,4.25,1.9,4.25,4.25v22.21C286.63,100.17,284.72,102.07,282.38,102.07z"
    />
    <g>
      <g>
        <path
          fill="none"
          stroke="#929293"
          stroke-linecap="round"
          stroke-miterlimit="10"
          d="M282.49,46.5v-4.32
				c0-1.49-1.2-2.69-2.69-2.69c-1.49,0-2.69,1.2-2.69,2.69v4.32"
        />
        <g>
          <polygon
            fill="#929293"
            points="276.07,46.19 277.11,48 278.16,46.19 				"
          />
        </g>
      </g>
    </g>
    <g>
      <polyline
        fill="none"
        stroke="#929293"
        stroke-linecap="round"
        stroke-linejoin="round"
        stroke-miterlimit="10"
        points="
			282.33,126.94 277.27,126.94 277.27,137 282.33,137 		"
      />

      <line
        fill="none"
        stroke="#929293"
        stroke-linecap="round"
        stroke-linejoin="round"
        stroke-miterlimit="10"
        x1="281.57"
        y1="129.39"
        x2="281.57"
        y2="134.54"
      />

      <line
        fill="none"
        stroke="#929293"
        stroke-linecap="round"
        stroke-linejoin="round"
        stroke-miterlimit="10"
        x1="279.39"
        y1="129.39"
        x2="279.39"
        y2="134.54"
      />
    </g>
  </g>
  <circle fill="#929293" cx="16.64" cy="35.46" r="2.07" />
  <g>
    <g>
      <circle fill="#929293" cx="16.64" cy="71.46" r="0.78" />
      <circle fill="#929293" cx="16.64" cy="74.05" r="0.78" />
      <circle fill="#929293" cx="16.64" cy="76.63" r="0.78" />
      <circle fill="#929293" cx="16.64" cy="79.21" r="0.78" />
      <circle fill="#929293" cx="16.64" cy="81.79" r="0.78" />
      <circle fill="#929293" cx="16.64" cy="84.37" r="0.78" />
      <circle fill="#929293" cx="16.64" cy="86.95" r="0.78" />
      <circle fill="#929293" cx="16.64" cy="89.53" r="0.78" />
      <circle fill="#929293" cx="16.64" cy="92.11" r="0.78" />
      <circle fill="#929293" cx="16.64" cy="94.69" r="0.78" />
      <circle fill="#929293" cx="16.64" cy="97.27" r="0.78" />
      <circle fill="#929293" cx="16.64" cy="99.85" r="0.78" />
      <circle fill="#929293" cx="16.64" cy="102.44" r="0.78" />
      <circle fill="#929293" cx="16.64" cy="105.02" r="0.78" />
    </g>
    <path
      fill="none"
      stroke="#929293"
      stroke-miterlimit="10"
      d="M16.64,109.06L16.64,109.06c-1.39,0-2.51-1.13-2.51-2.51V69.93
		c0-1.39,1.13-2.51,2.51-2.51h0c1.39,0,2.51,1.13,2.51,2.51v36.62C19.16,107.94,18.03,109.06,16.64,109.06z"
    />
  </g>
</svg>
