<?xml version="1.0" encoding="utf-8"?>
<svg
  version="1.1"
  xmlns="http://www.w3.org/2000/svg"
  xmlns:xlink="http://www.w3.org/1999/xlink"
  x="0px"
  y="0px"
  width="225px"
  height="56.19px"
  viewBox="0 0 225 56.19"
  enable-background="new 0 0 225 56.19"
  xml:space="preserve"
>
  <g>
    <path
      fill="#373743"
      d="M86.92,38.06c-0.24,1.09-0.98,1.63-2.23,1.63c-0.85,0-1.46-0.22-1.85-0.67c-0.25-0.32-0.41-0.71-0.45-1.12
		c-0.05-0.61-0.07-1.22-0.06-1.82v-5.64h-7.41v5.69c0.02,0.73-0.03,1.45-0.18,2.16c-0.27,0.95-0.99,1.41-2.15,1.41
		c-0.87,0-1.5-0.24-1.88-0.73c-0.24-0.32-0.38-0.7-0.42-1.1c-0.06-0.59-0.09-1.17-0.07-1.76V19.74c0-0.43,0.09-0.86,0.28-1.24
		c0.35-0.72,1.06-1.09,2.15-1.09c0.87,0,1.5,0.29,1.88,0.87c0.26,0.4,0.39,1.31,0.39,2.72v5.36h7.41v-5.36
		c0-1.18,0.08-1.99,0.25-2.4c0.32-0.79,1.03-1.18,2.15-1.18c0.85,0,1.46,0.26,1.85,0.78c0.18,0.25,0.3,0.55,0.35,0.85
		c0.07,0.65,0.1,1.3,0.07,1.95V36.1c0.02,0.65-0.01,1.31-0.09,1.95H86.92z M104.77,34.88c-0.86,3.22-3.04,4.84-6.55,4.84
		c-4.62,0-6.93-2.85-6.93-8.54c-0.04-1.6,0.21-3.2,0.73-4.72c0.5-1.46,1.6-2.64,3.02-3.26c1.05-0.45,2.18-0.68,3.32-0.66
		c2.67,0,4.56,0.95,5.67,2.86c0.74,1.29,1.11,3.21,1.11,5.76C105.16,32.42,105.05,33.66,104.77,34.88L104.77,34.88z M100.06,27.35
		c-0.39-0.59-1.06-0.94-1.76-0.91c-0.57-0.01-1.12,0.19-1.54,0.57c-0.42,0.4-0.69,0.91-0.79,1.48c-0.17,0.89-0.24,1.79-0.23,2.69
		c0,1.47,0.13,2.53,0.4,3.2c0.32,0.88,1.18,1.44,2.12,1.37c1.07,0,1.78-0.56,2.15-1.69c0.2-0.6,0.3-1.62,0.3-3.06
		c0-1.79-0.21-3.01-0.64-3.64H100.06z M118.47,25.92c-0.3,0.56-0.9,0.89-1.54,0.86c-0.25-0.01-0.49-0.04-0.73-0.09
		c-0.25-0.04-0.5-0.06-0.74-0.07c-0.51-0.04-1,0.18-1.32,0.58c-0.2,0.29-0.33,0.62-0.37,0.97c-0.03,0.26-0.04,0.79-0.04,1.6v6.54
		c0.03,0.71-0.02,1.42-0.17,2.12c-0.24,0.84-0.92,1.25-2.05,1.25c-0.96,0-1.59-0.29-1.93-0.86c-0.2-0.35-0.3-1.18-0.3-2.51V25.62
		c-0.03-0.63,0.01-1.27,0.13-1.89c0.29-0.84,0.94-1.26,1.95-1.26c0.76,0,1.28,0.22,1.57,0.67c0.16,0.31,0.25,0.66,0.25,1.02
		c0.74-1.11,2-1.75,3.33-1.72c1.55,0,2.33,0.65,2.33,1.94C118.86,24.92,118.73,25.45,118.47,25.92L118.47,25.92z M134.67,38.31
		c-0.14,0.94-0.79,1.41-1.94,1.41c-0.77,0-1.31-0.22-1.62-0.64c-0.18-0.3-0.28-0.64-0.31-0.98c-1.01,1.08-2.37,1.63-4.09,1.63
		c-0.84,0.01-1.67-0.15-2.45-0.46c-1.17-0.46-2.12-1.37-2.61-2.53c-0.34-0.74-0.51-1.54-0.51-2.36c-0.02-1.11,0.32-2.2,0.99-3.09
		c0.81-1.1,2.12-1.81,3.93-2.14c1.05-0.16,2.11-0.24,3.17-0.22h1.32v-0.8c0.02-0.45-0.15-0.89-0.47-1.21
		c-0.47-0.43-1.1-0.65-1.73-0.6c-1.09,0-2.15,0.45-3.17,1.34c-0.31,0.32-0.71,0.52-1.15,0.56c-0.47,0-0.93-0.18-1.27-0.51
		c-0.43-0.37-0.68-0.91-0.67-1.48c0-0.61,0.32-1.19,0.96-1.76c0.61-0.54,1.32-0.96,2.09-1.24c1.17-0.45,2.42-0.67,3.67-0.66
		c1.82,0,3.26,0.39,4.32,1.18c0.82,0.62,1.36,1.55,1.49,2.57c0.1,0.74,0.15,1.49,0.13,2.24v8.08c0.01,0.56-0.02,1.13-0.07,1.69
		L134.67,38.31z M130.53,32.34c-1.15-0.05-2.31,0.07-3.43,0.33c-0.93,0.28-1.39,0.81-1.39,1.58c-0.01,0.49,0.2,0.96,0.58,1.27
		c0.42,0.33,0.94,0.49,1.46,0.46c1.26,0,2.11-0.5,2.54-1.51c0.19-0.47,0.28-0.98,0.27-1.49L130.53,32.34z"
    />
    <path
      id="SVGID"
      fill="#CE1127"
      d="M43.72,6.92c-0.73,1.22-2.01,0.48-2.66,0.3c-0.65-0.18-3.39-1.69-8.25-1.73
		c-4.86-0.04-10.4,2.62-10.4,2.62s-3.2-1.41-7.02,0.87c-1.95,1.53-3.02,3.92-2.85,6.39c-1.33,2.08-2.26,4.39-2.73,6.81
		c-0.98,4.74-0.06,9.68,2.56,13.76c0,0,1.38,1.64-0.35,2.65c-1.55,0.9-2.65-1.01-2.65-1.01c-1.15-1.64-2.15-3.39-2.99-5.21
		C5,29.36,5.21,25.95,4.06,24.64c-1.23-1.41-3.67-0.62-3.67-0.62S2.65,4.12,23.44,0.44C35.46-1.68,43.3,4.61,43.3,4.61
		S44.69,5.31,43.72,6.92z M19.73,20.74c-3.24,0-5.87-2.63-5.86-5.87S16.49,9,19.73,9c3.24,0,5.87,2.63,5.86,5.87
		C25.6,18.11,22.97,20.74,19.73,20.74L19.73,20.74z"
    />
    <path
      id="SVGID-2"
      fill="#FEC601"
      d="M54.37,37.58c-4.08,11.59-13.42,15.41-13.42,15.41s-1.29,0.87-2.21-0.77
		c-0.71-1.23,0.58-1.99,1.06-2.47c0.48-0.48,3.14-2.15,5.57-6.4s2.82-10.42,2.82-10.42s2.82-2.12,2.71-6.59
		c-0.76-4.29-4.16-5.62-4.16-5.62c-1.15-2.18-2.7-4.12-4.56-5.71c-3.65-3.18-8.4-4.79-13.23-4.49c0,0-2.12,0.41-2.12-1.6
		c0-1.8,2.18-1.84,2.18-1.84c1.99-0.21,4-0.23,6-0.08c3.29,0.27,6.16,2.12,7.87,1.76c1.85-0.4,2.36-2.92,2.36-2.92
		s16.21,11.71,9.17,31.77L54.37,37.58z M48.72,30.14c-1.61,2.8-5.18,3.77-7.99,2.17c-2.8-1.61-3.77-5.18-2.17-7.99
		c1.6-2.79,5.14-3.76,7.94-2.19C49.33,23.72,50.32,27.31,48.72,30.14C48.72,30.13,48.72,30.13,48.72,30.14z"
    />
    <path
      id="SVGID-3"
      fill="#2A70C8"
      d="M45.81,39.47c-0.82,1.83-1.81,3.59-2.95,5.24c-1.88,2.71-4.94,4.27-5.46,5.93
		c-0.58,1.8,1.35,3.51,1.35,3.51s-18.27,8.13-32.07-8.03C-1.3,36.76,0.1,26.77,0.1,26.77s-0.11-1.55,1.76-1.53
		c1.41,0,1.44,1.5,1.62,2.15s0.29,3.8,2.74,8.03s7.59,7.69,7.59,7.69s0.42,3.5,4.34,5.64c4.1,1.5,6.95-0.78,6.95-0.78
		c2.46,0.1,4.91-0.26,7.24-1.08c4.58-1.56,8.36-4.87,10.52-9.2c0,0,0.71-2.03,2.47-1.06c1.57,0.89,0.49,2.82,0.49,2.82L45.81,39.47z
		 M23.99,47.09c-2.79,1.68-6.42,0.78-8.11-2.01c-1.68-2.79-0.78-6.42,2.01-8.11s6.42-0.78,8.11,2.01c0.01,0.01,0.02,0.03,0.03,0.04
		C27.69,41.81,26.78,45.42,23.99,47.09C23.99,47.09,23.99,47.09,23.99,47.09z"
    />
    <path
      fill="#0073C3"
      d="M154.74,24.45c-0.51,0.36-1.12,0.56-1.75,0.55c-0.41,0.01-0.82-0.11-1.15-0.35
		c-0.39-0.35-0.72-0.76-0.97-1.22c-0.32-0.57-0.76-1.06-1.27-1.46c-0.54-0.36-1.19-0.54-1.84-0.52c-0.92-0.03-1.81,0.31-2.47,0.94
		c-0.76,0.73-1.23,1.96-1.39,3.7c-0.08,0.83-0.12,1.67-0.12,2.51c0,1.96,0.16,3.46,0.49,4.49c0.56,1.75,1.77,2.63,3.63,2.63
		c0.86,0.03,1.7-0.25,2.37-0.79c0.49-0.47,0.88-1.04,1.12-1.68c0.42-0.92,0.82-1.48,1.22-1.65c0.28-0.13,0.59-0.19,0.9-0.19
		c0.39,0,0.78,0.09,1.14,0.25c0.7,0.25,1.16,0.93,1.13,1.67c-0.03,0.73-0.21,1.44-0.54,2.09c-1.28,2.86-3.75,4.29-7.41,4.29
		c-2.12,0-3.82-0.42-5.12-1.27c-1.65-1.07-2.72-2.71-3.23-4.91c-0.35-1.63-0.52-3.28-0.5-4.95c0-3.86,0.75-6.68,2.25-8.47
		c1.57-1.86,3.78-2.79,6.63-2.79c2.9,0,5.07,0.96,6.53,2.88c0.74,0.98,1.1,1.92,1.1,2.82c0.01,0.57-0.29,1.11-0.78,1.41
		L154.74,24.45z M168.56,25.92c-0.3,0.56-0.9,0.89-1.54,0.86c-0.25-0.01-0.49-0.04-0.73-0.09c-0.25-0.04-0.5-0.06-0.75-0.07
		c-0.51-0.04-1,0.18-1.31,0.58c-0.2,0.29-0.33,0.62-0.37,0.97c-0.03,0.26-0.05,0.79-0.05,1.6v6.54c0.03,0.71-0.02,1.42-0.16,2.12
		c-0.24,0.84-0.92,1.25-2.05,1.25c-0.96,0-1.6-0.29-1.93-0.86c-0.2-0.35-0.3-1.18-0.3-2.51V25.62c-0.03-0.63,0.01-1.27,0.13-1.89
		c0.29-0.83,0.94-1.25,1.96-1.26c0.75,0,1.28,0.22,1.57,0.67c0.16,0.31,0.25,0.66,0.25,1.02c0.74-1.11,2-1.75,3.33-1.72
		c1.55,0,2.33,0.65,2.33,1.94C168.96,24.92,168.83,25.45,168.56,25.92L168.56,25.92z M185.08,31.99c-0.17,0.19-0.4,0.31-0.66,0.35
		c-0.42,0.05-0.84,0.07-1.26,0.06h-7c0.03,1.06,0.19,1.84,0.49,2.3c0.47,0.74,1.29,1.11,2.45,1.1c0.66,0.03,1.32-0.15,1.88-0.51
		c0.24-0.19,0.45-0.4,0.63-0.64c0.47-0.57,0.96-0.85,1.48-0.85c0.29,0,0.57,0.05,0.84,0.15c0.36,0.14,0.67,0.39,0.9,0.71
		c0.25,0.3,0.38,0.67,0.39,1.06c-0.03,0.64-0.28,1.25-0.71,1.73c-1.2,1.51-3.03,2.27-5.5,2.27c-2.17,0-3.86-0.55-5.06-1.66
		c-1.51-1.39-2.27-3.69-2.27-6.88c-0.03-1.54,0.2-3.08,0.71-4.54c0.5-1.5,1.59-2.73,3.02-3.4c1.04-0.47,2.16-0.7,3.3-0.67
		c2.38,0,4.15,0.76,5.29,2.28c0.97,1.28,1.45,3.06,1.45,5.36c0,0.9-0.12,1.49-0.35,1.79L185.08,31.99z M180.08,26.66
		c-0.43-0.28-0.94-0.42-1.45-0.41c-1.65,0-2.47,0.91-2.47,2.72h4.78C180.94,27.8,180.65,27.03,180.08,26.66L180.08,26.66z
		 M201.56,39.45c-0.39,0.19-0.81,0.28-1.24,0.27c-0.86,0-1.46-0.28-1.79-0.84c-0.14-0.27-0.25-0.55-0.31-0.85
		c-0.1,0.19-0.23,0.36-0.39,0.51c-0.75,0.79-1.78,1.18-3.1,1.18c-0.82,0.01-1.62-0.16-2.37-0.48c-1.14-0.46-2.07-1.32-2.63-2.41
		c-0.68-1.31-1.02-3.2-1.02-5.67c0-3.32,0.67-5.64,2.01-6.97c1.1-1.09,2.59-1.68,4.14-1.63c1.14,0,2.04,0.24,2.69,0.73
		c0.21,0.15,0.39,0.34,0.52,0.55v-3.44c-0.02-0.54,0.02-1.09,0.12-1.63c0.17-0.6,0.64-1.07,1.24-1.26c0.29-0.1,0.59-0.15,0.9-0.15
		c0.36,0,0.72,0.07,1.06,0.19c0.39,0.13,0.72,0.41,0.91,0.78c0.15,0.27,0.23,0.97,0.23,2.09v16.86c0,1.11-0.31,1.83-0.94,2.15
		H201.56z M197.65,27.57c-0.17-0.36-0.45-0.65-0.8-0.84c-0.33-0.2-0.72-0.3-1.1-0.3c-0.44-0.01-0.87,0.12-1.24,0.35
		c-0.78,0.5-1.16,1.82-1.16,3.96c0,1.68,0.12,2.88,0.35,3.58c0.11,0.36,0.32,0.68,0.61,0.93c0.38,0.33,0.87,0.5,1.38,0.49
		c0.84,0,1.45-0.29,1.81-0.88c0.37-0.76,0.56-1.6,0.55-2.45c0.02-0.38,0.03-1,0.03-1.85c0-1.39-0.14-2.39-0.42-2.98V27.57z
		 M209.49,21.66c-0.65,0.03-1.28-0.21-1.73-0.67c-0.42-0.5-0.64-1.15-0.6-1.81c0-1,0.34-1.7,1.02-2.09
		c0.41-0.23,0.87-0.34,1.34-0.33c0.63-0.04,1.24,0.21,1.67,0.67c0.4,0.51,0.59,1.15,0.55,1.79C211.75,20.85,211,21.66,209.49,21.66z
		 M209.49,22.56c1.09,0,1.76,0.41,2.02,1.22c0.14,0.72,0.2,1.46,0.16,2.19v11.32c0,1.61-0.73,2.42-2.19,2.42
		c-0.38,0.01-0.75-0.06-1.1-0.21c-0.33-0.13-0.6-0.37-0.78-0.67c-0.22-0.45-0.34-0.95-0.33-1.46V25.94c0-1.2,0.07-1.96,0.21-2.28
		C207.82,22.93,208.49,22.56,209.49,22.56L209.49,22.56z M221.53,35.61c0.09,0.35,0.35,0.51,0.82,0.51c0.16,0,0.32-0.02,0.48-0.06
		c0.23-0.05,0.47-0.09,0.71-0.09c0.21-0.01,0.41,0.04,0.6,0.12c0.29,0.18,0.51,0.45,0.64,0.76c0.15,0.3,0.23,0.63,0.24,0.97
		c0,0.56-0.33,1.07-0.84,1.3c-0.87,0.43-1.84,0.63-2.8,0.58c-1.72,0-2.93-0.48-3.62-1.45c-0.34-0.51-0.56-1.1-0.62-1.72
		c-0.06-0.6-0.09-1.21-0.07-1.82v-7.95h-0.58c-1.06,0-1.57-0.65-1.57-1.95c0-1.22,0.52-1.84,1.57-1.84h0.58v-2.13
		c-0.02-0.49,0.01-0.99,0.07-1.48c0.24-0.93,0.96-1.41,2.18-1.41c0.42-0.01,0.84,0.07,1.22,0.25c0.42,0.23,0.73,0.62,0.84,1.09
		c0.1,0.51,0.14,1.02,0.12,1.54v2.13h1.31c1.23,0,1.84,0.61,1.84,1.84c0.01,0.35-0.05,0.69-0.17,1.02c-0.1,0.27-0.27,0.51-0.51,0.68
		c-0.36,0.19-0.76,0.27-1.16,0.25h-1.31v8.03c-0.01,0.27,0,0.54,0.04,0.81L221.53,35.61z"
    />
  </g>
</svg>
