<?xml version="1.0" encoding="utf-8"?>
<svg
  version="1.1"
  xmlns="http://www.w3.org/2000/svg"
  xmlns:xlink="http://www.w3.org/1999/xlink"
  x="0px"
  y="0px"
  viewBox="0 0 149 251"
  enable-background="new 0 0 149 251"
  xml:space="preserve"
>
  <path
    fill="#929293"
    d="M135.9,222.6V28.4c0-0.9-0.8-1.7-1.7-1.7H14.8c-0.9,0-1.7,0.8-1.7,1.7v194.1c0,0.9,0.8,1.7,1.7,1.7h119.4
	C135.1,224.2,135.9,223.5,135.9,222.6z M16.1,221.6V29.4h116.8v192.3H16.1z"
  />
  <path
    fill="none"
    stroke="#929293"
    stroke-width="6"
    stroke-miterlimit="10"
    d="M3,232.6V18.4C3,9.9,9.9,3,18.4,3h112.2
	c8.5,0,15.4,6.9,15.4,15.4v214.2c0,8.5-6.9,15.4-15.4,15.4H18.4C9.9,248,3,241.1,3,232.6z"
  />
  <path
    fill="none"
    stroke="#929293"
    stroke-width="3"
    stroke-miterlimit="10"
    d="M62.9,236.3V232c0-2,1.6-3.5,3.6-3.5h18.6
	c2,0,3.6,1.6,3.6,3.5v4.3c0,2-1.6,3.5-3.6,3.5H66.4C64.5,239.8,62.9,238.2,62.9,236.3z"
  />
  <path
    fill="none"
    stroke="#929293"
    stroke-linecap="round"
    stroke-miterlimit="10"
    d="M109.5,236.4h3.6c1.2,0,2.3-1,2.3-2.2
	s-1-2.2-2.3-2.2h-3.6"
  />
  <path fill="#929293" d="M109.7,231l-1.5,0.9l1.5,0.9V231z" />
  <path
    fill="none"
    stroke="#929293"
    stroke-linecap="round"
    stroke-linejoin="round"
    stroke-miterlimit="10"
    d="M42,236.2V232h-8.4
	v4.2"
  />
  <path
    fill="none"
    stroke="#929293"
    stroke-linecap="round"
    stroke-linejoin="round"
    stroke-miterlimit="10"
    d="M40,235.6h-4.3"
  />
  <path
    fill="none"
    stroke="#929293"
    stroke-linecap="round"
    stroke-linejoin="round"
    stroke-miterlimit="10"
    d="M40,233.8h-4.3"
  />
  <path
    fill="#929293"
    d="M117,14.4c0,1,0.8,1.7,1.7,1.7c1,0,1.7-0.8,1.7-1.7s-0.8-1.7-1.7-1.7C117.8,12.7,117,13.4,117,14.4z"
  />
  <path
    fill="#929293"
    d="M87.9,14.4c0,0.4,0.3,0.7,0.7,0.7c0.4,0,0.7-0.3,0.7-0.7s-0.3-0.7-0.7-0.7C88.2,13.7,87.9,14,87.9,14.4z"
  />
  <path
    fill="#929293"
    d="M85.7,14.4c0,0.4,0.3,0.7,0.7,0.7s0.7-0.3,0.7-0.7s-0.3-0.7-0.7-0.7S85.7,14,85.7,14.4z"
  />
  <path
    fill="#929293"
    d="M83.6,14.4c0,0.4,0.3,0.7,0.7,0.7c0.4,0,0.7-0.3,0.7-0.7s-0.3-0.7-0.7-0.7C83.9,13.7,83.6,14,83.6,14.4z"
  />
  <path
    fill="#929293"
    d="M81.4,14.4c0,0.4,0.3,0.7,0.7,0.7c0.4,0,0.7-0.3,0.7-0.7s-0.3-0.7-0.7-0.7C81.7,13.7,81.4,14,81.4,14.4z"
  />
  <path
    fill="#929293"
    d="M79.2,14.4c0,0.4,0.3,0.7,0.7,0.7c0.4,0,0.7-0.3,0.7-0.7s-0.3-0.7-0.7-0.7C79.5,13.7,79.2,14,79.2,14.4z"
  />
  <path
    fill="#929293"
    d="M77.1,14.4c0,0.4,0.3,0.7,0.7,0.7s0.7-0.3,0.7-0.7s-0.3-0.7-0.7-0.7S77.1,14,77.1,14.4z"
  />
  <path
    fill="#929293"
    d="M74.9,14.4c0,0.4,0.3,0.7,0.7,0.7c0.4,0,0.7-0.3,0.7-0.7s-0.3-0.7-0.7-0.7C75.2,13.7,74.9,14,74.9,14.4z"
  />
  <path
    fill="#929293"
    d="M72.7,14.4c0,0.4,0.3,0.7,0.7,0.7c0.4,0,0.7-0.3,0.7-0.7s-0.3-0.7-0.7-0.7C73,13.7,72.7,14,72.7,14.4z"
  />
  <path
    fill="#929293"
    d="M70.6,14.4c0,0.4,0.3,0.7,0.7,0.7c0.4,0,0.7-0.3,0.7-0.7s-0.3-0.7-0.7-0.7C70.9,13.7,70.6,14,70.6,14.4z"
  />
  <path
    fill="#929293"
    d="M68.4,14.4c0,0.4,0.3,0.7,0.7,0.7c0.4,0,0.7-0.3,0.7-0.7s-0.3-0.7-0.7-0.7C68.7,13.7,68.4,14,68.4,14.4z"
  />
  <path
    fill="#929293"
    d="M66.3,14.4c0,0.4,0.3,0.7,0.7,0.7c0.4,0,0.7-0.3,0.7-0.7s-0.3-0.7-0.7-0.7C66.6,13.7,66.3,14,66.3,14.4z"
  />
  <path
    fill="#929293"
    d="M64.1,14.4c0,0.4,0.3,0.7,0.7,0.7c0.4,0,0.7-0.3,0.7-0.7s-0.3-0.7-0.7-0.7C64.4,13.7,64.1,14,64.1,14.4z"
  />
  <path
    fill="#929293"
    d="M61.9,14.4c0,0.4,0.3,0.7,0.7,0.7c0.4,0,0.7-0.3,0.7-0.7s-0.3-0.7-0.7-0.7C62.2,13.7,61.9,14,61.9,14.4z"
  />
  <path
    fill="#929293"
    d="M59.8,14.4c0,0.4,0.3,0.7,0.7,0.7c0.4,0,0.7-0.3,0.7-0.7s-0.3-0.7-0.7-0.7C60.1,13.7,59.8,14,59.8,14.4z"
  />
  <path
    fill="none"
    stroke="#929293"
    stroke-miterlimit="10"
    d="M57,14.4c0-1.2,0.9-2.1,2.1-2.1h30.7c1.2,0,2.1,0.9,2.1,2.1
	c0,1.2-0.9,2.1-2.1,2.1H59.1C58,16.5,57,15.5,57,14.4z"
  />
  <path
    fill="#FDC9A6"
    d="M84.1,138.4c-2.5,1.6-5.6,2.5-9.8,2.5c-4,0-7-0.8-9.4-2.2l-0.7,23.5h20.5L84.1,138.4
	C84.1,138.4,84.1,138.4,84.1,138.4z"
  />
  <path
    fill="#E4AD86"
    d="M84.1,138.4c-2.5,1.6-5.6,2.5-9.8,2.5c-4,0-7-0.8-9.4-2.2l-0.1,4c2.8,0.9,6.1,1.4,9.7,1.4
	c3.6,0,6.9-0.5,9.7-1.4L84.1,138.4C84.1,138.4,84.1,138.4,84.1,138.4z"
  />
  <path
    fill="#55300B"
    d="M77.9,72.5c-8.2,0-15.5,4.2-19.8,10.5c-6,0.3-10.7,5.2-10.7,11.3c0,6.2,0.7,15.7,6.9,15.7c0.9,0,2.4,0,4.1,0
	c4.3,6.2,11.4,10.2,19.5,10.2c13.2,0,23.9-10.7,23.9-23.9C101.8,83.2,91.1,72.5,77.9,72.5z"
  />
  <path
    fill="#FDC9A6"
    d="M96.5,104.7c-0.9,0-1.7,0.2-2.5,0.6c0-3.1-0.2-5-0.2-5c0-0.9-0.7-1.5-1.6-1.5c-3.9,0.1-14.5,0.1-20.3-2
	c-5.4-1.9-9.3-5.4-10.9-7.1c-0.5-0.5-1.3-0.4-1.6,0.2l-5.1,7.9c-0.3,0.4-0.4,0.9-0.4,1.4c0,0.2-0.1,2.4,0.1,5.8
	c-0.4-0.1-0.9-0.2-1.3-0.2c-3.3,0-6,3-6,6.6s2.7,6.6,6,6.6c1,0,1.9-0.3,2.7-0.7c2.1,11.3,3.5,23.7,18.9,23.7c15.5,0,17.6-12.7,19-24
	c0.9,0.6,2,1,3.2,1c3.3,0,6-3,6-6.6S99.8,104.7,96.5,104.7z"
  />
  <path
    fill="#55300B"
    d="M65.6,113.2c1.4,0,2.5-1.1,2.5-2.5s-1.1-2.5-2.5-2.5c-1.4,0-2.5,1.1-2.5,2.5S64.3,113.2,65.6,113.2z"
  />
  <path
    fill="#55300B"
    d="M82.6,113.2c1.4,0,2.5-1.1,2.5-2.5s-1.1-2.5-2.5-2.5c-1.4,0-2.5,1.1-2.5,2.5S81.2,113.2,82.6,113.2z"
  />
  <path
    fill="none"
    stroke="#55300B"
    stroke-width="1.5"
    stroke-linecap="round"
    d="M61.5,104.7h6.6"
  />
  <path
    fill="none"
    stroke="#55300B"
    stroke-width="1.5"
    stroke-linecap="round"
    d="M80.1,104.7h6.6"
  />
  <path
    fill="none"
    stroke="#E5AE88"
    stroke-linecap="round"
    stroke-linejoin="round"
    stroke-miterlimit="10"
    d="M72,113.2v6.5h4.4"
  />
  <path
    fill="none"
    stroke="#E5AE88"
    stroke-linecap="round"
    stroke-linejoin="round"
    stroke-miterlimit="10"
    d="M69.3,127.8h9.1"
  />
  <path
    fill="#D0CDCB"
    d="M126.2,167.7c-3.5-4.3-41.9-22.5-41.9-22.5l-9.8,7.5l-9.8-7.5c0,0-38.5,18.2-42,22.5
	c-3.5,4.3-3.3,11.6-3.3,11.6h110C129.5,179.3,129.7,172,126.2,167.7z"
  />
  <path fill="#EBEBEB" d="M74.5,152.7l10.2,5.2l-0.4-12.7L74.5,152.7z" />
  <path fill="#EBEBEB" d="M74.5,152.7l-10.2,5.2l0.4-12.7L74.5,152.7z" />
  <path
    fill="#026CA2"
    d="M80.5,156.4c0.1-0.3,0-0.6-0.3-0.7l-5.7-2.9l-5.7,2.9c-0.3,0.1-0.4,0.5-0.3,0.7l2.5,5.9c0,0,0.3,2.3-0.8,5.8
	c-1,3.5-1.1,11.3-1.1,11.3h5.4h5.4c0,0-0.1-7.8-1.1-11.3c-1-3.5-0.8-5.8-0.8-5.8L80.5,156.4z"
  />
  <path
    fill="#0296E5"
    d="M74.5,152.7l-5.7,2.9c-0.3,0.1-0.4,0.5-0.3,0.7l2.4,5.8c1.1,0.2,2.3,0.3,3.6,0.3c1.2,0,2.4-0.1,3.5-0.3
	l2.4-5.8c0.1-0.3,0-0.6-0.3-0.7L74.5,152.7z"
  />
  <path
    fill="#026CA2"
    d="M126.2,167.7c-3.5-4.3-41.9-22.5-41.9-22.5l0.4,34.1h44.8C129.5,179.3,129.7,172,126.2,167.7z"
  />
  <path fill="#014F76" d="M93.9,179.3l7.4-16.8l-17-17.3l0.4,34.1H93.9z" />
  <path fill="#0296E5" d="M93.5,179.3l6.6-16.8l-15.8-17.3l0.4,34.1H93.5z" />
  <path
    fill="#014F76"
    d="M119.3,179.3v-7.4c0-0.8-0.7-1.5-1.5-1.5c-0.8,0-1.5,0.7-1.5,1.5v7.4H119.3z"
  />
  <path
    fill="#026CA2"
    d="M22.7,167.7c3.5-4.3,41.9-22.5,41.9-22.5l-0.4,34.1H19.5C19.5,179.3,19.2,172,22.7,167.7z"
  />
  <path fill="#014F76" d="M55.1,179.3l-7.3-16.8l17-17.3l-0.4,34.1H55.1z" />
  <path fill="#0296E5" d="M55.5,179.3l-6.6-16.8l15.8-17.3l-0.4,34.1H55.5z" />
  <path
    fill="#014F76"
    d="M29.7,179.3v-7.4c0-0.8,0.7-1.5,1.5-1.5c0.8,0,1.5,0.7,1.5,1.5v7.4H29.7z"
  />
  <path
    fill="#FFAB7F"
    d="M104.7,114.5l-0.5,7h5c0,0,0.4-2.7,0.5-4.5c0-1,0-2.5,0-2.5c-0.2-0.7-0.4-1.1-1-1.5
	c-0.5-0.4-0.9-0.5-1.5-0.5c-0.6,0-1,0.1-1.5,0.5C105.2,113.4,105.1,113.9,104.7,114.5z"
  />
  <path
    fill="#FFAB7F"
    d="M103.2,116.5l-0.5,5h-5l0.5-5.5c0.3-0.6,0.4-1.2,1-1.5c0.7-0.4,1.2-0.6,2-0.5c0.6,0.1,1.1,0.6,1.5,1
	C103.2,115.4,103.1,115.9,103.2,116.5z"
  />
  <path
    fill="#4B8BFF"
    d="M123.3,144.2H89.7c-1.2,0-2.2-1-2.2-2.2v-18.3c0-1.2,1-2.2,2.2-2.2h33.6c1.2,0,2.2,1,2.2,2.2V142
	C125.5,143.2,124.5,144.2,123.3,144.2z"
  />
  <path
    fill="none"
    stroke="#FFFFFF"
    stroke-width="1.2099"
    stroke-linecap="round"
    stroke-miterlimit="10"
    d="M107.8,126.2h14.8"
  />
  <path
    fill="none"
    stroke="#FFFFFF"
    stroke-width="1.2099"
    stroke-linecap="round"
    stroke-miterlimit="10"
    d="M107.8,130.3h14.8"
  />
  <path
    fill="none"
    stroke="#FFFFFF"
    stroke-width="1.2099"
    stroke-linecap="round"
    stroke-miterlimit="10"
    d="M107.8,134.4h14.8"
  />
  <path
    fill="#FFFFFF"
    d="M104.8,138.4h-14c-0.2,0-0.4-0.2-0.4-0.4v-14.3c0-0.2,0.2-0.4,0.4-0.4h14c0.2,0,0.4,0.2,0.4,0.4v14.3
	C105.1,138.3,105,138.4,104.8,138.4z"
  />
  <path
    fill="#FDC9A6"
    d="M99,133.2c-0.3,0.2-0.7,0.3-1.2,0.3c-0.5,0-0.9-0.1-1.2-0.3l-0.1,3h2.6L99,133.2C99,133.2,99,133.2,99,133.2
	z"
  />
  <path
    fill="#E4AD86"
    d="M99,133.2c-0.3,0.2-0.7,0.3-1.2,0.3c-0.5,0-0.9-0.1-1.2-0.3l0,0.5c0.4,0.1,0.8,0.2,1.2,0.2
	c0.5,0,0.9-0.1,1.2-0.2L99,133.2C99,133.2,99,133.2,99,133.2z"
  />
  <path
    fill="#55300B"
    d="M98.2,124.9c-1,0-2,0.5-2.5,1.3c-0.8,0-1.4,0.7-1.4,1.4c0,0.8,0.1,2,0.9,2c0.1,0,0.3,0,0.5,0
	c0.5,0.8,1.4,1.3,2.5,1.3c1.7,0,3-1.4,3-3C101.2,126.2,99.9,124.9,98.2,124.9z"
  />
  <path
    fill="#FDC9A6"
    d="M100.6,129c-0.1,0-0.2,0-0.3,0.1c0-0.4,0-0.6,0-0.6c0-0.1-0.1-0.2-0.2-0.2c-0.5,0-1.8,0-2.6-0.3
	c-0.7-0.2-1.2-0.7-1.4-0.9c-0.1-0.1-0.2-0.1-0.2,0l-0.6,1c0,0.1-0.1,0.1-0.1,0.2c0,0,0,0.3,0,0.7c-0.1,0-0.1,0-0.2,0
	c-0.4,0-0.8,0.4-0.8,0.8s0.3,0.8,0.8,0.8c0.1,0,0.2,0,0.3-0.1c0.3,1.4,0.4,3,2.4,3c2,0,2.2-1.6,2.4-3c0.1,0.1,0.3,0.1,0.4,0.1
	c0.4,0,0.8-0.4,0.8-0.8S101,129,100.6,129z"
  />
  <path
    fill="#55300B"
    d="M96.7,130c0.2,0,0.3-0.1,0.3-0.3c0-0.2-0.1-0.3-0.3-0.3c-0.2,0-0.3,0.1-0.3,0.3
	C96.4,129.9,96.5,130,96.7,130z"
  />
  <path
    fill="#55300B"
    d="M98.8,130c0.2,0,0.3-0.1,0.3-0.3c0-0.2-0.1-0.3-0.3-0.3c-0.2,0-0.3,0.1-0.3,0.3
	C98.5,129.9,98.6,130,98.8,130z"
  />
  <path
    fill="none"
    stroke="#55300B"
    stroke-width="0.4537"
    stroke-linecap="round"
    d="M96.1,129H97"
  />
  <path
    fill="none"
    stroke="#55300B"
    stroke-width="0.4537"
    stroke-linecap="round"
    d="M98.5,129h0.8"
  />
  <path
    fill="none"
    stroke="#E5AE88"
    stroke-width="0.3025"
    stroke-linecap="round"
    stroke-linejoin="round"
    stroke-miterlimit="10"
    d="
	M97.5,130v0.8H98"
  />
  <path
    fill="none"
    stroke="#E5AE88"
    stroke-width="0.3025"
    stroke-linecap="round"
    stroke-linejoin="round"
    stroke-miterlimit="10"
    d="
	M97.1,131.9h1.2"
  />
  <path
    fill="#D0CDCB"
    d="M104.3,137c-0.4-0.6-5.3-2.9-5.3-2.9l-1.2,1l-1.2-1c0,0-4.9,2.3-5.3,2.9c-0.4,0.6-0.4,1.5-0.4,1.5h13.9
	C104.8,138.4,104.8,137.5,104.3,137z"
  />
  <path fill="#EBEBEB" d="M97.8,135.1l1.3,0.7l0-1.6L97.8,135.1z" />
  <path fill="#EBEBEB" d="M97.8,135.1l-1.3,0.7l0-1.6L97.8,135.1z" />
  <path
    fill="#026CA2"
    d="M98.6,135.5C98.6,135.5,98.6,135.4,98.6,135.5l-0.8-0.5l-0.7,0.4c0,0,0,0.1,0,0.1l0.3,0.7c0,0,0,0.3-0.1,0.7
	c-0.1,0.4-0.1,1.4-0.1,1.4h0.7h0.7c0,0,0-1-0.1-1.4c-0.1-0.4-0.1-0.7-0.1-0.7L98.6,135.5z"
  />
  <path
    fill="#0296E5"
    d="M97.8,135.1l-0.7,0.4c0,0,0,0.1,0,0.1l0.3,0.7c0.1,0,0.3,0,0.4,0s0.3,0,0.4,0l0.3-0.7c0,0,0-0.1,0-0.1
	L97.8,135.1z"
  />
  <path
    fill="#026CA2"
    d="M104.3,137c-0.4-0.6-5.3-2.9-5.3-2.9l0,4.3h5.7C104.8,138.4,104.8,137.5,104.3,137z"
  />
  <path fill="#014F76" d="M100.2,138.4l0.9-2.1l-2.1-2.2l0,4.3H100.2z" />
  <path fill="#0296E5" d="M100.2,138.4l0.8-2.1l-2-2.2l0,4.3H100.2z" />
  <path
    fill="#014F76"
    d="M103.5,138.4v-0.9c0-0.1-0.1-0.2-0.2-0.2c-0.1,0-0.2,0.1-0.2,0.2v0.9H103.5z"
  />
  <path
    fill="#026CA2"
    d="M91.2,137c0.4-0.6,5.3-2.9,5.3-2.9l0,4.3h-5.7C90.8,138.4,90.8,137.5,91.2,137z"
  />
  <path fill="#014F76" d="M95.3,138.4l-0.9-2.1l2.1-2.2l0,4.3H95.3z" />
  <path fill="#0296E5" d="M95.4,138.4l-0.8-2.1l2-2.2l0,4.3H95.4z" />
  <path
    fill="#014F76"
    d="M92.1,138.4v-0.9c0-0.1,0.1-0.2,0.2-0.2c0.1,0,0.2,0.1,0.2,0.2v0.9H92.1z"
  />
  <path
    fill="#FFAB7F"
    d="M115.2,156.5l-17,1c0,0-2.7-2.5-4-4.5c-1-1.5-1.1-2.5-2-4c-2-3.5-6.5-8-6.5-8s-0.6-2,0-3
	c0.5-0.9,1.1-1.2,2-1.5c0.9-0.3,1.5-0.1,2.5,0l6.7,7l23.3,0.7c0,0,0.1,4.2-1,6.8C118.2,153.5,115.2,156.5,115.2,156.5z"
  />
  <path
    fill="#FFAB7F"
    d="M116.2,118.5v3h-5.8l0.8-3.5c0.5-0.5,0.8-0.8,1.5-1c0.7-0.2,1.3-0.3,2,0
	C115.5,117.3,115.9,117.8,116.2,118.5z"
  />
  <path
    fill="#005671"
    stroke="#005671"
    d="M97.2,167l0.5,11.5h0.5h19.5l-1-12.5L97.2,167z"
  />
  <path
    fill="#0F6280"
    stroke="#0F6280"
    d="M95.2,167c-1-0.5-1.5-8.5-0.5-9c1-0.5,23-2.5,23.5-1.5s2,8.5,0.5,9S96.2,167.5,95.2,167z"
  />
  <path
    fill="#FE0000"
    d="M114.2,164c1.4,0,2.5-1.1,2.5-2.5c0-1.4-1.1-2.5-2.5-2.5c-1.4,0-2.5,1.1-2.5,2.5
	C111.7,162.9,112.9,164,114.2,164z"
  />
</svg>
