<svg width="56" height="56" viewBox="0 0 56 56" fill="none" xmlns="http://www.w3.org/2000/svg">
<circle cx="28" cy="28" r="28" fill="#CE1127"/>
<g clip-path="url(#clip0_6283_379)">
<path d="M44.3638 24.7793C44.3638 23.6082 43.4204 22.6647 42.2492 22.6647H33.1402C33.6282 21.461 34.0837 20.3224 34.2789 19.6392C34.7668 17.8174 33.6933 11.6364 31.4486 11.6364C30.2774 11.6364 29.334 12.5798 29.334 13.7509V17.1668L24.0313 24.4865H22.8601V36.2957H24.4216C24.5518 37.3367 25.4627 38.1175 26.5362 38.1175H39.8744C41.0455 38.1175 41.989 37.174 41.989 36.0029C41.989 35.3197 41.6636 34.7016 41.1431 34.3112C42.054 34.0835 42.7697 33.2377 42.7697 32.2617C42.7697 31.5785 42.4444 30.9604 41.9564 30.57C42.8673 30.3423 43.583 29.4965 43.583 28.5205C43.583 27.8373 43.2577 27.2192 42.7697 26.8288C43.6806 26.6011 44.3638 25.7553 44.3638 24.7793Z" fill="#FEC601"/>
<path d="M21.6238 37.109C21.6238 37.662 21.1684 38.1175 20.6153 38.1175H12.645C12.0919 38.1175 11.6365 37.662 11.6365 37.109V23.6407C11.6365 23.0877 12.0919 22.6322 12.645 22.6322H20.6153C21.1684 22.6322 21.6238 23.0877 21.6238 23.6407V37.109Z" fill="#0073C3"/>
</g>
<defs>
<clipPath id="clip0_6283_379">
<rect width="32.7273" height="26.4811" fill="white" transform="translate(11.6365 11.6364)"/>
</clipPath>
</defs>
</svg>
