<?xml version="1.0" encoding="utf-8"?>
<svg version="1.1" id="sign-in-icon" xmlns="http://www.w3.org/2000/svg" xmlns:xlink="http://www.w3.org/1999/xlink" x="0px"
	 y="0px" width="24px" height="24px" viewBox="0 0 24 24" enable-background="new 0 0 24 24" xml:space="preserve">
<path fill="#373745" d="M11.9,22.9c-4.1,0-7.9-0.8-10.4-2.3l-0.8-0.5l0.4-0.8c0.1-0.2,0.2-0.3,0.3-0.5C2.8,16.4,5,15.5,7,14.6
	c0.4-0.2,0.8-0.4,1.2-0.5c0.4-0.2,0.5-0.3,0.5-0.4S8.3,13.1,8,12.8c-1.5-1.3-2.3-3.1-2.3-5.1c0-3.6,2.8-6.6,6.3-6.6s6.3,2.9,6.3,6.6
	c0,1.9-0.8,3.8-2.2,5c-0.4,0.3-0.8,0.8-0.8,0.9c0,0,0.1,0.2,0.5,0.3c0.4,0.2,0.8,0.4,1.3,0.5c2.1,0.9,4.2,1.8,5.5,4.2
	c0.1,0.2,0.2,0.3,0.3,0.5l0.4,0.8l-0.8,0.5C19.7,22.1,15.9,22.9,11.9,22.9z M3.3,19.4c2.2,1,5.3,1.6,8.6,1.6s6.3-0.6,8.6-1.6
	c-1-1.5-2.6-2.1-4.3-2.9c-0.4-0.2-0.9-0.4-1.3-0.6c-1.3-0.6-1.6-1.4-1.7-2c-0.1-1.4,1.2-2.5,1.5-2.7c0.9-0.8,1.5-2.1,1.5-3.5
	c0-2.5-1.9-4.6-4.3-4.6s-4.3,2-4.3,4.6c0,1.4,0.6,2.6,1.6,3.5c0.2,0.1,1.6,1.2,1.4,2.6c-0.1,0.6-0.4,1.4-1.7,2
	C8.5,16,8,16.2,7.6,16.4C5.8,17.2,4.3,17.9,3.3,19.4z"/>
</svg>
