<svg width="77" height="77" viewBox="0 0 77 77" fill="none" xmlns="http://www.w3.org/2000/svg">
<circle cx="38.5" cy="38.5" r="38.5" fill="#FEC601"/>
<g clip-path="url(#clip0_6193_924)">
<path d="M61.5 22.668C61.5 20.2344 59.528 18.2657 57.0904 18.2657H20.937C18.472 18.2383 16.5 20.2071 16.5 22.668V32.6758H61.5V22.668Z" fill="#CE1127"/>
<path d="M16.5 32.6758V58.5977C16.5 61.0313 18.472 63 20.9096 63H57.063C59.5006 63 61.4726 61.0313 61.4726 58.5977V32.6758H16.5Z" fill="#FFFFFA"/>
<path d="M24.2236 14H22.4981C21.8407 14 21.293 14.5469 21.293 15.2031V23.7344C21.293 24.3906 21.8407 24.9375 22.4981 24.9375H24.2236C24.8809 24.9375 25.4287 24.3906 25.4287 23.7344V15.2031C25.4287 14.5469 24.8809 14 24.2236 14Z" fill="#373742"/>
<path d="M33.7822 14C32.6319 14 31.7007 14.8203 31.7007 15.832V23.1055C31.7007 24.1172 32.6319 24.9375 33.7822 24.9375C34.9326 24.9375 35.8638 24.1172 35.8638 23.1055V15.832C35.8638 14.8203 34.9326 14 33.7822 14Z" fill="#373742"/>
<path d="M44.2175 14C43.0672 14 42.136 14.8203 42.136 15.832V23.1055C42.136 24.1172 43.0672 24.9375 44.2175 24.9375C45.3679 24.9375 46.2991 24.1172 46.2991 23.1055V15.832C46.2991 14.8203 45.3679 14 44.2175 14Z" fill="#373742"/>
<path d="M55.5017 14H53.7762C53.1188 14 52.571 14.5469 52.571 15.2031V23.7344C52.571 24.3906 53.1188 24.9375 53.7762 24.9375H55.5017C56.159 24.9375 56.7068 24.3906 56.7068 23.7344V15.2031C56.7342 14.5469 56.1864 14 55.5017 14Z" fill="#373742"/>
<path d="M27.9034 51.8579H30.5376V42.4083L27.5 44.1669V40.8372L31.8429 38.211H34.3584V51.8579H36.9689V54.6248H27.9034V51.8579Z" fill="#0073C3"/>
<path d="M40.6547 52.1628C41.8887 51.9439 43.0278 51.5687 44.072 51.0372C45.1162 50.5057 45.9073 49.8492 46.4452 49.0676C45.9389 49.1301 45.5434 49.1614 45.2586 49.1614C44.1353 49.1614 43.1386 48.9269 42.2684 48.4579C41.4141 47.989 40.7496 47.3324 40.275 46.4883C39.8004 45.6441 39.563 44.6671 39.563 43.5572C39.563 42.463 39.8083 41.4938 40.2987 40.6497C40.7892 39.8055 41.4774 39.1568 42.3634 38.7034C43.2493 38.2345 44.2698 38 45.4247 38C46.6271 38 47.6871 38.2736 48.6048 38.8207C49.5224 39.3522 50.2343 40.1025 50.7406 41.0717C51.2469 42.0409 51.5 43.1664 51.5 44.4483C51.5 46.4023 51.0728 48.1453 50.2185 49.6772C49.3642 51.2092 48.1618 52.4363 46.6113 53.3586C45.0608 54.2809 43.2731 54.828 41.248 55L40.6547 52.1628ZM45.4247 46.4179C46.0734 46.4179 46.5955 46.16 46.991 45.6441C47.3865 45.1283 47.5843 44.4405 47.5843 43.5807C47.5843 42.7991 47.3865 42.1738 46.991 41.7048C46.5955 41.2202 46.0734 40.9779 45.4247 40.9779C44.7919 40.9779 44.2777 41.2202 43.8822 41.7048C43.5025 42.1738 43.3126 42.7991 43.3126 43.5807C43.3126 44.4405 43.5025 45.1283 43.8822 45.6441C44.2777 46.16 44.7919 46.4179 45.4247 46.4179Z" fill="#0073C3"/>
</g>
<defs>
<clipPath id="clip0_6193_924">
<rect width="45" height="49" fill="white" transform="translate(16.5 14)"/>
</clipPath>
</defs>
</svg>
