<svg width="77" height="77" viewBox="0 0 77 77" fill="none" xmlns="http://www.w3.org/2000/svg">
<circle cx="38.5" cy="38.5" r="38.5" fill="#FEC601"/>
<g clip-path="url(#clip0_6193_952)">
<path d="M56.6591 44.0914H26.8318C24.4338 44.0914 22.491 42.1586 22.491 39.7731V24.3183C22.491 21.9328 24.4338 20 26.8318 20H56.6591C59.0572 20 61 21.9328 61 24.3183V39.7768C61 42.1586 59.0572 44.0914 56.6591 44.0914Z" fill="#0073C3"/>
<path d="M61 24.6362H22.491V28.1189H61V24.6362Z" fill="#373742"/>
<path d="M55.4564 35.8413H49.7389C49.28 35.8413 48.9062 35.4695 48.9062 35.013V32.0494C48.9062 31.5929 49.28 31.2211 49.7389 31.2211H55.4564C55.9153 31.2211 56.2891 31.5929 56.2891 32.0494V35.013C56.2891 35.4731 55.919 35.8413 55.4564 35.8413Z" fill="#FEC601"/>
<path d="M50.1682 56.8182H20.3409C17.9428 56.8182 16 54.8855 16 52.5036V37.0451C16 34.6596 17.9428 32.7268 20.3409 32.7268H50.1682C52.5662 32.7268 54.509 34.6596 54.509 37.0451V52.5036C54.509 54.8855 52.5662 56.8182 50.1682 56.8182Z" fill="#CE1127"/>
<path d="M25.6217 41.1537H19.9042C19.4453 41.1537 19.0715 40.7818 19.0715 40.3253V37.3618C19.0715 36.9053 19.4453 36.5334 19.9042 36.5334H25.6217C26.0806 36.5334 26.4543 36.9053 26.4543 37.3618V40.3253C26.4543 40.7855 26.0806 41.1537 25.6217 41.1537Z" fill="#FEC601"/>
<path fill-rule="evenodd" clip-rule="evenodd" d="M37.2349 37.5677C37.235 37.0814 37.6309 36.6874 38.119 36.6875L50.9122 36.6912C51.4004 36.6913 51.796 37.0856 51.7959 37.5719C51.7958 38.0581 51.3999 38.4522 50.9117 38.4521L38.1185 38.4484C37.6304 38.4482 37.2347 38.0539 37.2349 37.5677Z" fill="#373742"/>
<path fill-rule="evenodd" clip-rule="evenodd" d="M29.3599 41.2792C29.3599 40.793 29.7556 40.3988 30.2438 40.3988H50.9157C51.4038 40.3988 51.7996 40.793 51.7996 41.2792C51.7996 41.7655 51.4038 42.1597 50.9157 42.1597H30.2438C29.7556 42.1597 29.3599 41.7655 29.3599 41.2792Z" fill="#373742"/>
<path fill-rule="evenodd" clip-rule="evenodd" d="M19.0129 50.626C19.0129 50.1398 19.4087 49.7456 19.8969 49.7456H25.4294C25.9175 49.7456 26.3133 50.1398 26.3133 50.626C26.3133 51.1123 25.9175 51.5065 25.4294 51.5065H19.8969C19.4087 51.5065 19.0129 51.1123 19.0129 50.626Z" fill="#373742"/>
<path fill-rule="evenodd" clip-rule="evenodd" d="M27.5244 50.626C27.5244 50.1398 27.9202 49.7456 28.4083 49.7456H33.9408C34.429 49.7456 34.8248 50.1398 34.8248 50.626C34.8248 51.1123 34.429 51.5065 33.9408 51.5065H28.4083C27.9202 51.5065 27.5244 51.1123 27.5244 50.626Z" fill="#373742"/>
<path fill-rule="evenodd" clip-rule="evenodd" d="M36.0359 50.626C36.0359 50.1398 36.4316 49.7456 36.9198 49.7456H42.4523C42.9405 49.7456 43.3362 50.1398 43.3362 50.626C43.3362 51.1123 42.9405 51.5065 42.4523 51.5065H36.9198C36.4316 51.5065 36.0359 51.1123 36.0359 50.626Z" fill="#373742"/>
<path fill-rule="evenodd" clip-rule="evenodd" d="M44.5474 50.626C44.5474 50.1398 44.9431 49.7456 45.4313 49.7456H50.9601C51.4483 49.7456 51.844 50.1398 51.844 50.626C51.844 51.1123 51.4483 51.5065 50.9601 51.5065H45.4313C44.9431 51.5065 44.5474 51.1123 44.5474 50.626Z" fill="#373742"/>
</g>
<defs>
<clipPath id="clip0_6193_952">
<rect width="45" height="36.8182" fill="white" transform="translate(16 20)"/>
</clipPath>
</defs>
</svg>
