<svg width="77" height="77" viewBox="0 0 77 77" fill="none" xmlns="http://www.w3.org/2000/svg">
<circle cx="38.5" cy="38.5" r="38.5" fill="#FEC601"/>
<g clip-path="url(#clip0_6314_1030)">
<path d="M60.7092 39.9158L58.4501 37.1383C58.1256 36.7397 58.0666 36.19 58.3026 35.7327L59.9337 32.5481C60.2624 31.9104 60.0053 31.1299 59.3647 30.8027L56.1658 29.1789C55.7064 28.9481 55.4282 28.4656 55.4535 27.9538L55.6432 24.3832C55.6811 23.6657 55.129 23.0573 54.4083 23.0195L50.8216 22.8307C50.3074 22.8056 49.8564 22.4783 49.671 22L48.3855 18.6644C48.1284 17.9972 47.374 17.6616 46.6996 17.9175L43.349 19.1972C42.8685 19.3818 42.3248 19.2643 41.9581 18.9035L39.4209 16.3819C38.9109 15.8742 38.0849 15.8742 37.5791 16.3819L35.0419 18.9077C34.6794 19.2685 34.1357 19.386 33.651 19.2014L30.3004 17.9217C29.6302 17.6658 28.8758 17.9972 28.6145 18.6685L27.329 22.0042C27.1436 22.4825 26.6926 22.8098 26.1784 22.8349L22.5917 23.0237C21.871 23.0615 21.3189 23.6699 21.3568 24.3874L21.5465 27.958C21.5718 28.4698 21.2936 28.9481 20.8384 29.1831L17.6395 30.8069C16.9989 31.1341 16.7418 31.9145 17.0705 32.5523L18.6974 35.7327C18.9292 36.19 18.8744 36.7397 18.5499 37.1383L16.2908 39.9158C15.8356 40.4739 15.9241 41.2921 16.4847 41.741L19.2748 43.9899C19.6752 44.313 19.848 44.8375 19.7131 45.3326L18.7859 48.7857C18.6004 49.478 19.0135 50.1913 19.7089 50.3759L23.1776 51.2989C23.6749 51.4332 24.0458 51.8444 24.1259 52.3479L24.6864 55.8765C24.8002 56.5856 25.4661 57.0681 26.1784 56.9548L29.723 56.3968C30.2329 56.3171 30.7387 56.5436 31.0211 56.9716L32.9767 59.9674C33.3686 60.5674 34.1779 60.7394 34.7806 60.3492L37.7898 58.4023C38.2197 58.1212 38.7803 58.1212 39.2102 58.4023L42.2194 60.3492C42.8221 60.7394 43.6314 60.5674 44.0233 59.9674L45.9789 56.9716C46.2613 56.5436 46.7671 56.3171 47.277 56.3968L50.8216 56.9548C51.5339 57.0681 52.1998 56.5856 52.3136 55.8765L52.8741 52.3479C52.9542 51.8402 53.3251 51.429 53.8224 51.2989L57.2911 50.3759C57.9865 50.1913 58.3996 49.478 58.2141 48.7857L57.2869 45.3326C57.152 44.8375 57.3248 44.3088 57.7252 43.9899L60.5153 41.741C61.0759 41.2879 61.1602 40.4739 60.7092 39.9158Z" fill="#CE1127"/>
<path d="M48.4908 34.0167L35.8383 46.6123C35.4632 46.9857 34.8521 46.9857 34.477 46.6123L27.6661 39.832C27.291 39.4586 27.291 38.8502 27.6661 38.4768L29.9209 36.232C30.296 35.8586 30.9072 35.8586 31.2823 36.232L35.1556 40.0879L44.8746 30.4125C45.2497 30.0391 45.8608 30.0391 46.2359 30.4125L48.4908 32.6572C48.8659 33.0349 48.8659 33.6432 48.4908 34.0167Z" fill="white"/>
</g>
<defs>
<clipPath id="clip0_6314_1030">
<rect width="45" height="44.5631" fill="white" transform="translate(16 16)"/>
</clipPath>
</defs>
</svg>
