<svg width="52" height="52" viewBox="0 0 52 52" fill="none" xmlns="http://www.w3.org/2000/svg">
<path d="M3 19.5H50L49 13.5L46.5 10.5L43 8.5H9L5.5 10.5L3 14.5V19.5Z" fill="#FEC601"/>
<g clip-path="url(#clip0_18_1875)">
<path d="M11.917 36.8336C13.7119 36.8336 15.167 35.3785 15.167 33.5836C15.167 31.7887 13.7119 30.3336 11.917 30.3336C10.1221 30.3336 8.66699 31.7887 8.66699 33.5836C8.66699 35.3785 10.1221 36.8336 11.917 36.8336Z" fill="#2A70C8"/>
<path d="M41.1667 6.5H10.8333C7.96121 6.50344 5.20771 7.64591 3.17681 9.67681C1.14591 11.7077 0.00344036 14.4612 0 17.3333L0 34.6667C0.00344036 37.5388 1.14591 40.2923 3.17681 42.3232C5.20771 44.3541 7.96121 45.4966 10.8333 45.5H41.1667C44.0388 45.4966 46.7923 44.3541 48.8232 42.3232C50.8541 40.2923 51.9966 37.5388 52 34.6667V17.3333C51.9966 14.4612 50.8541 11.7077 48.8232 9.67681C46.7923 7.64591 44.0388 6.50344 41.1667 6.5ZM10.8333 10.8333H41.1667C42.8906 10.8333 44.5439 11.5182 45.7629 12.7371C46.9818 13.9561 47.6667 15.6094 47.6667 17.3333H4.33333C4.33333 15.6094 5.01815 13.9561 6.23714 12.7371C7.45613 11.5182 9.10943 10.8333 10.8333 10.8333ZM41.1667 41.1667H10.8333C9.10943 41.1667 7.45613 40.4818 6.23714 39.2629C5.01815 38.0439 4.33333 36.3906 4.33333 34.6667V21.6667H47.6667V34.6667C47.6667 36.3906 46.9818 38.0439 45.7629 39.2629C44.5439 40.4818 42.8906 41.1667 41.1667 41.1667Z" fill="#2A70C8"/>
</g>
<defs>
<clipPath id="clip0_18_1875">
<rect width="52" height="52" fill="white"/>
</clipPath>
</defs>
</svg>
