<svg width="52" height="52" viewBox="0 0 52 52" fill="none" xmlns="http://www.w3.org/2000/svg">
<path d="M36.5 15.5C39 2.5 40.5 7.5 40.5 5.5L26 2L16 5.5L8.5 15.5L6.5 30.5C9 35.1667 14.9 45.1 18.5 47.5C23 50.5 42 49 38 49C34 49 29.5 44.5 26 36.5C22.5 28.5 34 28.5 36.5 15.5Z" fill="#FEC601"/>
<g clip-path="url(#clip0_18_1870)">
<path d="M47.0492 39.7863C44.5674 42.7953 41.3194 45.0786 37.6479 46.3952C33.9764 47.7118 30.0176 48.0129 26.1892 47.2667C22.3608 46.5205 18.8049 44.7547 15.8966 42.1556C12.9883 39.5566 10.8356 36.2206 9.6655 32.4999H32.5C33.0746 32.4999 33.6257 32.2716 34.0321 31.8653C34.4384 31.4589 34.6667 30.9078 34.6667 30.3332C34.6667 29.7586 34.4384 29.2075 34.0321 28.8011C33.6257 28.3948 33.0746 28.1665 32.5 28.1665H8.77717C8.62983 26.7258 8.62983 25.2739 8.77717 23.8332H32.5C33.0746 23.8332 33.6257 23.6049 34.0321 23.1986C34.4384 22.7923 34.6667 22.2412 34.6667 21.6665C34.6667 21.0919 34.4384 20.5408 34.0321 20.1345C33.6257 19.7281 33.0746 19.4999 32.5 19.4999H9.6655C10.8356 15.7791 12.9883 12.4432 15.8966 9.8441C18.8049 7.24504 22.3608 5.47924 26.1892 4.73305C30.0176 3.98686 33.9764 4.28794 37.6479 5.60453C41.3194 6.92112 44.5674 9.20438 47.0492 12.2134C47.2304 12.4328 47.4531 12.6143 47.7045 12.7476C47.9559 12.8809 48.2311 12.9634 48.5144 12.9904C48.7976 13.0173 49.0835 12.9882 49.3555 12.9047C49.6275 12.8212 49.8805 12.685 50.0998 12.5037C50.3192 12.3225 50.5007 12.0998 50.634 11.8484C50.7674 11.597 50.8499 11.3218 50.8768 11.0385C50.9038 10.7552 50.8747 10.4694 50.7912 10.1974C50.7077 9.92534 50.5714 9.67242 50.3902 9.45305C47.3409 5.75734 43.3289 2.977 38.7979 1.41948C34.2668 -0.138041 29.3933 -0.41204 24.7162 0.627782C20.0391 1.6676 15.7408 3.98073 12.2965 7.31135C8.85216 10.642 6.39614 14.8603 5.2 19.4999H2.16667C1.59203 19.4999 1.04093 19.7281 0.634602 20.1345C0.228273 20.5408 0 21.0919 0 21.6665C0 22.2412 0.228273 22.7923 0.634602 23.1986C1.04093 23.6049 1.59203 23.8332 2.16667 23.8332H4.44383C4.38317 24.5504 4.33333 25.2675 4.33333 25.9999C4.33333 26.7322 4.38317 27.4494 4.44383 28.1665H2.16667C1.59203 28.1665 1.04093 28.3948 0.634602 28.8011C0.228273 29.2075 0 29.7586 0 30.3332C0 30.9078 0.228273 31.4589 0.634602 31.8653C1.04093 32.2716 1.59203 32.4999 2.16667 32.4999H5.2C6.39479 37.1418 8.85066 41.3626 12.2958 44.6952C15.7409 48.0278 20.041 50.3422 24.7201 51.3822C29.3991 52.4222 34.2747 52.1473 38.8072 50.5879C43.3397 49.0285 47.3523 46.2454 50.401 42.5467C50.767 42.1036 50.9421 41.5333 50.8876 40.9612C50.8332 40.3891 50.5537 39.8621 50.1107 39.496C49.6676 39.13 49.0973 38.9549 48.5252 39.0094C47.9531 39.0638 47.426 39.3433 47.06 39.7863H47.0492Z" fill="#2A70C8"/>
</g>
<defs>
<clipPath id="clip0_18_1870">
<rect width="52" height="52" fill="white"/>
</clipPath>
</defs>
</svg>
