<svg width="52" height="52" viewBox="0 0 52 52" fill="none" xmlns="http://www.w3.org/2000/svg">
<path d="M9.5 22.5H4L6.5 16L12.5 7C14.5 5.33333 19.9 2 25.5 2C31.1 2 32.8333 4 33 5L29.5 12.5L25.5 17C23.1667 18.5 17.9 21.7 15.5 22.5C13.1 23.3 10.5 22.8333 9.5 22.5Z" fill="#FEC601"/>
<g clip-path="url(#clip0_18_1864)">
<path d="M31.4167 28.1676C30.7739 28.1676 30.1456 27.977 29.6111 27.6199C29.0767 27.2627 28.6601 26.7552 28.4141 26.1613C28.1681 25.5674 28.1038 24.914 28.2292 24.2835C28.3546 23.6531 28.6641 23.074 29.1186 22.6195C29.5732 22.165 30.1522 21.8554 30.7827 21.73C31.4131 21.6046 32.0666 21.669 32.6604 21.915C33.2543 22.161 33.7619 22.5775 34.119 23.112C34.4761 23.6464 34.6667 24.2748 34.6667 24.9176C34.6667 25.7795 34.3243 26.6062 33.7148 27.2157C33.1053 27.8252 32.2787 28.1676 31.4167 28.1676ZM47.3439 17.9279C46.474 12.9015 43.8543 8.3447 39.9481 5.06386C36.042 1.78303 31.1012 -0.0103934 26.0001 0.000907576C11.0501 0.000907576 6.76873 10.1279 3.94123 16.8294C3.36789 18.7256 2.39321 20.4761 1.0834 21.9622C0.692116 22.1904 0.382198 22.5355 0.197214 22.949C0.0122301 23.3625 -0.0385159 23.8235 0.0521104 24.2673C0.142737 24.7112 0.370178 25.1154 0.702456 25.4232C1.03473 25.7311 1.45514 25.927 1.90456 25.9836C7.26013 26.4339 12.6465 25.6175 17.6281 23.6002C17.3532 24.2093 17.2728 24.8884 17.3978 25.5448C17.5228 26.2013 17.847 26.8032 18.3265 27.2687C18.8059 27.7342 19.4172 28.0406 20.077 28.1462C20.7369 28.2517 21.4132 28.1513 22.014 27.8586C22.6147 27.5659 23.1106 27.0952 23.4341 26.5105C23.7577 25.9258 23.8931 25.2556 23.822 24.5911C23.7509 23.9267 23.4767 23.3003 23.0367 22.7973C22.5968 22.2943 22.0125 21.9392 21.3634 21.7802C25.6201 19.3957 29.2891 16.0887 32.1014 12.1017C32.2799 11.8712 32.41 11.6071 32.484 11.3251C32.5579 11.0431 32.5742 10.7491 32.5319 10.4607C32.4896 10.1722 32.3895 9.89531 32.2376 9.64648C32.0857 9.39765 31.8851 9.18203 31.648 9.01253C31.4108 8.84303 31.1418 8.72313 30.8572 8.66003C30.5726 8.59692 30.2782 8.5919 29.9916 8.64527C29.705 8.69863 29.4321 8.80928 29.1893 8.9706C28.9465 9.13191 28.7387 9.34057 28.5784 9.58407C26.0517 13.1414 22.7533 16.0814 18.93 18.184C15.1067 20.2866 10.8574 21.4975 6.50006 21.7261C6.9919 20.7446 7.44906 19.6547 7.9344 18.5129C10.5994 12.1949 13.9166 4.33424 26.0001 4.33424C30.281 4.324 34.4135 5.9027 37.5972 8.76462C40.781 11.6265 42.7894 15.5681 43.2337 19.8259C43.2833 20.2914 43.4824 20.7284 43.8011 21.0713C44.1198 21.4143 44.5411 21.6447 45.0017 21.7282C45.7911 21.8826 46.4952 22.3243 46.9778 22.9678C47.4605 23.6112 47.6873 24.4108 47.6146 25.2119C47.5418 26.0129 47.1745 26.7585 46.5839 27.3045C45.9932 27.8504 45.221 28.158 44.4167 28.1676C44.2335 28.1625 44.0509 28.1429 43.8707 28.1091C43.3654 28.0169 42.8438 28.1085 42.4 28.3671C41.9562 28.6257 41.6195 29.0345 41.4506 29.5196C39.4659 35.1464 32.7861 41.1676 26.0001 41.1676C19.7167 41.1676 13.8667 36.2211 11.3404 31.3331C11.0761 30.8228 10.6199 30.4384 10.0721 30.2645C9.52439 30.0906 8.93001 30.1414 8.41973 30.4057C7.90945 30.6701 7.52508 31.1263 7.35117 31.674C7.17726 32.2218 7.22806 32.8161 7.4924 33.3264C9.73796 37.5164 13.1583 40.9593 17.3334 43.2324V49.8342C17.3334 50.4089 17.5617 50.96 17.968 51.3663C18.3743 51.7726 18.9254 52.0009 19.5001 52.0009C20.0747 52.0009 20.6258 51.7726 21.0321 51.3663C21.4385 50.96 21.6667 50.4089 21.6667 49.8342V44.9333C24.5053 45.6959 27.4948 45.6959 30.3334 44.9333V49.8342C30.3334 50.4089 30.5617 50.96 30.968 51.3663C31.3743 51.7726 31.9254 52.0009 32.5001 52.0009C33.0747 52.0009 33.6258 51.7726 34.0321 51.3663C34.4385 50.96 34.6667 50.4089 34.6667 49.8342V43.2346C39.139 40.8303 42.7299 37.0648 44.9194 32.4836C46.622 32.3674 48.2356 31.6804 49.4993 30.5335C50.7631 29.3867 51.6031 27.8471 51.8834 26.1638C52.1638 24.4805 51.8682 22.7518 51.0445 21.2572C50.2207 19.7627 48.9169 18.5897 47.3439 17.9279Z" fill="#2A70C8"/>
</g>
<defs>
<clipPath id="clip0_18_1864">
<rect width="52" height="52" fill="white"/>
</clipPath>
</defs>
</svg>
