<svg width="52" height="52" viewBox="0 0 52 52" fill="none" xmlns="http://www.w3.org/2000/svg">
<mask id="mask0_18_1857" style="mask-type:alpha" maskUnits="userSpaceOnUse" x="2" y="13" width="17" height="33">
<rect x="2" y="13" width="17" height="33" fill="#D9D9D9"/>
</mask>
<g mask="url(#mask0_18_1857)">
<path d="M51.3415 16.805C50.3255 15.6342 49.0698 14.6953 47.6594 14.0519C46.249 13.4086 44.7169 13.0758 43.1667 13.0762H34.5238L35.2518 8.65401C35.5094 7.09674 35.1987 5.49877 34.3762 4.15154C33.5538 2.80432 32.2744 1.79762 30.7716 1.31506C29.2687 0.832496 27.6425 0.906228 26.1895 1.52281C24.7365 2.13938 23.5535 3.25772 22.8563 4.67384L18.7093 13.0762H12.8333C9.96121 13.0796 7.20771 14.2221 5.17681 16.253C3.14591 18.2839 2.00344 21.0374 2 23.9095L2 34.7428C2.00344 37.615 3.14591 40.3685 5.17681 42.3994C7.20771 44.4303 9.96121 45.5727 12.8333 45.5762H41.65C44.2575 45.5655 46.7746 44.6192 48.7432 42.9094C50.7119 41.1995 52.0014 38.8398 52.3772 36.2595L53.9047 25.4262C54.1198 23.8894 54.0023 22.3244 53.56 20.837C53.1178 19.3496 52.3612 17.9746 51.3415 16.805Z" fill="#FEC601"/>
</g>
<g clip-path="url(#clip0_18_1857)">
<path d="M49.3415 16.7297C48.3255 15.5588 47.0698 14.62 45.6594 13.9766C44.249 13.3333 42.7169 13.0005 41.1667 13.0009H32.5238L33.2518 8.57869C33.5094 7.02143 33.1987 5.42345 32.3762 4.07623C31.5538 2.729 30.2744 1.7223 28.7716 1.23974C27.2687 0.757179 25.6425 0.83091 24.1895 1.44749C22.7365 2.06407 21.5535 3.1824 20.8563 4.59852L16.7093 13.0009H10.8333C7.96121 13.0043 5.20771 14.1468 3.17681 16.1777C1.14591 18.2086 0.00344036 20.9621 0 23.8342L0 34.6675C0.00344036 37.5396 1.14591 40.2932 3.17681 42.3241C5.20771 44.3549 7.96121 45.4974 10.8333 45.5009H39.65C42.2575 45.4902 44.7746 44.5439 46.7432 42.834C48.7119 41.1242 50.0014 38.7645 50.3772 36.1842L51.9047 25.3509C52.1198 23.8141 52.0023 22.2491 51.56 20.7617C51.1178 19.2743 50.3612 17.8993 49.3415 16.7297ZM4.33333 34.6675V23.8342C4.33333 22.1103 5.01815 20.457 6.23714 19.238C7.45613 18.019 9.10943 17.3342 10.8333 17.3342H15.1667V41.1675H10.8333C9.10943 41.1675 7.45613 40.4827 6.23714 39.2637C5.01815 38.0447 4.33333 36.3914 4.33333 34.6675ZM47.6038 24.742L46.0742 35.5754C45.8505 37.1223 45.0791 38.5377 43.9001 39.5639C42.7212 40.5902 41.213 41.1592 39.65 41.1675H19.5V16.7579C19.7042 16.58 19.8732 16.3654 19.9983 16.1252L24.7412 6.51602C24.919 6.1952 25.1705 5.92117 25.4749 5.71644C25.7792 5.51171 26.1279 5.38213 26.4921 5.33835C26.8563 5.29457 27.2257 5.33784 27.5699 5.4646C27.9141 5.59136 28.2233 5.798 28.4722 6.06752C28.685 6.31506 28.8407 6.60652 28.9279 6.92112C29.0152 7.23572 29.0319 7.5657 28.977 7.88753L27.833 14.8209C27.7828 15.1306 27.8005 15.4477 27.8848 15.7499C27.9692 16.0522 28.1182 16.3326 28.3216 16.5716C28.525 16.8106 28.7778 17.0026 29.0627 17.1343C29.3476 17.2659 29.6577 17.3342 29.9715 17.3342H41.1667C42.097 17.3341 43.0166 17.5337 43.8632 17.9195C44.7098 18.3053 45.4637 18.8684 46.0739 19.5707C46.6842 20.273 47.1366 21.0981 47.4005 21.9902C47.6644 22.8824 47.7338 23.8208 47.6038 24.742Z" fill="#2A70C8"/>
</g>
<defs>
<clipPath id="clip0_18_1857">
<rect width="52" height="52" fill="white"/>
</clipPath>
</defs>
</svg>
