<svg width="77" height="77" viewBox="0 0 77 77" fill="none" xmlns="http://www.w3.org/2000/svg">
<circle cx="38.5" cy="38.5" r="38.5" fill="#FEC601"/>
<path d="M58.6565 35.3583C59.0525 35.9778 58.8546 36.8524 58.2277 37.2531L35.8384 51.5653C35.2115 51.966 34.3629 51.8227 33.9386 51.1589L24.2355 35.9798C23.8842 35.3316 24.0821 34.4571 24.709 34.0564L47.0984 19.7442C47.7253 19.3434 48.6021 19.531 48.9981 20.1506L58.7012 35.3297L58.6565 35.3583Z" fill="#0073C3"/>
<path d="M61 55.861C61 57.5116 59.6765 58.8147 58 58.8147H23.0588C21.3824 58.8147 20.0588 57.5116 20.0588 55.861V31.7973C20.0588 30.1467 21.3824 28.8436 23.0588 28.8436H58C59.6765 28.8436 61 30.1467 61 31.7973V55.861Z" fill="#CE1127"/>
<path d="M27.2941 45.6969C27.2941 47.3475 26.2353 48.6506 25 48.6506H18.2941C17.0588 48.6506 16 47.3475 16 45.6969V42.8301C16 41.0926 17.0588 39.7896 18.2941 39.7896H25C26.2353 39.7896 27.2941 41.0926 27.2941 42.7432V45.6969Z" fill="#373742"/>
<path d="M24.0217 46.101C25.1803 45.4872 25.6142 44.0649 24.9908 42.9241C24.3674 41.7834 22.9228 41.3562 21.7642 41.97C20.6055 42.5837 20.1716 44.0061 20.795 45.1468C21.4184 46.2875 22.863 46.7147 24.0217 46.101Z" fill="#0073C3"/>
</svg>
